%TF.GenerationSoftware,KiCad,Pcbnew,8.0.5-8.0.5-0~ubuntu20.04.1*%
%TF.CreationDate,2024-10-10T12:20:39-03:00*%
%TF.ProjectId,MicroSD,4d696372-6f53-4442-9e6b-696361645f70,Luis G_mez*%
%TF.SameCoordinates,Original*%
%TF.FileFunction,Drillmap*%
%TF.FilePolarity,Positive*%
%FSLAX45Y45*%
G04 Gerber Fmt 4.5, Leading zero omitted, Abs format (unit mm)*
G04 Created by KiCad (PCBNEW 8.0.5-8.0.5-0~ubuntu20.04.1) date 2024-10-10 12:20:39*
%MOMM*%
%LPD*%
G01*
G04 APERTURE LIST*
%ADD10C,0.050000*%
%ADD11C,0.200000*%
G04 APERTURE END LIST*
D10*
X10000000Y-10000000D02*
X13000000Y-10000000D01*
X13000000Y-14000000D01*
X10000000Y-14000000D01*
X10000000Y-10000000D01*
D11*
X10200000Y-10200000D02*
X10400000Y-10400000D01*
X10400000Y-10200000D02*
X10200000Y-10400000D01*
X10200000Y-13600000D02*
X10400000Y-13800000D01*
X10400000Y-13600000D02*
X10200000Y-13800000D01*
X12603000Y-10202000D02*
X12803000Y-10402000D01*
X12803000Y-10202000D02*
X12603000Y-10402000D01*
X12613000Y-13600000D02*
X12813000Y-13800000D01*
X12813000Y-13600000D02*
X12613000Y-13800000D01*
X10258277Y-14313984D02*
X10258277Y-14113984D01*
X10258277Y-14113984D02*
X10305896Y-14113984D01*
X10305896Y-14113984D02*
X10334467Y-14123508D01*
X10334467Y-14123508D02*
X10353515Y-14142555D01*
X10353515Y-14142555D02*
X10363039Y-14161603D01*
X10363039Y-14161603D02*
X10372563Y-14199698D01*
X10372563Y-14199698D02*
X10372563Y-14228269D01*
X10372563Y-14228269D02*
X10363039Y-14266365D01*
X10363039Y-14266365D02*
X10353515Y-14285412D01*
X10353515Y-14285412D02*
X10334467Y-14304460D01*
X10334467Y-14304460D02*
X10305896Y-14313984D01*
X10305896Y-14313984D02*
X10258277Y-14313984D01*
X10458277Y-14313984D02*
X10458277Y-14180650D01*
X10458277Y-14218746D02*
X10467801Y-14199698D01*
X10467801Y-14199698D02*
X10477324Y-14190174D01*
X10477324Y-14190174D02*
X10496372Y-14180650D01*
X10496372Y-14180650D02*
X10515420Y-14180650D01*
X10582086Y-14313984D02*
X10582086Y-14180650D01*
X10582086Y-14113984D02*
X10572563Y-14123508D01*
X10572563Y-14123508D02*
X10582086Y-14133031D01*
X10582086Y-14133031D02*
X10591610Y-14123508D01*
X10591610Y-14123508D02*
X10582086Y-14113984D01*
X10582086Y-14113984D02*
X10582086Y-14133031D01*
X10705896Y-14313984D02*
X10686848Y-14304460D01*
X10686848Y-14304460D02*
X10677324Y-14285412D01*
X10677324Y-14285412D02*
X10677324Y-14113984D01*
X10810658Y-14313984D02*
X10791610Y-14304460D01*
X10791610Y-14304460D02*
X10782086Y-14285412D01*
X10782086Y-14285412D02*
X10782086Y-14113984D01*
X11039229Y-14313984D02*
X11039229Y-14113984D01*
X11039229Y-14113984D02*
X11105896Y-14256841D01*
X11105896Y-14256841D02*
X11172563Y-14113984D01*
X11172563Y-14113984D02*
X11172563Y-14313984D01*
X11353515Y-14313984D02*
X11353515Y-14209222D01*
X11353515Y-14209222D02*
X11343991Y-14190174D01*
X11343991Y-14190174D02*
X11324943Y-14180650D01*
X11324943Y-14180650D02*
X11286848Y-14180650D01*
X11286848Y-14180650D02*
X11267801Y-14190174D01*
X11353515Y-14304460D02*
X11334467Y-14313984D01*
X11334467Y-14313984D02*
X11286848Y-14313984D01*
X11286848Y-14313984D02*
X11267801Y-14304460D01*
X11267801Y-14304460D02*
X11258277Y-14285412D01*
X11258277Y-14285412D02*
X11258277Y-14266365D01*
X11258277Y-14266365D02*
X11267801Y-14247317D01*
X11267801Y-14247317D02*
X11286848Y-14237793D01*
X11286848Y-14237793D02*
X11334467Y-14237793D01*
X11334467Y-14237793D02*
X11353515Y-14228269D01*
X11448753Y-14180650D02*
X11448753Y-14380650D01*
X11448753Y-14190174D02*
X11467801Y-14180650D01*
X11467801Y-14180650D02*
X11505896Y-14180650D01*
X11505896Y-14180650D02*
X11524943Y-14190174D01*
X11524943Y-14190174D02*
X11534467Y-14199698D01*
X11534467Y-14199698D02*
X11543991Y-14218746D01*
X11543991Y-14218746D02*
X11543991Y-14275888D01*
X11543991Y-14275888D02*
X11534467Y-14294936D01*
X11534467Y-14294936D02*
X11524943Y-14304460D01*
X11524943Y-14304460D02*
X11505896Y-14313984D01*
X11505896Y-14313984D02*
X11467801Y-14313984D01*
X11467801Y-14313984D02*
X11448753Y-14304460D01*
X11629705Y-14294936D02*
X11639229Y-14304460D01*
X11639229Y-14304460D02*
X11629705Y-14313984D01*
X11629705Y-14313984D02*
X11620182Y-14304460D01*
X11620182Y-14304460D02*
X11629705Y-14294936D01*
X11629705Y-14294936D02*
X11629705Y-14313984D01*
X11629705Y-14190174D02*
X11639229Y-14199698D01*
X11639229Y-14199698D02*
X11629705Y-14209222D01*
X11629705Y-14209222D02*
X11620182Y-14199698D01*
X11620182Y-14199698D02*
X11629705Y-14190174D01*
X11629705Y-14190174D02*
X11629705Y-14209222D01*
X9797500Y-14542500D02*
X9997500Y-14742500D01*
X9997500Y-14542500D02*
X9797500Y-14742500D01*
X10248753Y-14553031D02*
X10258277Y-14543508D01*
X10258277Y-14543508D02*
X10277324Y-14533984D01*
X10277324Y-14533984D02*
X10324944Y-14533984D01*
X10324944Y-14533984D02*
X10343991Y-14543508D01*
X10343991Y-14543508D02*
X10353515Y-14553031D01*
X10353515Y-14553031D02*
X10363039Y-14572079D01*
X10363039Y-14572079D02*
X10363039Y-14591127D01*
X10363039Y-14591127D02*
X10353515Y-14619698D01*
X10353515Y-14619698D02*
X10239229Y-14733984D01*
X10239229Y-14733984D02*
X10363039Y-14733984D01*
X10448753Y-14714936D02*
X10458277Y-14724460D01*
X10458277Y-14724460D02*
X10448753Y-14733984D01*
X10448753Y-14733984D02*
X10439229Y-14724460D01*
X10439229Y-14724460D02*
X10448753Y-14714936D01*
X10448753Y-14714936D02*
X10448753Y-14733984D01*
X10582086Y-14533984D02*
X10601134Y-14533984D01*
X10601134Y-14533984D02*
X10620182Y-14543508D01*
X10620182Y-14543508D02*
X10629705Y-14553031D01*
X10629705Y-14553031D02*
X10639229Y-14572079D01*
X10639229Y-14572079D02*
X10648753Y-14610174D01*
X10648753Y-14610174D02*
X10648753Y-14657793D01*
X10648753Y-14657793D02*
X10639229Y-14695888D01*
X10639229Y-14695888D02*
X10629705Y-14714936D01*
X10629705Y-14714936D02*
X10620182Y-14724460D01*
X10620182Y-14724460D02*
X10601134Y-14733984D01*
X10601134Y-14733984D02*
X10582086Y-14733984D01*
X10582086Y-14733984D02*
X10563039Y-14724460D01*
X10563039Y-14724460D02*
X10553515Y-14714936D01*
X10553515Y-14714936D02*
X10543991Y-14695888D01*
X10543991Y-14695888D02*
X10534467Y-14657793D01*
X10534467Y-14657793D02*
X10534467Y-14610174D01*
X10534467Y-14610174D02*
X10543991Y-14572079D01*
X10543991Y-14572079D02*
X10553515Y-14553031D01*
X10553515Y-14553031D02*
X10563039Y-14543508D01*
X10563039Y-14543508D02*
X10582086Y-14533984D01*
X10772563Y-14533984D02*
X10791610Y-14533984D01*
X10791610Y-14533984D02*
X10810658Y-14543508D01*
X10810658Y-14543508D02*
X10820182Y-14553031D01*
X10820182Y-14553031D02*
X10829705Y-14572079D01*
X10829705Y-14572079D02*
X10839229Y-14610174D01*
X10839229Y-14610174D02*
X10839229Y-14657793D01*
X10839229Y-14657793D02*
X10829705Y-14695888D01*
X10829705Y-14695888D02*
X10820182Y-14714936D01*
X10820182Y-14714936D02*
X10810658Y-14724460D01*
X10810658Y-14724460D02*
X10791610Y-14733984D01*
X10791610Y-14733984D02*
X10772563Y-14733984D01*
X10772563Y-14733984D02*
X10753515Y-14724460D01*
X10753515Y-14724460D02*
X10743991Y-14714936D01*
X10743991Y-14714936D02*
X10734467Y-14695888D01*
X10734467Y-14695888D02*
X10724944Y-14657793D01*
X10724944Y-14657793D02*
X10724944Y-14610174D01*
X10724944Y-14610174D02*
X10734467Y-14572079D01*
X10734467Y-14572079D02*
X10743991Y-14553031D01*
X10743991Y-14553031D02*
X10753515Y-14543508D01*
X10753515Y-14543508D02*
X10772563Y-14533984D01*
X10963039Y-14533984D02*
X10982086Y-14533984D01*
X10982086Y-14533984D02*
X11001134Y-14543508D01*
X11001134Y-14543508D02*
X11010658Y-14553031D01*
X11010658Y-14553031D02*
X11020182Y-14572079D01*
X11020182Y-14572079D02*
X11029705Y-14610174D01*
X11029705Y-14610174D02*
X11029705Y-14657793D01*
X11029705Y-14657793D02*
X11020182Y-14695888D01*
X11020182Y-14695888D02*
X11010658Y-14714936D01*
X11010658Y-14714936D02*
X11001134Y-14724460D01*
X11001134Y-14724460D02*
X10982086Y-14733984D01*
X10982086Y-14733984D02*
X10963039Y-14733984D01*
X10963039Y-14733984D02*
X10943991Y-14724460D01*
X10943991Y-14724460D02*
X10934467Y-14714936D01*
X10934467Y-14714936D02*
X10924944Y-14695888D01*
X10924944Y-14695888D02*
X10915420Y-14657793D01*
X10915420Y-14657793D02*
X10915420Y-14610174D01*
X10915420Y-14610174D02*
X10924944Y-14572079D01*
X10924944Y-14572079D02*
X10934467Y-14553031D01*
X10934467Y-14553031D02*
X10943991Y-14543508D01*
X10943991Y-14543508D02*
X10963039Y-14533984D01*
X11115420Y-14733984D02*
X11115420Y-14600650D01*
X11115420Y-14619698D02*
X11124944Y-14610174D01*
X11124944Y-14610174D02*
X11143991Y-14600650D01*
X11143991Y-14600650D02*
X11172563Y-14600650D01*
X11172563Y-14600650D02*
X11191610Y-14610174D01*
X11191610Y-14610174D02*
X11201134Y-14629222D01*
X11201134Y-14629222D02*
X11201134Y-14733984D01*
X11201134Y-14629222D02*
X11210658Y-14610174D01*
X11210658Y-14610174D02*
X11229705Y-14600650D01*
X11229705Y-14600650D02*
X11258277Y-14600650D01*
X11258277Y-14600650D02*
X11277324Y-14610174D01*
X11277324Y-14610174D02*
X11286848Y-14629222D01*
X11286848Y-14629222D02*
X11286848Y-14733984D01*
X11382086Y-14733984D02*
X11382086Y-14600650D01*
X11382086Y-14619698D02*
X11391610Y-14610174D01*
X11391610Y-14610174D02*
X11410658Y-14600650D01*
X11410658Y-14600650D02*
X11439229Y-14600650D01*
X11439229Y-14600650D02*
X11458277Y-14610174D01*
X11458277Y-14610174D02*
X11467801Y-14629222D01*
X11467801Y-14629222D02*
X11467801Y-14733984D01*
X11467801Y-14629222D02*
X11477324Y-14610174D01*
X11477324Y-14610174D02*
X11496372Y-14600650D01*
X11496372Y-14600650D02*
X11524943Y-14600650D01*
X11524943Y-14600650D02*
X11543991Y-14610174D01*
X11543991Y-14610174D02*
X11553515Y-14629222D01*
X11553515Y-14629222D02*
X11553515Y-14733984D01*
X11943991Y-14524460D02*
X11772563Y-14781603D01*
X12201134Y-14533984D02*
X12220182Y-14533984D01*
X12220182Y-14533984D02*
X12239229Y-14543508D01*
X12239229Y-14543508D02*
X12248753Y-14553031D01*
X12248753Y-14553031D02*
X12258277Y-14572079D01*
X12258277Y-14572079D02*
X12267801Y-14610174D01*
X12267801Y-14610174D02*
X12267801Y-14657793D01*
X12267801Y-14657793D02*
X12258277Y-14695888D01*
X12258277Y-14695888D02*
X12248753Y-14714936D01*
X12248753Y-14714936D02*
X12239229Y-14724460D01*
X12239229Y-14724460D02*
X12220182Y-14733984D01*
X12220182Y-14733984D02*
X12201134Y-14733984D01*
X12201134Y-14733984D02*
X12182086Y-14724460D01*
X12182086Y-14724460D02*
X12172563Y-14714936D01*
X12172563Y-14714936D02*
X12163039Y-14695888D01*
X12163039Y-14695888D02*
X12153515Y-14657793D01*
X12153515Y-14657793D02*
X12153515Y-14610174D01*
X12153515Y-14610174D02*
X12163039Y-14572079D01*
X12163039Y-14572079D02*
X12172563Y-14553031D01*
X12172563Y-14553031D02*
X12182086Y-14543508D01*
X12182086Y-14543508D02*
X12201134Y-14533984D01*
X12353515Y-14714936D02*
X12363039Y-14724460D01*
X12363039Y-14724460D02*
X12353515Y-14733984D01*
X12353515Y-14733984D02*
X12343991Y-14724460D01*
X12343991Y-14724460D02*
X12353515Y-14714936D01*
X12353515Y-14714936D02*
X12353515Y-14733984D01*
X12486848Y-14533984D02*
X12505896Y-14533984D01*
X12505896Y-14533984D02*
X12524944Y-14543508D01*
X12524944Y-14543508D02*
X12534467Y-14553031D01*
X12534467Y-14553031D02*
X12543991Y-14572079D01*
X12543991Y-14572079D02*
X12553515Y-14610174D01*
X12553515Y-14610174D02*
X12553515Y-14657793D01*
X12553515Y-14657793D02*
X12543991Y-14695888D01*
X12543991Y-14695888D02*
X12534467Y-14714936D01*
X12534467Y-14714936D02*
X12524944Y-14724460D01*
X12524944Y-14724460D02*
X12505896Y-14733984D01*
X12505896Y-14733984D02*
X12486848Y-14733984D01*
X12486848Y-14733984D02*
X12467801Y-14724460D01*
X12467801Y-14724460D02*
X12458277Y-14714936D01*
X12458277Y-14714936D02*
X12448753Y-14695888D01*
X12448753Y-14695888D02*
X12439229Y-14657793D01*
X12439229Y-14657793D02*
X12439229Y-14610174D01*
X12439229Y-14610174D02*
X12448753Y-14572079D01*
X12448753Y-14572079D02*
X12458277Y-14553031D01*
X12458277Y-14553031D02*
X12467801Y-14543508D01*
X12467801Y-14543508D02*
X12486848Y-14533984D01*
X12620182Y-14533984D02*
X12753515Y-14533984D01*
X12753515Y-14533984D02*
X12667801Y-14733984D01*
X12858277Y-14619698D02*
X12839229Y-14610174D01*
X12839229Y-14610174D02*
X12829706Y-14600650D01*
X12829706Y-14600650D02*
X12820182Y-14581603D01*
X12820182Y-14581603D02*
X12820182Y-14572079D01*
X12820182Y-14572079D02*
X12829706Y-14553031D01*
X12829706Y-14553031D02*
X12839229Y-14543508D01*
X12839229Y-14543508D02*
X12858277Y-14533984D01*
X12858277Y-14533984D02*
X12896372Y-14533984D01*
X12896372Y-14533984D02*
X12915420Y-14543508D01*
X12915420Y-14543508D02*
X12924944Y-14553031D01*
X12924944Y-14553031D02*
X12934467Y-14572079D01*
X12934467Y-14572079D02*
X12934467Y-14581603D01*
X12934467Y-14581603D02*
X12924944Y-14600650D01*
X12924944Y-14600650D02*
X12915420Y-14610174D01*
X12915420Y-14610174D02*
X12896372Y-14619698D01*
X12896372Y-14619698D02*
X12858277Y-14619698D01*
X12858277Y-14619698D02*
X12839229Y-14629222D01*
X12839229Y-14629222D02*
X12829706Y-14638746D01*
X12829706Y-14638746D02*
X12820182Y-14657793D01*
X12820182Y-14657793D02*
X12820182Y-14695888D01*
X12820182Y-14695888D02*
X12829706Y-14714936D01*
X12829706Y-14714936D02*
X12839229Y-14724460D01*
X12839229Y-14724460D02*
X12858277Y-14733984D01*
X12858277Y-14733984D02*
X12896372Y-14733984D01*
X12896372Y-14733984D02*
X12915420Y-14724460D01*
X12915420Y-14724460D02*
X12924944Y-14714936D01*
X12924944Y-14714936D02*
X12934467Y-14695888D01*
X12934467Y-14695888D02*
X12934467Y-14657793D01*
X12934467Y-14657793D02*
X12924944Y-14638746D01*
X12924944Y-14638746D02*
X12915420Y-14629222D01*
X12915420Y-14629222D02*
X12896372Y-14619698D01*
X13001134Y-14533984D02*
X13134467Y-14533984D01*
X13134467Y-14533984D02*
X13048753Y-14733984D01*
X13201134Y-14533984D02*
X13201134Y-14572079D01*
X13277325Y-14533984D02*
X13277325Y-14572079D01*
X13572563Y-14810174D02*
X13563039Y-14800650D01*
X13563039Y-14800650D02*
X13543991Y-14772079D01*
X13543991Y-14772079D02*
X13534468Y-14753031D01*
X13534468Y-14753031D02*
X13524944Y-14724460D01*
X13524944Y-14724460D02*
X13515420Y-14676841D01*
X13515420Y-14676841D02*
X13515420Y-14638746D01*
X13515420Y-14638746D02*
X13524944Y-14591127D01*
X13524944Y-14591127D02*
X13534468Y-14562555D01*
X13534468Y-14562555D02*
X13543991Y-14543508D01*
X13543991Y-14543508D02*
X13563039Y-14514936D01*
X13563039Y-14514936D02*
X13572563Y-14505412D01*
X13734468Y-14600650D02*
X13734468Y-14733984D01*
X13686848Y-14524460D02*
X13639229Y-14667317D01*
X13639229Y-14667317D02*
X13763039Y-14667317D01*
X13991610Y-14733984D02*
X13991610Y-14533984D01*
X14077325Y-14733984D02*
X14077325Y-14629222D01*
X14077325Y-14629222D02*
X14067801Y-14610174D01*
X14067801Y-14610174D02*
X14048753Y-14600650D01*
X14048753Y-14600650D02*
X14020182Y-14600650D01*
X14020182Y-14600650D02*
X14001134Y-14610174D01*
X14001134Y-14610174D02*
X13991610Y-14619698D01*
X14201134Y-14733984D02*
X14182087Y-14724460D01*
X14182087Y-14724460D02*
X14172563Y-14714936D01*
X14172563Y-14714936D02*
X14163039Y-14695888D01*
X14163039Y-14695888D02*
X14163039Y-14638746D01*
X14163039Y-14638746D02*
X14172563Y-14619698D01*
X14172563Y-14619698D02*
X14182087Y-14610174D01*
X14182087Y-14610174D02*
X14201134Y-14600650D01*
X14201134Y-14600650D02*
X14229706Y-14600650D01*
X14229706Y-14600650D02*
X14248753Y-14610174D01*
X14248753Y-14610174D02*
X14258277Y-14619698D01*
X14258277Y-14619698D02*
X14267801Y-14638746D01*
X14267801Y-14638746D02*
X14267801Y-14695888D01*
X14267801Y-14695888D02*
X14258277Y-14714936D01*
X14258277Y-14714936D02*
X14248753Y-14724460D01*
X14248753Y-14724460D02*
X14229706Y-14733984D01*
X14229706Y-14733984D02*
X14201134Y-14733984D01*
X14382087Y-14733984D02*
X14363039Y-14724460D01*
X14363039Y-14724460D02*
X14353515Y-14705412D01*
X14353515Y-14705412D02*
X14353515Y-14533984D01*
X14534468Y-14724460D02*
X14515420Y-14733984D01*
X14515420Y-14733984D02*
X14477325Y-14733984D01*
X14477325Y-14733984D02*
X14458277Y-14724460D01*
X14458277Y-14724460D02*
X14448753Y-14705412D01*
X14448753Y-14705412D02*
X14448753Y-14629222D01*
X14448753Y-14629222D02*
X14458277Y-14610174D01*
X14458277Y-14610174D02*
X14477325Y-14600650D01*
X14477325Y-14600650D02*
X14515420Y-14600650D01*
X14515420Y-14600650D02*
X14534468Y-14610174D01*
X14534468Y-14610174D02*
X14543991Y-14629222D01*
X14543991Y-14629222D02*
X14543991Y-14648269D01*
X14543991Y-14648269D02*
X14448753Y-14667317D01*
X14620182Y-14724460D02*
X14639230Y-14733984D01*
X14639230Y-14733984D02*
X14677325Y-14733984D01*
X14677325Y-14733984D02*
X14696372Y-14724460D01*
X14696372Y-14724460D02*
X14705896Y-14705412D01*
X14705896Y-14705412D02*
X14705896Y-14695888D01*
X14705896Y-14695888D02*
X14696372Y-14676841D01*
X14696372Y-14676841D02*
X14677325Y-14667317D01*
X14677325Y-14667317D02*
X14648753Y-14667317D01*
X14648753Y-14667317D02*
X14629706Y-14657793D01*
X14629706Y-14657793D02*
X14620182Y-14638746D01*
X14620182Y-14638746D02*
X14620182Y-14629222D01*
X14620182Y-14629222D02*
X14629706Y-14610174D01*
X14629706Y-14610174D02*
X14648753Y-14600650D01*
X14648753Y-14600650D02*
X14677325Y-14600650D01*
X14677325Y-14600650D02*
X14696372Y-14610174D01*
X14772563Y-14810174D02*
X14782087Y-14800650D01*
X14782087Y-14800650D02*
X14801134Y-14772079D01*
X14801134Y-14772079D02*
X14810658Y-14753031D01*
X14810658Y-14753031D02*
X14820182Y-14724460D01*
X14820182Y-14724460D02*
X14829706Y-14676841D01*
X14829706Y-14676841D02*
X14829706Y-14638746D01*
X14829706Y-14638746D02*
X14820182Y-14591127D01*
X14820182Y-14591127D02*
X14810658Y-14562555D01*
X14810658Y-14562555D02*
X14801134Y-14543508D01*
X14801134Y-14543508D02*
X14782087Y-14514936D01*
X14782087Y-14514936D02*
X14772563Y-14505412D01*
X15134468Y-14810174D02*
X15124944Y-14800650D01*
X15124944Y-14800650D02*
X15105896Y-14772079D01*
X15105896Y-14772079D02*
X15096372Y-14753031D01*
X15096372Y-14753031D02*
X15086849Y-14724460D01*
X15086849Y-14724460D02*
X15077325Y-14676841D01*
X15077325Y-14676841D02*
X15077325Y-14638746D01*
X15077325Y-14638746D02*
X15086849Y-14591127D01*
X15086849Y-14591127D02*
X15096372Y-14562555D01*
X15096372Y-14562555D02*
X15105896Y-14543508D01*
X15105896Y-14543508D02*
X15124944Y-14514936D01*
X15124944Y-14514936D02*
X15134468Y-14505412D01*
X15210658Y-14600650D02*
X15210658Y-14733984D01*
X15210658Y-14619698D02*
X15220182Y-14610174D01*
X15220182Y-14610174D02*
X15239230Y-14600650D01*
X15239230Y-14600650D02*
X15267801Y-14600650D01*
X15267801Y-14600650D02*
X15286849Y-14610174D01*
X15286849Y-14610174D02*
X15296372Y-14629222D01*
X15296372Y-14629222D02*
X15296372Y-14733984D01*
X15420182Y-14733984D02*
X15401134Y-14724460D01*
X15401134Y-14724460D02*
X15391611Y-14714936D01*
X15391611Y-14714936D02*
X15382087Y-14695888D01*
X15382087Y-14695888D02*
X15382087Y-14638746D01*
X15382087Y-14638746D02*
X15391611Y-14619698D01*
X15391611Y-14619698D02*
X15401134Y-14610174D01*
X15401134Y-14610174D02*
X15420182Y-14600650D01*
X15420182Y-14600650D02*
X15448753Y-14600650D01*
X15448753Y-14600650D02*
X15467801Y-14610174D01*
X15467801Y-14610174D02*
X15477325Y-14619698D01*
X15477325Y-14619698D02*
X15486849Y-14638746D01*
X15486849Y-14638746D02*
X15486849Y-14695888D01*
X15486849Y-14695888D02*
X15477325Y-14714936D01*
X15477325Y-14714936D02*
X15467801Y-14724460D01*
X15467801Y-14724460D02*
X15448753Y-14733984D01*
X15448753Y-14733984D02*
X15420182Y-14733984D01*
X15543992Y-14600650D02*
X15620182Y-14600650D01*
X15572563Y-14533984D02*
X15572563Y-14705412D01*
X15572563Y-14705412D02*
X15582087Y-14724460D01*
X15582087Y-14724460D02*
X15601134Y-14733984D01*
X15601134Y-14733984D02*
X15620182Y-14733984D01*
X15839230Y-14600650D02*
X15839230Y-14800650D01*
X15839230Y-14610174D02*
X15858277Y-14600650D01*
X15858277Y-14600650D02*
X15896373Y-14600650D01*
X15896373Y-14600650D02*
X15915420Y-14610174D01*
X15915420Y-14610174D02*
X15924944Y-14619698D01*
X15924944Y-14619698D02*
X15934468Y-14638746D01*
X15934468Y-14638746D02*
X15934468Y-14695888D01*
X15934468Y-14695888D02*
X15924944Y-14714936D01*
X15924944Y-14714936D02*
X15915420Y-14724460D01*
X15915420Y-14724460D02*
X15896373Y-14733984D01*
X15896373Y-14733984D02*
X15858277Y-14733984D01*
X15858277Y-14733984D02*
X15839230Y-14724460D01*
X16048753Y-14733984D02*
X16029706Y-14724460D01*
X16029706Y-14724460D02*
X16020182Y-14705412D01*
X16020182Y-14705412D02*
X16020182Y-14533984D01*
X16210658Y-14733984D02*
X16210658Y-14629222D01*
X16210658Y-14629222D02*
X16201134Y-14610174D01*
X16201134Y-14610174D02*
X16182087Y-14600650D01*
X16182087Y-14600650D02*
X16143992Y-14600650D01*
X16143992Y-14600650D02*
X16124944Y-14610174D01*
X16210658Y-14724460D02*
X16191611Y-14733984D01*
X16191611Y-14733984D02*
X16143992Y-14733984D01*
X16143992Y-14733984D02*
X16124944Y-14724460D01*
X16124944Y-14724460D02*
X16115420Y-14705412D01*
X16115420Y-14705412D02*
X16115420Y-14686365D01*
X16115420Y-14686365D02*
X16124944Y-14667317D01*
X16124944Y-14667317D02*
X16143992Y-14657793D01*
X16143992Y-14657793D02*
X16191611Y-14657793D01*
X16191611Y-14657793D02*
X16210658Y-14648269D01*
X16277325Y-14600650D02*
X16353515Y-14600650D01*
X16305896Y-14533984D02*
X16305896Y-14705412D01*
X16305896Y-14705412D02*
X16315420Y-14724460D01*
X16315420Y-14724460D02*
X16334468Y-14733984D01*
X16334468Y-14733984D02*
X16353515Y-14733984D01*
X16496373Y-14724460D02*
X16477325Y-14733984D01*
X16477325Y-14733984D02*
X16439230Y-14733984D01*
X16439230Y-14733984D02*
X16420182Y-14724460D01*
X16420182Y-14724460D02*
X16410658Y-14705412D01*
X16410658Y-14705412D02*
X16410658Y-14629222D01*
X16410658Y-14629222D02*
X16420182Y-14610174D01*
X16420182Y-14610174D02*
X16439230Y-14600650D01*
X16439230Y-14600650D02*
X16477325Y-14600650D01*
X16477325Y-14600650D02*
X16496373Y-14610174D01*
X16496373Y-14610174D02*
X16505896Y-14629222D01*
X16505896Y-14629222D02*
X16505896Y-14648269D01*
X16505896Y-14648269D02*
X16410658Y-14667317D01*
X16677325Y-14733984D02*
X16677325Y-14533984D01*
X16677325Y-14724460D02*
X16658277Y-14733984D01*
X16658277Y-14733984D02*
X16620182Y-14733984D01*
X16620182Y-14733984D02*
X16601134Y-14724460D01*
X16601134Y-14724460D02*
X16591611Y-14714936D01*
X16591611Y-14714936D02*
X16582087Y-14695888D01*
X16582087Y-14695888D02*
X16582087Y-14638746D01*
X16582087Y-14638746D02*
X16591611Y-14619698D01*
X16591611Y-14619698D02*
X16601134Y-14610174D01*
X16601134Y-14610174D02*
X16620182Y-14600650D01*
X16620182Y-14600650D02*
X16658277Y-14600650D01*
X16658277Y-14600650D02*
X16677325Y-14610174D01*
X16753515Y-14810174D02*
X16763039Y-14800650D01*
X16763039Y-14800650D02*
X16782087Y-14772079D01*
X16782087Y-14772079D02*
X16791611Y-14753031D01*
X16791611Y-14753031D02*
X16801135Y-14724460D01*
X16801135Y-14724460D02*
X16810658Y-14676841D01*
X16810658Y-14676841D02*
X16810658Y-14638746D01*
X16810658Y-14638746D02*
X16801135Y-14591127D01*
X16801135Y-14591127D02*
X16791611Y-14562555D01*
X16791611Y-14562555D02*
X16782087Y-14543508D01*
X16782087Y-14543508D02*
X16763039Y-14514936D01*
X16763039Y-14514936D02*
X16753515Y-14505412D01*
M02*
