%TF.GenerationSoftware,KiCad,Pcbnew,8.0.5-8.0.5-0~ubuntu20.04.1*%
%TF.CreationDate,2024-10-10T12:20:46-03:00*%
%TF.ProjectId,MicroSD,4d696372-6f53-4442-9e6b-696361645f70,Luis G_mez*%
%TF.SameCoordinates,Original*%
%TF.FileFunction,Copper,L1,Top*%
%TF.FilePolarity,Positive*%
%FSLAX46Y46*%
G04 Gerber Fmt 4.6, Leading zero omitted, Abs format (unit mm)*
G04 Created by KiCad (PCBNEW 8.0.5-8.0.5-0~ubuntu20.04.1) date 2024-10-10 12:20:46*
%MOMM*%
%LPD*%
G01*
G04 APERTURE LIST*
G04 Aperture macros list*
%AMRoundRect*
0 Rectangle with rounded corners*
0 $1 Rounding radius*
0 $2 $3 $4 $5 $6 $7 $8 $9 X,Y pos of 4 corners*
0 Add a 4 corners polygon primitive as box body*
4,1,4,$2,$3,$4,$5,$6,$7,$8,$9,$2,$3,0*
0 Add four circle primitives for the rounded corners*
1,1,$1+$1,$2,$3*
1,1,$1+$1,$4,$5*
1,1,$1+$1,$6,$7*
1,1,$1+$1,$8,$9*
0 Add four rect primitives between the rounded corners*
20,1,$1+$1,$2,$3,$4,$5,0*
20,1,$1+$1,$4,$5,$6,$7,0*
20,1,$1+$1,$6,$7,$8,$9,0*
20,1,$1+$1,$8,$9,$2,$3,0*%
G04 Aperture macros list end*
%TA.AperFunction,SMDPad,CuDef*%
%ADD10C,1.500000*%
%TD*%
%TA.AperFunction,SMDPad,CuDef*%
%ADD11RoundRect,0.200000X-0.275000X0.200000X-0.275000X-0.200000X0.275000X-0.200000X0.275000X0.200000X0*%
%TD*%
%TA.AperFunction,SMDPad,CuDef*%
%ADD12R,1.600000X1.600000*%
%TD*%
%TA.AperFunction,SMDPad,CuDef*%
%ADD13RoundRect,0.375000X0.625000X0.375000X-0.625000X0.375000X-0.625000X-0.375000X0.625000X-0.375000X0*%
%TD*%
%TA.AperFunction,SMDPad,CuDef*%
%ADD14RoundRect,0.500000X0.500000X1.400000X-0.500000X1.400000X-0.500000X-1.400000X0.500000X-1.400000X0*%
%TD*%
%TA.AperFunction,SMDPad,CuDef*%
%ADD15RoundRect,0.200000X0.275000X-0.200000X0.275000X0.200000X-0.275000X0.200000X-0.275000X-0.200000X0*%
%TD*%
%TA.AperFunction,SMDPad,CuDef*%
%ADD16RoundRect,0.200000X-0.200000X-0.450000X0.200000X-0.450000X0.200000X0.450000X-0.200000X0.450000X0*%
%TD*%
%TA.AperFunction,SMDPad,CuDef*%
%ADD17RoundRect,0.250001X-0.799999X-1.249999X0.799999X-1.249999X0.799999X1.249999X-0.799999X1.249999X0*%
%TD*%
%TA.AperFunction,SMDPad,CuDef*%
%ADD18RoundRect,0.250000X0.412500X0.650000X-0.412500X0.650000X-0.412500X-0.650000X0.412500X-0.650000X0*%
%TD*%
%TA.AperFunction,SMDPad,CuDef*%
%ADD19R,1.750000X0.700000*%
%TD*%
%TA.AperFunction,SMDPad,CuDef*%
%ADD20R,1.000000X1.450000*%
%TD*%
%TA.AperFunction,SMDPad,CuDef*%
%ADD21R,1.550000X1.000000*%
%TD*%
%TA.AperFunction,SMDPad,CuDef*%
%ADD22R,1.500000X0.800000*%
%TD*%
%TA.AperFunction,SMDPad,CuDef*%
%ADD23R,1.500000X1.300000*%
%TD*%
%TA.AperFunction,SMDPad,CuDef*%
%ADD24R,1.500000X1.500000*%
%TD*%
%TA.AperFunction,SMDPad,CuDef*%
%ADD25R,1.400000X0.800000*%
%TD*%
%TA.AperFunction,ViaPad*%
%ADD26C,0.800000*%
%TD*%
%TA.AperFunction,ViaPad*%
%ADD27C,0.700000*%
%TD*%
%TA.AperFunction,ViaPad*%
%ADD28C,0.600000*%
%TD*%
%TA.AperFunction,Conductor*%
%ADD29C,0.500000*%
%TD*%
%TA.AperFunction,Conductor*%
%ADD30C,0.350000*%
%TD*%
G04 APERTURE END LIST*
D10*
%TO.P,FID2,*%
%TO.N,*%
X102430000Y-110520000D03*
%TD*%
D11*
%TO.P,R2,1*%
%TO.N,Net-(J2-Pin_5)*%
X124300000Y-111010000D03*
%TO.P,R2,2*%
%TO.N,Net-(R2-Pad2)*%
X124300000Y-112660000D03*
%TD*%
D12*
%TO.P,U3,14,VCC*%
%TO.N,VDD*%
X126610000Y-116920000D03*
%TO.P,U3,13*%
%TO.N,GND*%
X126610000Y-119460000D03*
%TO.P,U3,12*%
%TO.N,Net-(J1-DAT0)*%
X126610000Y-122000000D03*
%TO.P,U3,11*%
%TO.N,Net-(R4-Pad1)*%
X126610000Y-124540000D03*
%TO.P,U3,10*%
%TO.N,GND*%
X126610000Y-127080000D03*
%TO.P,U3,9*%
%TO.N,Net-(R3-Pad2)*%
X126610000Y-129620000D03*
%TO.P,U3,8*%
%TO.N,/DAT3{slash}CD*%
X126610000Y-132160000D03*
%TO.P,U3,7,GND*%
%TO.N,GND*%
X118990000Y-132160000D03*
%TO.P,U3,6*%
%TO.N,Net-(J1-CLK)*%
X118990000Y-129620000D03*
%TO.P,U3,5*%
%TO.N,Net-(R2-Pad2)*%
X118990000Y-127080000D03*
%TO.P,U3,4*%
%TO.N,GND*%
X118990000Y-124540000D03*
%TO.P,U3,3*%
%TO.N,Net-(J1-CMD)*%
X118990000Y-122000000D03*
%TO.P,U3,2*%
%TO.N,Net-(R1-Pad2)*%
X118990000Y-119460000D03*
%TO.P,U3,1*%
%TO.N,GND*%
X118990000Y-116920000D03*
%TD*%
D11*
%TO.P,R1,1*%
%TO.N,Net-(J2-Pin_4)*%
X121800000Y-111010000D03*
%TO.P,R1,2*%
%TO.N,Net-(R1-Pad2)*%
X121800000Y-112660000D03*
%TD*%
D13*
%TO.P,U2,1,ADJ*%
%TO.N,GND*%
X113030000Y-116790000D03*
%TO.P,U2,2,VO*%
%TO.N,VDD*%
X113030000Y-114490000D03*
D14*
X106730000Y-114490000D03*
D13*
%TO.P,U2,3,VI*%
%TO.N,Net-(J2-Pin_2)*%
X113030000Y-112190000D03*
%TD*%
D11*
%TO.P,R3,1*%
%TO.N,Net-(J2-Pin_6)*%
X126800000Y-111010000D03*
%TO.P,R3,2*%
%TO.N,Net-(R3-Pad2)*%
X126800000Y-112660000D03*
%TD*%
D15*
%TO.P,R4,1*%
%TO.N,Net-(R4-Pad1)*%
X119300000Y-112660000D03*
%TO.P,R4,2*%
%TO.N,/PIN3*%
X119300000Y-111010000D03*
%TD*%
D16*
%TO.P,J2,1,Pin_1*%
%TO.N,GND*%
X113500000Y-101910000D03*
%TO.P,J2,2,Pin_2*%
%TO.N,Net-(J2-Pin_2)*%
X114750000Y-101910000D03*
%TO.P,J2,3,Pin_3*%
%TO.N,/PIN3*%
X116000000Y-101910000D03*
%TO.P,J2,4,Pin_4*%
%TO.N,Net-(J2-Pin_4)*%
X117250000Y-101910000D03*
%TO.P,J2,5,Pin_5*%
%TO.N,Net-(J2-Pin_5)*%
X118500000Y-101910000D03*
%TO.P,J2,6,Pin_6*%
%TO.N,Net-(J2-Pin_6)*%
X119750000Y-101910000D03*
D17*
%TO.P,J2,MP,MountPin*%
%TO.N,unconnected-(J2-MountPin-PadMP)*%
X110950000Y-104660000D03*
%TO.N,unconnected-(J2-MountPin-PadMP)_1*%
X122300000Y-104660000D03*
%TD*%
D10*
%TO.P,FID1,*%
%TO.N,*%
X114930000Y-137120000D03*
%TD*%
D18*
%TO.P,C1,1*%
%TO.N,VDD*%
X110862500Y-108460000D03*
%TO.P,C1,2*%
%TO.N,GND*%
X107737500Y-108460000D03*
%TD*%
D19*
%TO.P,J1,1,DAT2*%
%TO.N,unconnected-(J1-DAT2-Pad1)*%
X101530000Y-129670000D03*
%TO.P,J1,2,DAT3/CD*%
%TO.N,/DAT3{slash}CD*%
X101530000Y-128570000D03*
%TO.P,J1,3,CMD*%
%TO.N,Net-(J1-CMD)*%
X101530000Y-127470000D03*
%TO.P,J1,4,VDD*%
%TO.N,VDD*%
X101530000Y-126370000D03*
%TO.P,J1,5,CLK*%
%TO.N,Net-(J1-CLK)*%
X101530000Y-125270000D03*
%TO.P,J1,6,VSS*%
%TO.N,GND*%
X101530000Y-124170000D03*
%TO.P,J1,7,DAT0*%
%TO.N,Net-(J1-DAT0)*%
X101530000Y-123070000D03*
%TO.P,J1,8,DAT1*%
%TO.N,unconnected-(J1-DAT1-Pad8)*%
X101530000Y-121970000D03*
D20*
%TO.P,J1,9,SHIELD*%
%TO.N,unconnected-(J1-SHIELD-Pad9)*%
X110755000Y-120845000D03*
D21*
%TO.P,J1,10*%
%TO.N,N/C*%
X112330000Y-132070000D03*
D22*
%TO.P,J1,11*%
X109255000Y-120520000D03*
D23*
X101655000Y-120770000D03*
D24*
X101655000Y-132120000D03*
D25*
X109905000Y-132470000D03*
%TD*%
D26*
%TO.N,GND*%
X121100000Y-132070000D03*
X125010000Y-127080000D03*
X121155000Y-124470000D03*
X125090000Y-119460000D03*
X108530000Y-116820000D03*
X103280000Y-124170000D03*
X107800000Y-110260000D03*
D27*
%TO.N,Net-(J1-CLK)*%
X116880000Y-129620000D03*
X103234999Y-125270000D03*
D28*
%TO.N,Net-(J1-DAT0)*%
X104030000Y-123070000D03*
X123505000Y-122020000D03*
D27*
%TO.N,Net-(R4-Pad1)*%
X119300000Y-114910000D03*
X124210000Y-123760000D03*
D26*
%TO.N,VDD*%
X117280000Y-114540000D03*
X124728008Y-116918008D03*
%TD*%
D29*
%TO.N,GND*%
X125010000Y-127080000D02*
X126610000Y-127080000D01*
X113030000Y-116790000D02*
X118850000Y-116860000D01*
%TO.N,VDD*%
X110962500Y-114002500D02*
X110475000Y-114490000D01*
X110475000Y-114490000D02*
X106730000Y-114490000D01*
X101530000Y-126370000D02*
X103560000Y-126370000D01*
X103560000Y-126370000D02*
X104850000Y-125080000D01*
X105320000Y-114490000D02*
X106730000Y-114490000D01*
X104850000Y-125080000D02*
X104850000Y-114960000D01*
X104850000Y-114960000D02*
X105320000Y-114490000D01*
%TO.N,Net-(J2-Pin_2)*%
X114750000Y-101910000D02*
X114750000Y-111590000D01*
X114150000Y-112190000D02*
X113030000Y-112190000D01*
X114750000Y-111590000D02*
X114150000Y-112190000D01*
%TO.N,VDD*%
X117280000Y-114540000D02*
X117230000Y-114490000D01*
X117230000Y-114490000D02*
X113030000Y-114490000D01*
%TO.N,GND*%
X125090000Y-119460000D02*
X126610000Y-119460000D01*
D30*
%TO.N,Net-(R4-Pad1)*%
X124210000Y-123760000D02*
X124990000Y-124540000D01*
X124990000Y-124540000D02*
X126610000Y-124540000D01*
%TO.N,Net-(J1-CLK)*%
X103234999Y-125270000D02*
X101530000Y-125270000D01*
D29*
%TO.N,VDD*%
X110962500Y-114002500D02*
X111450000Y-114490000D01*
X111450000Y-114490000D02*
X113040000Y-114490000D01*
%TO.N,GND*%
X108530000Y-116820000D02*
X108570000Y-116780000D01*
X108570000Y-116780000D02*
X113020000Y-116780000D01*
X113020000Y-116780000D02*
X113030000Y-116790000D01*
D30*
%TO.N,Net-(J2-Pin_5)*%
X124300000Y-108770000D02*
X124300000Y-111010000D01*
X118530000Y-106640000D02*
X119970330Y-108080000D01*
X119970330Y-108080000D02*
X123610000Y-108080000D01*
X123610000Y-108080000D02*
X124300000Y-108770000D01*
%TO.N,/DAT3{slash}CD*%
X101530000Y-128570000D02*
X103740000Y-128570000D01*
X104480000Y-133270000D02*
X105030000Y-133820000D01*
X103740000Y-128570000D02*
X104480000Y-129310000D01*
X124640000Y-132160000D02*
X126610000Y-132160000D01*
X104480000Y-129310000D02*
X104480000Y-133270000D01*
X105030000Y-133820000D02*
X122980000Y-133820000D01*
X122980000Y-133820000D02*
X124640000Y-132160000D01*
%TO.N,Net-(J1-CMD)*%
X118990000Y-122000000D02*
X109082488Y-122000000D01*
X109082488Y-122000000D02*
X108477488Y-121395000D01*
X108477488Y-121395000D02*
X106280000Y-121395000D01*
X106280000Y-121395000D02*
X105700000Y-121975000D01*
X105700000Y-121975000D02*
X105700000Y-125550000D01*
X105700000Y-125550000D02*
X103780000Y-127470000D01*
X103780000Y-127470000D02*
X101530000Y-127470000D01*
%TO.N,Net-(R3-Pad2)*%
X126800000Y-112660000D02*
X126800000Y-113610000D01*
X126800000Y-113610000D02*
X122830000Y-117580000D01*
X123630000Y-129620000D02*
X126610000Y-129620000D01*
X122830000Y-117580000D02*
X122830000Y-128820000D01*
X122830000Y-128820000D02*
X123630000Y-129620000D01*
%TO.N,Net-(R1-Pad2)*%
X121780000Y-112680000D02*
X121780000Y-114960000D01*
X121780000Y-114960000D02*
X121030000Y-115710000D01*
X121030000Y-115710000D02*
X121030000Y-118820000D01*
X120390000Y-119460000D02*
X118990000Y-119460000D01*
X121030000Y-118820000D02*
X120390000Y-119460000D01*
%TO.N,Net-(J2-Pin_6)*%
X126800000Y-111010000D02*
X126800000Y-108110000D01*
X125890000Y-107200000D02*
X120760000Y-107200000D01*
X119750000Y-106190000D02*
X119750000Y-101910000D01*
X126800000Y-108110000D02*
X125890000Y-107200000D01*
X120760000Y-107200000D02*
X119750000Y-106190000D01*
%TO.N,/PIN3*%
X119300000Y-111010000D02*
X119300000Y-110300000D01*
X119300000Y-110300000D02*
X116000000Y-107000000D01*
X116000000Y-107000000D02*
X116000000Y-101910000D01*
%TO.N,Net-(J2-Pin_4)*%
X121800000Y-111010000D02*
X121800000Y-109870000D01*
X121800000Y-109870000D02*
X121130000Y-109200000D01*
X121130000Y-109200000D02*
X119660000Y-109200000D01*
X119660000Y-109200000D02*
X117250000Y-106790000D01*
X117250000Y-106790000D02*
X117250000Y-101910000D01*
%TO.N,Net-(J1-CLK)*%
X116880000Y-129620000D02*
X118990000Y-129620000D01*
D29*
%TO.N,GND*%
X121100000Y-132070000D02*
X119080000Y-132070000D01*
X121155000Y-124470000D02*
X119060000Y-124470000D01*
D30*
%TO.N,Net-(R2-Pad2)*%
X124300000Y-112660000D02*
X124300000Y-114300000D01*
X121930000Y-116670000D02*
X121930000Y-126170000D01*
X124300000Y-114300000D02*
X121930000Y-116670000D01*
X121930000Y-126170000D02*
X121020000Y-127080000D01*
X121020000Y-127080000D02*
X118990000Y-127080000D01*
D29*
%TO.N,GND*%
X107737500Y-108460000D02*
X107730000Y-103820000D01*
X107730000Y-103820000D02*
X107737500Y-103812500D01*
X107737500Y-103812500D02*
X107737500Y-102812500D01*
X107737500Y-102812500D02*
X108640000Y-101910000D01*
X108640000Y-101910000D02*
X113500000Y-101910000D01*
%TO.N,VDD*%
X126608008Y-116918008D02*
X126610000Y-116920000D01*
X124728008Y-116918008D02*
X126608008Y-116918008D01*
D30*
%TO.N,Net-(J1-DAT0)*%
X123505000Y-122020000D02*
X123525000Y-122000000D01*
X123525000Y-122000000D02*
X126610000Y-122000000D01*
D29*
%TO.N,GND*%
X107800000Y-110260000D02*
X107737500Y-110197500D01*
X107737500Y-110197500D02*
X107737500Y-108460000D01*
X103280000Y-124170000D02*
X101530000Y-124170000D01*
D30*
%TO.N,Net-(J1-DAT0)*%
X104030000Y-123070000D02*
X101530000Y-123070000D01*
%TO.N,Net-(R4-Pad1)*%
X119300000Y-112660000D02*
X119300000Y-114910000D01*
D29*
%TO.N,VDD*%
X110962500Y-108560000D02*
X110962500Y-114002500D01*
D30*
%TO.N,Net-(J2-Pin_5)*%
X118530000Y-101940000D02*
X118530000Y-106640000D01*
%TD*%
%TA.AperFunction,Conductor*%
%TO.N,GND*%
G36*
X129442539Y-100520185D02*
G01*
X129488294Y-100572989D01*
X129499500Y-100624500D01*
X129499500Y-139375500D01*
X129479815Y-139442539D01*
X129427011Y-139488294D01*
X129375500Y-139499500D01*
X100624500Y-139499500D01*
X100557461Y-139479815D01*
X100511706Y-139427011D01*
X100500500Y-139375500D01*
X100500500Y-136901577D01*
X101749500Y-136901577D01*
X101749500Y-137098422D01*
X101780290Y-137292826D01*
X101841117Y-137480029D01*
X101906771Y-137608881D01*
X101930476Y-137655405D01*
X102046172Y-137814646D01*
X102185354Y-137953828D01*
X102344595Y-138069524D01*
X102427455Y-138111743D01*
X102519970Y-138158882D01*
X102519972Y-138158882D01*
X102519975Y-138158884D01*
X102620317Y-138191487D01*
X102707173Y-138219709D01*
X102901578Y-138250500D01*
X102901583Y-138250500D01*
X103098422Y-138250500D01*
X103292826Y-138219709D01*
X103480025Y-138158884D01*
X103655405Y-138069524D01*
X103814646Y-137953828D01*
X103953828Y-137814646D01*
X104069524Y-137655405D01*
X104158884Y-137480025D01*
X104219709Y-137292826D01*
X104247083Y-137119994D01*
X113424357Y-137119994D01*
X113424357Y-137120005D01*
X113444890Y-137367812D01*
X113444892Y-137367824D01*
X113505936Y-137608881D01*
X113605826Y-137836606D01*
X113741833Y-138044782D01*
X113741836Y-138044785D01*
X113910256Y-138227738D01*
X114106491Y-138380474D01*
X114325190Y-138498828D01*
X114560386Y-138579571D01*
X114805665Y-138620500D01*
X115054335Y-138620500D01*
X115299614Y-138579571D01*
X115534810Y-138498828D01*
X115753509Y-138380474D01*
X115949744Y-138227738D01*
X116118164Y-138044785D01*
X116254173Y-137836607D01*
X116354063Y-137608881D01*
X116415108Y-137367821D01*
X116415109Y-137367812D01*
X116435643Y-137120005D01*
X116435643Y-137119994D01*
X116417544Y-136901577D01*
X125879500Y-136901577D01*
X125879500Y-137098422D01*
X125910290Y-137292826D01*
X125971117Y-137480029D01*
X126036771Y-137608881D01*
X126060476Y-137655405D01*
X126176172Y-137814646D01*
X126315354Y-137953828D01*
X126474595Y-138069524D01*
X126557455Y-138111743D01*
X126649970Y-138158882D01*
X126649972Y-138158882D01*
X126649975Y-138158884D01*
X126750317Y-138191487D01*
X126837173Y-138219709D01*
X127031578Y-138250500D01*
X127031583Y-138250500D01*
X127228422Y-138250500D01*
X127422826Y-138219709D01*
X127610025Y-138158884D01*
X127785405Y-138069524D01*
X127944646Y-137953828D01*
X128083828Y-137814646D01*
X128199524Y-137655405D01*
X128288884Y-137480025D01*
X128349709Y-137292826D01*
X128380500Y-137098422D01*
X128380500Y-136901577D01*
X128349709Y-136707173D01*
X128288882Y-136519970D01*
X128199523Y-136344594D01*
X128083828Y-136185354D01*
X127944646Y-136046172D01*
X127785405Y-135930476D01*
X127610029Y-135841117D01*
X127422826Y-135780290D01*
X127228422Y-135749500D01*
X127228417Y-135749500D01*
X127031583Y-135749500D01*
X127031578Y-135749500D01*
X126837173Y-135780290D01*
X126649970Y-135841117D01*
X126474594Y-135930476D01*
X126383741Y-135996485D01*
X126315354Y-136046172D01*
X126315352Y-136046174D01*
X126315351Y-136046174D01*
X126176174Y-136185351D01*
X126176174Y-136185352D01*
X126176172Y-136185354D01*
X126126485Y-136253741D01*
X126060476Y-136344594D01*
X125971117Y-136519970D01*
X125910290Y-136707173D01*
X125879500Y-136901577D01*
X116417544Y-136901577D01*
X116415109Y-136872187D01*
X116415107Y-136872175D01*
X116354063Y-136631118D01*
X116254173Y-136403393D01*
X116118166Y-136195217D01*
X116096557Y-136171744D01*
X115949744Y-136012262D01*
X115753509Y-135859526D01*
X115753507Y-135859525D01*
X115753506Y-135859524D01*
X115534811Y-135741172D01*
X115534802Y-135741169D01*
X115299616Y-135660429D01*
X115054335Y-135619500D01*
X114805665Y-135619500D01*
X114560383Y-135660429D01*
X114325197Y-135741169D01*
X114325188Y-135741172D01*
X114106493Y-135859524D01*
X113910257Y-136012261D01*
X113741833Y-136195217D01*
X113605826Y-136403393D01*
X113505936Y-136631118D01*
X113444892Y-136872175D01*
X113444890Y-136872187D01*
X113424357Y-137119994D01*
X104247083Y-137119994D01*
X104250500Y-137098422D01*
X104250500Y-136901577D01*
X104219709Y-136707173D01*
X104158882Y-136519970D01*
X104069523Y-136344594D01*
X103953828Y-136185354D01*
X103814646Y-136046172D01*
X103655405Y-135930476D01*
X103480029Y-135841117D01*
X103292826Y-135780290D01*
X103098422Y-135749500D01*
X103098417Y-135749500D01*
X102901583Y-135749500D01*
X102901578Y-135749500D01*
X102707173Y-135780290D01*
X102519970Y-135841117D01*
X102344594Y-135930476D01*
X102253741Y-135996485D01*
X102185354Y-136046172D01*
X102185352Y-136046174D01*
X102185351Y-136046174D01*
X102046174Y-136185351D01*
X102046174Y-136185352D01*
X102046172Y-136185354D01*
X101996485Y-136253741D01*
X101930476Y-136344594D01*
X101841117Y-136519970D01*
X101780290Y-136707173D01*
X101749500Y-136901577D01*
X100500500Y-136901577D01*
X100500500Y-133431904D01*
X100520185Y-133364865D01*
X100572989Y-133319110D01*
X100642147Y-133309166D01*
X100667832Y-133315721D01*
X100797517Y-133364091D01*
X100797516Y-133364091D01*
X100804444Y-133364835D01*
X100857127Y-133370500D01*
X102452872Y-133370499D01*
X102512483Y-133364091D01*
X102647331Y-133313796D01*
X102762546Y-133227546D01*
X102848796Y-133112331D01*
X102899091Y-132977483D01*
X102905500Y-132917873D01*
X102905499Y-131322128D01*
X102899091Y-131262517D01*
X102895402Y-131252627D01*
X102848797Y-131127671D01*
X102848793Y-131127664D01*
X102762547Y-131012455D01*
X102762544Y-131012452D01*
X102647335Y-130926206D01*
X102647328Y-130926202D01*
X102512482Y-130875908D01*
X102512483Y-130875908D01*
X102452883Y-130869501D01*
X102452881Y-130869500D01*
X102452873Y-130869500D01*
X102452864Y-130869500D01*
X100857129Y-130869500D01*
X100857123Y-130869501D01*
X100797515Y-130875909D01*
X100667832Y-130924277D01*
X100598141Y-130929261D01*
X100536818Y-130895775D01*
X100503334Y-130834452D01*
X100500500Y-130808095D01*
X100500500Y-130644499D01*
X100520185Y-130577460D01*
X100572989Y-130531705D01*
X100624495Y-130520499D01*
X102452872Y-130520499D01*
X102512483Y-130514091D01*
X102647331Y-130463796D01*
X102762546Y-130377546D01*
X102848796Y-130262331D01*
X102899091Y-130127483D01*
X102905500Y-130067873D01*
X102905499Y-129369499D01*
X102925183Y-129302461D01*
X102977987Y-129256706D01*
X103029499Y-129245500D01*
X103408837Y-129245500D01*
X103475876Y-129265185D01*
X103496518Y-129281819D01*
X103768181Y-129553482D01*
X103801666Y-129614805D01*
X103804500Y-129641163D01*
X103804500Y-133336535D01*
X103830457Y-133467028D01*
X103830459Y-133467036D01*
X103881378Y-133589965D01*
X103881383Y-133589975D01*
X103955304Y-133700605D01*
X103955307Y-133700609D01*
X104505305Y-134250606D01*
X104599394Y-134344695D01*
X104599397Y-134344697D01*
X104599398Y-134344698D01*
X104710020Y-134418613D01*
X104710023Y-134418614D01*
X104710031Y-134418620D01*
X104832964Y-134469540D01*
X104832968Y-134469540D01*
X104832969Y-134469541D01*
X104963466Y-134495500D01*
X104963469Y-134495500D01*
X123046532Y-134495500D01*
X123046533Y-134495499D01*
X123177036Y-134469541D01*
X123299969Y-134418620D01*
X123410606Y-134344695D01*
X124883482Y-132871819D01*
X124944805Y-132838334D01*
X124971163Y-132835500D01*
X125185501Y-132835500D01*
X125252540Y-132855185D01*
X125298295Y-132907989D01*
X125309501Y-132959500D01*
X125309501Y-133007876D01*
X125315908Y-133067483D01*
X125366202Y-133202328D01*
X125366206Y-133202335D01*
X125452452Y-133317544D01*
X125452455Y-133317547D01*
X125567664Y-133403793D01*
X125567671Y-133403797D01*
X125702517Y-133454091D01*
X125702516Y-133454091D01*
X125709444Y-133454835D01*
X125762127Y-133460500D01*
X127457872Y-133460499D01*
X127517483Y-133454091D01*
X127652331Y-133403796D01*
X127767546Y-133317546D01*
X127853796Y-133202331D01*
X127904091Y-133067483D01*
X127910500Y-133007873D01*
X127910499Y-131312128D01*
X127904091Y-131252517D01*
X127889148Y-131212454D01*
X127853797Y-131117671D01*
X127853793Y-131117664D01*
X127767547Y-131002455D01*
X127767546Y-131002454D01*
X127750347Y-130989579D01*
X127749929Y-130989266D01*
X127708058Y-130933334D01*
X127703074Y-130863642D01*
X127736558Y-130802319D01*
X127749930Y-130790733D01*
X127767546Y-130777546D01*
X127853796Y-130662331D01*
X127904091Y-130527483D01*
X127910500Y-130467873D01*
X127910499Y-128772128D01*
X127904091Y-128712517D01*
X127853796Y-128577669D01*
X127853795Y-128577668D01*
X127853793Y-128577664D01*
X127767547Y-128462455D01*
X127749511Y-128448953D01*
X127707640Y-128393019D01*
X127702657Y-128323327D01*
X127736143Y-128262004D01*
X127749515Y-128250418D01*
X127767191Y-128237186D01*
X127853350Y-128122093D01*
X127853354Y-128122086D01*
X127903596Y-127987379D01*
X127903598Y-127987372D01*
X127909999Y-127927844D01*
X127910000Y-127927827D01*
X127910000Y-127330000D01*
X125310000Y-127330000D01*
X125310000Y-127927844D01*
X125316401Y-127987372D01*
X125316403Y-127987379D01*
X125366645Y-128122086D01*
X125366649Y-128122093D01*
X125452808Y-128237185D01*
X125470486Y-128250419D01*
X125512357Y-128306352D01*
X125517342Y-128376044D01*
X125483858Y-128437367D01*
X125470490Y-128448951D01*
X125452455Y-128462452D01*
X125452452Y-128462455D01*
X125366206Y-128577664D01*
X125366202Y-128577671D01*
X125315908Y-128712517D01*
X125311506Y-128753469D01*
X125309501Y-128772123D01*
X125309500Y-128772135D01*
X125309500Y-128820500D01*
X125289815Y-128887539D01*
X125237011Y-128933294D01*
X125185500Y-128944500D01*
X123961163Y-128944500D01*
X123894124Y-128924815D01*
X123873482Y-128908181D01*
X123541819Y-128576518D01*
X123508334Y-128515195D01*
X123505500Y-128488837D01*
X123505500Y-124542790D01*
X123525185Y-124475751D01*
X123577989Y-124429996D01*
X123647147Y-124420052D01*
X123702386Y-124442473D01*
X123782401Y-124500608D01*
X123782402Y-124500609D01*
X123782404Y-124500610D01*
X123782407Y-124500612D01*
X123945733Y-124573329D01*
X124065112Y-124598703D01*
X124126592Y-124631895D01*
X124127011Y-124632312D01*
X124465305Y-124970606D01*
X124559394Y-125064695D01*
X124559397Y-125064697D01*
X124559398Y-125064698D01*
X124670020Y-125138613D01*
X124670024Y-125138615D01*
X124670031Y-125138620D01*
X124706037Y-125153534D01*
X124792964Y-125189541D01*
X124923464Y-125215499D01*
X124923468Y-125215500D01*
X124923469Y-125215500D01*
X125185501Y-125215500D01*
X125252540Y-125235185D01*
X125298295Y-125287989D01*
X125309501Y-125339500D01*
X125309501Y-125387876D01*
X125315908Y-125447483D01*
X125366202Y-125582328D01*
X125366206Y-125582335D01*
X125452452Y-125697544D01*
X125452455Y-125697547D01*
X125470487Y-125711046D01*
X125512358Y-125766980D01*
X125517342Y-125836671D01*
X125483856Y-125897994D01*
X125470488Y-125909578D01*
X125452809Y-125922812D01*
X125366649Y-126037906D01*
X125366645Y-126037913D01*
X125316403Y-126172620D01*
X125316401Y-126172627D01*
X125310000Y-126232155D01*
X125310000Y-126830000D01*
X127910000Y-126830000D01*
X127910000Y-126232172D01*
X127909999Y-126232155D01*
X127903598Y-126172627D01*
X127903596Y-126172620D01*
X127853354Y-126037913D01*
X127853350Y-126037906D01*
X127767190Y-125922812D01*
X127767189Y-125922811D01*
X127749513Y-125909579D01*
X127707641Y-125853646D01*
X127702657Y-125783954D01*
X127736142Y-125722631D01*
X127749500Y-125711055D01*
X127767546Y-125697546D01*
X127853796Y-125582331D01*
X127904091Y-125447483D01*
X127910500Y-125387873D01*
X127910499Y-123692128D01*
X127904091Y-123632517D01*
X127898621Y-123617852D01*
X127853797Y-123497671D01*
X127853793Y-123497664D01*
X127767547Y-123382455D01*
X127767546Y-123382454D01*
X127750347Y-123369579D01*
X127749929Y-123369266D01*
X127708058Y-123313334D01*
X127703074Y-123243642D01*
X127736558Y-123182319D01*
X127749930Y-123170733D01*
X127767546Y-123157546D01*
X127853796Y-123042331D01*
X127904091Y-122907483D01*
X127910500Y-122847873D01*
X127910499Y-121152128D01*
X127904091Y-121092517D01*
X127853796Y-120957669D01*
X127853795Y-120957668D01*
X127853793Y-120957664D01*
X127767547Y-120842455D01*
X127749511Y-120828953D01*
X127707640Y-120773019D01*
X127702657Y-120703327D01*
X127736143Y-120642004D01*
X127749515Y-120630418D01*
X127767191Y-120617186D01*
X127853350Y-120502093D01*
X127853354Y-120502086D01*
X127903596Y-120367379D01*
X127903598Y-120367372D01*
X127909999Y-120307844D01*
X127910000Y-120307827D01*
X127910000Y-119710000D01*
X125310000Y-119710000D01*
X125310000Y-120307844D01*
X125316401Y-120367372D01*
X125316403Y-120367379D01*
X125366645Y-120502086D01*
X125366649Y-120502093D01*
X125452808Y-120617185D01*
X125470486Y-120630419D01*
X125512357Y-120686352D01*
X125517342Y-120756044D01*
X125483858Y-120817367D01*
X125470490Y-120828951D01*
X125452455Y-120842452D01*
X125452452Y-120842455D01*
X125366206Y-120957664D01*
X125366202Y-120957671D01*
X125315908Y-121092517D01*
X125309501Y-121152116D01*
X125309501Y-121152123D01*
X125309500Y-121152135D01*
X125309500Y-121200500D01*
X125289815Y-121267539D01*
X125237011Y-121313294D01*
X125185500Y-121324500D01*
X123938451Y-121324500D01*
X123872480Y-121305495D01*
X123854522Y-121294211D01*
X123684255Y-121234632D01*
X123684254Y-121234631D01*
X123684249Y-121234630D01*
X123615616Y-121226897D01*
X123551202Y-121199830D01*
X123511647Y-121142235D01*
X123505500Y-121103677D01*
X123505500Y-117911162D01*
X123525185Y-117844123D01*
X123541815Y-117823485D01*
X123864987Y-117500312D01*
X123926308Y-117466829D01*
X123995999Y-117471813D01*
X124044814Y-117505021D01*
X124122137Y-117590896D01*
X124122140Y-117590898D01*
X124275273Y-117702156D01*
X124275278Y-117702159D01*
X124448200Y-117779150D01*
X124448205Y-117779152D01*
X124633362Y-117818508D01*
X124633363Y-117818508D01*
X124822652Y-117818508D01*
X124822654Y-117818508D01*
X125007811Y-117779152D01*
X125141350Y-117719695D01*
X125210597Y-117710410D01*
X125273874Y-117740038D01*
X125311088Y-117799173D01*
X125315073Y-117819717D01*
X125315907Y-117827480D01*
X125366202Y-117962328D01*
X125366206Y-117962335D01*
X125452452Y-118077544D01*
X125452455Y-118077547D01*
X125470487Y-118091046D01*
X125512358Y-118146980D01*
X125517342Y-118216671D01*
X125483856Y-118277994D01*
X125470488Y-118289578D01*
X125452809Y-118302812D01*
X125366649Y-118417906D01*
X125366645Y-118417913D01*
X125316403Y-118552620D01*
X125316401Y-118552627D01*
X125310000Y-118612155D01*
X125310000Y-119210000D01*
X127910000Y-119210000D01*
X127910000Y-118612172D01*
X127909999Y-118612155D01*
X127903598Y-118552627D01*
X127903596Y-118552620D01*
X127853354Y-118417913D01*
X127853350Y-118417906D01*
X127767190Y-118302812D01*
X127767189Y-118302811D01*
X127749513Y-118289579D01*
X127707641Y-118233646D01*
X127702657Y-118163954D01*
X127736142Y-118102631D01*
X127749500Y-118091055D01*
X127767546Y-118077546D01*
X127853796Y-117962331D01*
X127904091Y-117827483D01*
X127910500Y-117767873D01*
X127910499Y-116072128D01*
X127904091Y-116012517D01*
X127877408Y-115940977D01*
X127853797Y-115877671D01*
X127853793Y-115877664D01*
X127767547Y-115762455D01*
X127767544Y-115762452D01*
X127652335Y-115676206D01*
X127652328Y-115676202D01*
X127517482Y-115625908D01*
X127517483Y-115625908D01*
X127457883Y-115619501D01*
X127457881Y-115619500D01*
X127457873Y-115619500D01*
X127457865Y-115619500D01*
X126045161Y-115619500D01*
X125978122Y-115599815D01*
X125932367Y-115547011D01*
X125922423Y-115477853D01*
X125951448Y-115414297D01*
X125957464Y-115407835D01*
X127324695Y-114040606D01*
X127398620Y-113929969D01*
X127449541Y-113807036D01*
X127475500Y-113676531D01*
X127475500Y-113543469D01*
X127475500Y-113501519D01*
X127495185Y-113434480D01*
X127511814Y-113413842D01*
X127630472Y-113295185D01*
X127718478Y-113149606D01*
X127769086Y-112987196D01*
X127775500Y-112916616D01*
X127775500Y-112403384D01*
X127769086Y-112332804D01*
X127718478Y-112170394D01*
X127630472Y-112024815D01*
X127630470Y-112024813D01*
X127630469Y-112024811D01*
X127528339Y-111922681D01*
X127494854Y-111861358D01*
X127499838Y-111791666D01*
X127528339Y-111747319D01*
X127630468Y-111645189D01*
X127630469Y-111645188D01*
X127630472Y-111645185D01*
X127718478Y-111499606D01*
X127769086Y-111337196D01*
X127775500Y-111266616D01*
X127775500Y-110753384D01*
X127769086Y-110682804D01*
X127718478Y-110520394D01*
X127630472Y-110374815D01*
X127630470Y-110374813D01*
X127630469Y-110374811D01*
X127511819Y-110256161D01*
X127478334Y-110194838D01*
X127475500Y-110168480D01*
X127475500Y-108043466D01*
X127449541Y-107912969D01*
X127449540Y-107912968D01*
X127449540Y-107912964D01*
X127398620Y-107790031D01*
X127378541Y-107759981D01*
X127324698Y-107679398D01*
X127324697Y-107679397D01*
X127324695Y-107679394D01*
X127230606Y-107585305D01*
X126862589Y-107217288D01*
X126320609Y-106675307D01*
X126320605Y-106675304D01*
X126209975Y-106601383D01*
X126209965Y-106601378D01*
X126087036Y-106550459D01*
X126087028Y-106550457D01*
X125956535Y-106524500D01*
X125956531Y-106524500D01*
X123824928Y-106524500D01*
X123757889Y-106504815D01*
X123712134Y-106452011D01*
X123702190Y-106382853D01*
X123719390Y-106335403D01*
X123784812Y-106229337D01*
X123784813Y-106229335D01*
X123784814Y-106229334D01*
X123839999Y-106062797D01*
X123850500Y-105960008D01*
X123850500Y-103359992D01*
X123839999Y-103257203D01*
X123784814Y-103090666D01*
X123765898Y-103059999D01*
X123692713Y-102941348D01*
X123692710Y-102941344D01*
X123672943Y-102921577D01*
X125779500Y-102921577D01*
X125779500Y-103118422D01*
X125810290Y-103312826D01*
X125871117Y-103500029D01*
X125960476Y-103675405D01*
X126076172Y-103834646D01*
X126215354Y-103973828D01*
X126374595Y-104089524D01*
X126457455Y-104131743D01*
X126549970Y-104178882D01*
X126549972Y-104178882D01*
X126549975Y-104178884D01*
X126650317Y-104211487D01*
X126737173Y-104239709D01*
X126931578Y-104270500D01*
X126931583Y-104270500D01*
X127128422Y-104270500D01*
X127322826Y-104239709D01*
X127384379Y-104219709D01*
X127510025Y-104178884D01*
X127685405Y-104089524D01*
X127844646Y-103973828D01*
X127983828Y-103834646D01*
X128099524Y-103675405D01*
X128188884Y-103500025D01*
X128249709Y-103312826D01*
X128258519Y-103257203D01*
X128280500Y-103118422D01*
X128280500Y-102921577D01*
X128249709Y-102727173D01*
X128188882Y-102539970D01*
X128126028Y-102416613D01*
X128099524Y-102364595D01*
X127983828Y-102205354D01*
X127844646Y-102066172D01*
X127685405Y-101950476D01*
X127646153Y-101930476D01*
X127510029Y-101861117D01*
X127322826Y-101800290D01*
X127128422Y-101769500D01*
X127128417Y-101769500D01*
X126931583Y-101769500D01*
X126931578Y-101769500D01*
X126737173Y-101800290D01*
X126549970Y-101861117D01*
X126374594Y-101950476D01*
X126283741Y-102016485D01*
X126215354Y-102066172D01*
X126215352Y-102066174D01*
X126215351Y-102066174D01*
X126076174Y-102205351D01*
X126076174Y-102205352D01*
X126076172Y-102205354D01*
X126026485Y-102273741D01*
X125960476Y-102364594D01*
X125871117Y-102539970D01*
X125810290Y-102727173D01*
X125779500Y-102921577D01*
X123672943Y-102921577D01*
X123568655Y-102817289D01*
X123568651Y-102817286D01*
X123419337Y-102725187D01*
X123419335Y-102725186D01*
X123336065Y-102697593D01*
X123252797Y-102670001D01*
X123252795Y-102670000D01*
X123150015Y-102659500D01*
X123150008Y-102659500D01*
X121449992Y-102659500D01*
X121449984Y-102659500D01*
X121347204Y-102670000D01*
X121347203Y-102670001D01*
X121180664Y-102725186D01*
X121180662Y-102725187D01*
X121031348Y-102817286D01*
X121031344Y-102817289D01*
X120907289Y-102941344D01*
X120907286Y-102941348D01*
X120815187Y-103090662D01*
X120815186Y-103090664D01*
X120760001Y-103257203D01*
X120760000Y-103257204D01*
X120749500Y-103359984D01*
X120749500Y-105934837D01*
X120729815Y-106001876D01*
X120677011Y-106047631D01*
X120607853Y-106057575D01*
X120544297Y-106028550D01*
X120537819Y-106022518D01*
X120461819Y-105946518D01*
X120428334Y-105885195D01*
X120425500Y-105858837D01*
X120425500Y-102926519D01*
X120445185Y-102859480D01*
X120461820Y-102838837D01*
X120483371Y-102817286D01*
X120505472Y-102795185D01*
X120593478Y-102649606D01*
X120644086Y-102487196D01*
X120650500Y-102416616D01*
X120650500Y-101403384D01*
X120644086Y-101332804D01*
X120593478Y-101170394D01*
X120505472Y-101024815D01*
X120505470Y-101024813D01*
X120505469Y-101024811D01*
X120385188Y-100904530D01*
X120340837Y-100877719D01*
X120239606Y-100816522D01*
X120077196Y-100765914D01*
X120077194Y-100765913D01*
X120077192Y-100765913D01*
X120027778Y-100761423D01*
X120006616Y-100759500D01*
X119493384Y-100759500D01*
X119474145Y-100761248D01*
X119422807Y-100765913D01*
X119260391Y-100816523D01*
X119189149Y-100859590D01*
X119121594Y-100877426D01*
X119060851Y-100859590D01*
X118989608Y-100816523D01*
X118989607Y-100816522D01*
X118989606Y-100816522D01*
X118827196Y-100765914D01*
X118827194Y-100765913D01*
X118827192Y-100765913D01*
X118777778Y-100761423D01*
X118756616Y-100759500D01*
X118243384Y-100759500D01*
X118224145Y-100761248D01*
X118172807Y-100765913D01*
X118010391Y-100816523D01*
X117939149Y-100859590D01*
X117871594Y-100877426D01*
X117810851Y-100859590D01*
X117739608Y-100816523D01*
X117739607Y-100816522D01*
X117739606Y-100816522D01*
X117577196Y-100765914D01*
X117577194Y-100765913D01*
X117577192Y-100765913D01*
X117527778Y-100761423D01*
X117506616Y-100759500D01*
X116993384Y-100759500D01*
X116974145Y-100761248D01*
X116922807Y-100765913D01*
X116760391Y-100816523D01*
X116689149Y-100859590D01*
X116621594Y-100877426D01*
X116560851Y-100859590D01*
X116489608Y-100816523D01*
X116489607Y-100816522D01*
X116489606Y-100816522D01*
X116327196Y-100765914D01*
X116327194Y-100765913D01*
X116327192Y-100765913D01*
X116277778Y-100761423D01*
X116256616Y-100759500D01*
X115743384Y-100759500D01*
X115724145Y-100761248D01*
X115672807Y-100765913D01*
X115510391Y-100816523D01*
X115439149Y-100859590D01*
X115371594Y-100877426D01*
X115310851Y-100859590D01*
X115239608Y-100816523D01*
X115239607Y-100816522D01*
X115239606Y-100816522D01*
X115077196Y-100765914D01*
X115077194Y-100765913D01*
X115077192Y-100765913D01*
X115027778Y-100761423D01*
X115006616Y-100759500D01*
X114493384Y-100759500D01*
X114474145Y-100761248D01*
X114422807Y-100765913D01*
X114260391Y-100816523D01*
X114188665Y-100859883D01*
X114121111Y-100877719D01*
X114060367Y-100859883D01*
X113989400Y-100816982D01*
X113989396Y-100816980D01*
X113827105Y-100766409D01*
X113827106Y-100766409D01*
X113756572Y-100760000D01*
X113750000Y-100760000D01*
X113750000Y-103059999D01*
X113756581Y-103059999D01*
X113827101Y-103053591D01*
X113838604Y-103050007D01*
X113908464Y-103048853D01*
X113967858Y-103085651D01*
X113997929Y-103148718D01*
X113999500Y-103168391D01*
X113999500Y-110839892D01*
X113979815Y-110906931D01*
X113927011Y-110952686D01*
X113857853Y-110962630D01*
X113845574Y-110960227D01*
X113773893Y-110942400D01*
X113749451Y-110940742D01*
X113731123Y-110939500D01*
X113731120Y-110939500D01*
X112328877Y-110939500D01*
X112328874Y-110939501D01*
X112286113Y-110942399D01*
X112286112Y-110942399D01*
X112101303Y-110988360D01*
X111930707Y-111072967D01*
X111930706Y-111072968D01*
X111914685Y-111085846D01*
X111850100Y-111112503D01*
X111781356Y-111100011D01*
X111730279Y-111052337D01*
X111713000Y-110989197D01*
X111713000Y-109784730D01*
X111732685Y-109717691D01*
X111749319Y-109697049D01*
X111774495Y-109671873D01*
X111867712Y-109578656D01*
X111959814Y-109429334D01*
X112014999Y-109262797D01*
X112025500Y-109160009D01*
X112025499Y-107759992D01*
X112014999Y-107657203D01*
X111959814Y-107490666D01*
X111867712Y-107341344D01*
X111743656Y-107217288D01*
X111594334Y-107125186D01*
X111427797Y-107070001D01*
X111427795Y-107070000D01*
X111325010Y-107059500D01*
X110399998Y-107059500D01*
X110399980Y-107059501D01*
X110297203Y-107070000D01*
X110297200Y-107070001D01*
X110130668Y-107125185D01*
X110130663Y-107125187D01*
X109981342Y-107217289D01*
X109857289Y-107341342D01*
X109765187Y-107490663D01*
X109765185Y-107490668D01*
X109765115Y-107490880D01*
X109710001Y-107657203D01*
X109710001Y-107657204D01*
X109710000Y-107657204D01*
X109699500Y-107759983D01*
X109699500Y-109160001D01*
X109699501Y-109160018D01*
X109710000Y-109262796D01*
X109710001Y-109262799D01*
X109748970Y-109380397D01*
X109751372Y-109450225D01*
X109715640Y-109510267D01*
X109653120Y-109541460D01*
X109589753Y-109535751D01*
X109589707Y-109535910D01*
X109588908Y-109535675D01*
X109587948Y-109535589D01*
X109585478Y-109534668D01*
X109585461Y-109534663D01*
X109585459Y-109534662D01*
X109518420Y-109514977D01*
X109518422Y-109514977D01*
X109518417Y-109514976D01*
X109456354Y-109506053D01*
X109376000Y-109494500D01*
X108984414Y-109494500D01*
X108917375Y-109474815D01*
X108871620Y-109422011D01*
X108861676Y-109352853D01*
X108866708Y-109331497D01*
X108889504Y-109262700D01*
X108889506Y-109262690D01*
X108899999Y-109159986D01*
X108900000Y-109159973D01*
X108900000Y-108710000D01*
X107987500Y-108710000D01*
X107987500Y-109859999D01*
X108080561Y-109859999D01*
X108147600Y-109879684D01*
X108193355Y-109932488D01*
X108203299Y-110001646D01*
X108202538Y-110006306D01*
X108195276Y-110046010D01*
X108195276Y-110046013D01*
X108195275Y-110046022D01*
X108194900Y-110055855D01*
X108189796Y-110189797D01*
X108195812Y-110247040D01*
X108195812Y-110272959D01*
X108189858Y-110329613D01*
X108184468Y-110354971D01*
X108166864Y-110409151D01*
X108156320Y-110432833D01*
X108127836Y-110482169D01*
X108112599Y-110503141D01*
X108074488Y-110545468D01*
X108055221Y-110562816D01*
X108009124Y-110596306D01*
X107986677Y-110609265D01*
X107934639Y-110632434D01*
X107909986Y-110640445D01*
X107872790Y-110648352D01*
X107854263Y-110652290D01*
X107828482Y-110655000D01*
X107771516Y-110655000D01*
X107745735Y-110652290D01*
X107690013Y-110640446D01*
X107665356Y-110632434D01*
X107613314Y-110609262D01*
X107590868Y-110596303D01*
X107574613Y-110584493D01*
X107544776Y-110562815D01*
X107525516Y-110545474D01*
X107487397Y-110503138D01*
X107472161Y-110482167D01*
X107443674Y-110432824D01*
X107433133Y-110409151D01*
X107415527Y-110354965D01*
X107410141Y-110329621D01*
X107405751Y-110287855D01*
X107404186Y-110272954D01*
X107404186Y-110247035D01*
X107410201Y-110189802D01*
X107410202Y-110189794D01*
X107406365Y-110055505D01*
X107400004Y-110016544D01*
X107397953Y-110003979D01*
X107406579Y-109934644D01*
X107451320Y-109880978D01*
X107473492Y-109874006D01*
X107487500Y-109859999D01*
X107487500Y-108710000D01*
X106575001Y-108710000D01*
X106575001Y-109159986D01*
X106585494Y-109262697D01*
X106608292Y-109331496D01*
X106610694Y-109401324D01*
X106574962Y-109461366D01*
X106512442Y-109492559D01*
X106490586Y-109494500D01*
X104005497Y-109494500D01*
X103978924Y-109495199D01*
X103965862Y-109495887D01*
X103939387Y-109497980D01*
X103799897Y-109533304D01*
X103735299Y-109559920D01*
X103724742Y-109566157D01*
X103657010Y-109583306D01*
X103590758Y-109561114D01*
X103570445Y-109543377D01*
X103449747Y-109412265D01*
X103449744Y-109412262D01*
X103257714Y-109262799D01*
X103253509Y-109259526D01*
X103253507Y-109259525D01*
X103253506Y-109259524D01*
X103034811Y-109141172D01*
X103034802Y-109141169D01*
X102799616Y-109060429D01*
X102554335Y-109019500D01*
X102305665Y-109019500D01*
X102060383Y-109060429D01*
X101825197Y-109141169D01*
X101825188Y-109141172D01*
X101606493Y-109259524D01*
X101410255Y-109412262D01*
X101410252Y-109412265D01*
X101289353Y-109543596D01*
X101229466Y-109579587D01*
X101159628Y-109577486D01*
X101146613Y-109572407D01*
X101063970Y-109534665D01*
X101063963Y-109534663D01*
X101063961Y-109534662D01*
X100996922Y-109514977D01*
X100996924Y-109514977D01*
X100996919Y-109514976D01*
X100934856Y-109506053D01*
X100854502Y-109494500D01*
X100624500Y-109494500D01*
X100557461Y-109474815D01*
X100511706Y-109422011D01*
X100500500Y-109370500D01*
X100500500Y-107760013D01*
X106575000Y-107760013D01*
X106575000Y-108210000D01*
X107487500Y-108210000D01*
X107987500Y-108210000D01*
X108899999Y-108210000D01*
X108899999Y-107760028D01*
X108899998Y-107760013D01*
X108889505Y-107657302D01*
X108834358Y-107490880D01*
X108834356Y-107490875D01*
X108742315Y-107341654D01*
X108618345Y-107217684D01*
X108469124Y-107125643D01*
X108469119Y-107125641D01*
X108302697Y-107070494D01*
X108302690Y-107070493D01*
X108199986Y-107060000D01*
X107987500Y-107060000D01*
X107987500Y-108210000D01*
X107487500Y-108210000D01*
X107487500Y-107060000D01*
X107275029Y-107060000D01*
X107275012Y-107060001D01*
X107172302Y-107070494D01*
X107005880Y-107125641D01*
X107005875Y-107125643D01*
X106856654Y-107217684D01*
X106732684Y-107341654D01*
X106640643Y-107490875D01*
X106640641Y-107490880D01*
X106585494Y-107657302D01*
X106585493Y-107657309D01*
X106575000Y-107760013D01*
X100500500Y-107760013D01*
X100500500Y-102901577D01*
X101749500Y-102901577D01*
X101749500Y-103098422D01*
X101780290Y-103292826D01*
X101841117Y-103480029D01*
X101851306Y-103500025D01*
X101930476Y-103655405D01*
X102046172Y-103814646D01*
X102185354Y-103953828D01*
X102344595Y-104069524D01*
X102427455Y-104111743D01*
X102519970Y-104158882D01*
X102519972Y-104158882D01*
X102519975Y-104158884D01*
X102620317Y-104191487D01*
X102707173Y-104219709D01*
X102901578Y-104250500D01*
X102901583Y-104250500D01*
X103098422Y-104250500D01*
X103292826Y-104219709D01*
X103480025Y-104158884D01*
X103655405Y-104069524D01*
X103814646Y-103953828D01*
X103953828Y-103814646D01*
X104069524Y-103655405D01*
X104158884Y-103480025D01*
X104197888Y-103359984D01*
X109399500Y-103359984D01*
X109399500Y-105960015D01*
X109410000Y-106062795D01*
X109410001Y-106062796D01*
X109465186Y-106229335D01*
X109465187Y-106229337D01*
X109557286Y-106378651D01*
X109557289Y-106378655D01*
X109681344Y-106502710D01*
X109681348Y-106502713D01*
X109830662Y-106594812D01*
X109830664Y-106594813D01*
X109830666Y-106594814D01*
X109997203Y-106649999D01*
X110099992Y-106660500D01*
X110099997Y-106660500D01*
X111800003Y-106660500D01*
X111800008Y-106660500D01*
X111902797Y-106649999D01*
X112069334Y-106594814D01*
X112218655Y-106502711D01*
X112342711Y-106378655D01*
X112434814Y-106229334D01*
X112489999Y-106062797D01*
X112500500Y-105960008D01*
X112500500Y-103359992D01*
X112489999Y-103257203D01*
X112434814Y-103090666D01*
X112415898Y-103059999D01*
X112342713Y-102941348D01*
X112342710Y-102941344D01*
X112218655Y-102817289D01*
X112218651Y-102817286D01*
X112069337Y-102725187D01*
X112069335Y-102725186D01*
X111986065Y-102697593D01*
X111902797Y-102670001D01*
X111902795Y-102670000D01*
X111800015Y-102659500D01*
X111800008Y-102659500D01*
X110099992Y-102659500D01*
X110099984Y-102659500D01*
X109997204Y-102670000D01*
X109997203Y-102670001D01*
X109830664Y-102725186D01*
X109830662Y-102725187D01*
X109681348Y-102817286D01*
X109681344Y-102817289D01*
X109557289Y-102941344D01*
X109557286Y-102941348D01*
X109465187Y-103090662D01*
X109465186Y-103090664D01*
X109410001Y-103257203D01*
X109410000Y-103257204D01*
X109399500Y-103359984D01*
X104197888Y-103359984D01*
X104219709Y-103292826D01*
X104225351Y-103257203D01*
X104250500Y-103098422D01*
X104250500Y-102901577D01*
X104219709Y-102707173D01*
X104158882Y-102519970D01*
X104106203Y-102416582D01*
X112600001Y-102416582D01*
X112606408Y-102487102D01*
X112606409Y-102487107D01*
X112656981Y-102649396D01*
X112744927Y-102794877D01*
X112865122Y-102915072D01*
X113010604Y-103003019D01*
X113010603Y-103003019D01*
X113172894Y-103053590D01*
X113172893Y-103053590D01*
X113243408Y-103059998D01*
X113243426Y-103059999D01*
X113249999Y-103059998D01*
X113250000Y-103059998D01*
X113250000Y-102160000D01*
X112600001Y-102160000D01*
X112600001Y-102416582D01*
X104106203Y-102416582D01*
X104069523Y-102344594D01*
X103953828Y-102185354D01*
X103814646Y-102046172D01*
X103655405Y-101930476D01*
X103480029Y-101841117D01*
X103292826Y-101780290D01*
X103098422Y-101749500D01*
X103098417Y-101749500D01*
X102901583Y-101749500D01*
X102901578Y-101749500D01*
X102707173Y-101780290D01*
X102519970Y-101841117D01*
X102344594Y-101930476D01*
X102253741Y-101996485D01*
X102185354Y-102046172D01*
X102185352Y-102046174D01*
X102185351Y-102046174D01*
X102046174Y-102185351D01*
X102046174Y-102185352D01*
X102046172Y-102185354D01*
X102031643Y-102205352D01*
X101930476Y-102344594D01*
X101841117Y-102519970D01*
X101780290Y-102707173D01*
X101749500Y-102901577D01*
X100500500Y-102901577D01*
X100500500Y-101403427D01*
X112600000Y-101403427D01*
X112600000Y-101660000D01*
X113250000Y-101660000D01*
X113250000Y-100760000D01*
X113249999Y-100759999D01*
X113243436Y-100760000D01*
X113243417Y-100760001D01*
X113172897Y-100766408D01*
X113172892Y-100766409D01*
X113010603Y-100816981D01*
X112865122Y-100904927D01*
X112744927Y-101025122D01*
X112656980Y-101170604D01*
X112606409Y-101332893D01*
X112600000Y-101403427D01*
X100500500Y-101403427D01*
X100500500Y-100624500D01*
X100520185Y-100557461D01*
X100572989Y-100511706D01*
X100624500Y-100500500D01*
X129375500Y-100500500D01*
X129442539Y-100520185D01*
G37*
%TD.AperFunction*%
%TA.AperFunction,Conductor*%
G36*
X121173833Y-119733981D02*
G01*
X121229767Y-119775852D01*
X121254184Y-119841317D01*
X121254500Y-119850163D01*
X121254500Y-125838837D01*
X121234815Y-125905876D01*
X121218181Y-125926518D01*
X120776518Y-126368181D01*
X120715195Y-126401666D01*
X120688837Y-126404500D01*
X120414499Y-126404500D01*
X120347460Y-126384815D01*
X120301705Y-126332011D01*
X120290499Y-126280500D01*
X120290499Y-126232129D01*
X120290498Y-126232123D01*
X120290497Y-126232116D01*
X120284091Y-126172517D01*
X120253619Y-126090818D01*
X120233797Y-126037671D01*
X120233793Y-126037664D01*
X120147547Y-125922455D01*
X120129511Y-125908953D01*
X120087640Y-125853019D01*
X120082657Y-125783327D01*
X120116143Y-125722004D01*
X120129515Y-125710418D01*
X120147191Y-125697186D01*
X120233350Y-125582093D01*
X120233354Y-125582086D01*
X120283596Y-125447379D01*
X120283598Y-125447372D01*
X120289999Y-125387844D01*
X120290000Y-125387827D01*
X120290000Y-124790000D01*
X117690000Y-124790000D01*
X117690000Y-125387844D01*
X117696401Y-125447372D01*
X117696403Y-125447379D01*
X117746645Y-125582086D01*
X117746649Y-125582093D01*
X117832808Y-125697185D01*
X117850486Y-125710419D01*
X117892357Y-125766352D01*
X117897342Y-125836044D01*
X117863858Y-125897367D01*
X117850490Y-125908951D01*
X117832455Y-125922452D01*
X117832452Y-125922455D01*
X117746206Y-126037664D01*
X117746202Y-126037671D01*
X117695908Y-126172517D01*
X117689501Y-126232116D01*
X117689501Y-126232123D01*
X117689500Y-126232135D01*
X117689500Y-127927870D01*
X117689501Y-127927876D01*
X117695908Y-127987483D01*
X117746202Y-128122328D01*
X117746206Y-128122335D01*
X117832452Y-128237544D01*
X117832453Y-128237544D01*
X117832454Y-128237546D01*
X117849649Y-128250418D01*
X117850071Y-128250734D01*
X117891941Y-128306668D01*
X117896925Y-128376360D01*
X117863439Y-128437683D01*
X117850071Y-128449266D01*
X117832452Y-128462455D01*
X117746206Y-128577664D01*
X117746202Y-128577671D01*
X117695908Y-128712517D01*
X117691506Y-128753469D01*
X117689501Y-128772123D01*
X117689500Y-128772135D01*
X117689500Y-128820500D01*
X117669815Y-128887539D01*
X117617011Y-128933294D01*
X117565500Y-128944500D01*
X117437502Y-128944500D01*
X117370463Y-128924815D01*
X117364616Y-128920818D01*
X117347223Y-128908181D01*
X117307593Y-128879388D01*
X117144267Y-128806671D01*
X117144265Y-128806670D01*
X117016594Y-128779533D01*
X116969391Y-128769500D01*
X116790609Y-128769500D01*
X116759954Y-128776015D01*
X116615733Y-128806670D01*
X116615728Y-128806672D01*
X116452408Y-128879387D01*
X116307768Y-128984475D01*
X116188140Y-129117336D01*
X116098750Y-129272164D01*
X116098747Y-129272170D01*
X116043504Y-129442192D01*
X116043503Y-129442194D01*
X116024815Y-129620000D01*
X116043503Y-129797805D01*
X116043504Y-129797807D01*
X116098747Y-129967829D01*
X116098750Y-129967835D01*
X116188141Y-130122665D01*
X116207977Y-130144695D01*
X116307764Y-130255521D01*
X116307767Y-130255523D01*
X116307770Y-130255526D01*
X116452407Y-130360612D01*
X116615733Y-130433329D01*
X116790609Y-130470500D01*
X116790610Y-130470500D01*
X116969389Y-130470500D01*
X116969391Y-130470500D01*
X117144267Y-130433329D01*
X117307593Y-130360612D01*
X117364616Y-130319182D01*
X117430423Y-130295702D01*
X117437502Y-130295500D01*
X117565501Y-130295500D01*
X117632540Y-130315185D01*
X117678295Y-130367989D01*
X117689501Y-130419500D01*
X117689501Y-130467876D01*
X117695908Y-130527483D01*
X117746202Y-130662328D01*
X117746206Y-130662335D01*
X117832452Y-130777544D01*
X117832455Y-130777547D01*
X117850487Y-130791046D01*
X117892358Y-130846980D01*
X117897342Y-130916671D01*
X117863856Y-130977994D01*
X117850488Y-130989578D01*
X117832809Y-131002812D01*
X117746649Y-131117906D01*
X117746645Y-131117913D01*
X117696403Y-131252620D01*
X117696401Y-131252627D01*
X117690000Y-131312155D01*
X117690000Y-131910000D01*
X120290000Y-131910000D01*
X120290000Y-131312172D01*
X120289999Y-131312155D01*
X120283598Y-131252627D01*
X120283596Y-131252620D01*
X120233354Y-131117913D01*
X120233350Y-131117906D01*
X120147190Y-131002812D01*
X120147189Y-131002811D01*
X120129513Y-130989579D01*
X120087641Y-130933646D01*
X120082657Y-130863954D01*
X120116142Y-130802631D01*
X120129500Y-130791055D01*
X120147546Y-130777546D01*
X120233796Y-130662331D01*
X120284091Y-130527483D01*
X120290500Y-130467873D01*
X120290499Y-128772128D01*
X120284091Y-128712517D01*
X120233796Y-128577669D01*
X120233795Y-128577668D01*
X120233793Y-128577664D01*
X120147547Y-128462455D01*
X120147546Y-128462454D01*
X120129930Y-128449267D01*
X120088058Y-128393334D01*
X120083074Y-128323642D01*
X120116558Y-128262319D01*
X120129930Y-128250733D01*
X120147546Y-128237546D01*
X120233796Y-128122331D01*
X120284091Y-127987483D01*
X120290500Y-127927873D01*
X120290500Y-127879500D01*
X120310185Y-127812461D01*
X120362989Y-127766706D01*
X120414500Y-127755500D01*
X121086532Y-127755500D01*
X121086533Y-127755499D01*
X121217036Y-127729541D01*
X121339969Y-127678620D01*
X121450606Y-127604695D01*
X121942819Y-127112482D01*
X122004142Y-127078997D01*
X122073833Y-127083981D01*
X122129767Y-127125852D01*
X122154184Y-127191317D01*
X122154500Y-127200163D01*
X122154500Y-128886535D01*
X122180457Y-129017028D01*
X122180459Y-129017036D01*
X122231378Y-129139965D01*
X122231383Y-129139975D01*
X122305304Y-129250605D01*
X122305307Y-129250609D01*
X123199390Y-130144692D01*
X123199394Y-130144695D01*
X123310024Y-130218616D01*
X123310028Y-130218618D01*
X123310031Y-130218620D01*
X123432964Y-130269541D01*
X123563464Y-130295499D01*
X123563468Y-130295500D01*
X123563469Y-130295500D01*
X123696531Y-130295500D01*
X125185501Y-130295500D01*
X125252540Y-130315185D01*
X125298295Y-130367989D01*
X125309501Y-130419500D01*
X125309501Y-130467876D01*
X125315908Y-130527483D01*
X125366202Y-130662328D01*
X125366206Y-130662335D01*
X125452452Y-130777544D01*
X125452453Y-130777544D01*
X125452454Y-130777546D01*
X125470070Y-130790733D01*
X125470071Y-130790734D01*
X125511941Y-130846668D01*
X125516925Y-130916360D01*
X125483439Y-130977683D01*
X125470071Y-130989266D01*
X125452452Y-131002455D01*
X125366206Y-131117664D01*
X125366202Y-131117671D01*
X125315908Y-131252517D01*
X125309501Y-131312116D01*
X125309501Y-131312123D01*
X125309500Y-131312135D01*
X125309500Y-131360500D01*
X125289815Y-131427539D01*
X125237011Y-131473294D01*
X125185500Y-131484500D01*
X124573464Y-131484500D01*
X124442971Y-131510456D01*
X124442967Y-131510458D01*
X124442965Y-131510458D01*
X124442964Y-131510459D01*
X124399500Y-131528462D01*
X124356034Y-131546466D01*
X124356033Y-131546465D01*
X124320032Y-131561379D01*
X124320028Y-131561381D01*
X124223014Y-131626204D01*
X124223011Y-131626207D01*
X124209394Y-131635304D01*
X122736518Y-133108181D01*
X122675195Y-133141666D01*
X122648837Y-133144500D01*
X120413353Y-133144500D01*
X120346314Y-133124815D01*
X120300559Y-133072011D01*
X120290700Y-133011200D01*
X120289822Y-133011153D01*
X120290000Y-133007827D01*
X120290000Y-132410000D01*
X117690000Y-132410000D01*
X117690000Y-133007827D01*
X117690178Y-133011153D01*
X117689225Y-133011203D01*
X117677524Y-133076018D01*
X117629908Y-133127149D01*
X117566647Y-133144500D01*
X113544954Y-133144500D01*
X113477915Y-133124815D01*
X113432160Y-133072011D01*
X113422216Y-133002853D01*
X113451241Y-132939297D01*
X113457273Y-132932819D01*
X113462542Y-132927548D01*
X113462546Y-132927546D01*
X113548796Y-132812331D01*
X113599091Y-132677483D01*
X113605500Y-132617873D01*
X113605499Y-131522128D01*
X113599091Y-131462517D01*
X113548796Y-131327669D01*
X113548795Y-131327668D01*
X113548793Y-131327664D01*
X113462547Y-131212455D01*
X113462544Y-131212452D01*
X113347335Y-131126206D01*
X113347328Y-131126202D01*
X113212482Y-131075908D01*
X113212483Y-131075908D01*
X113152883Y-131069501D01*
X113152881Y-131069500D01*
X113152873Y-131069500D01*
X113152864Y-131069500D01*
X111507129Y-131069500D01*
X111507123Y-131069501D01*
X111447516Y-131075908D01*
X111312671Y-131126202D01*
X111312664Y-131126206D01*
X111197455Y-131212452D01*
X111197452Y-131212455D01*
X111111206Y-131327664D01*
X111111202Y-131327671D01*
X111060908Y-131462517D01*
X111055754Y-131510459D01*
X111054501Y-131522123D01*
X111054500Y-131522135D01*
X111054500Y-131533568D01*
X111034815Y-131600607D01*
X110982011Y-131646362D01*
X110912853Y-131656306D01*
X110856190Y-131632835D01*
X110847334Y-131626206D01*
X110847328Y-131626202D01*
X110712482Y-131575908D01*
X110712483Y-131575908D01*
X110652883Y-131569501D01*
X110652881Y-131569500D01*
X110652873Y-131569500D01*
X110652864Y-131569500D01*
X109157129Y-131569500D01*
X109157123Y-131569501D01*
X109097516Y-131575908D01*
X108962671Y-131626202D01*
X108962664Y-131626206D01*
X108847455Y-131712452D01*
X108847452Y-131712455D01*
X108761206Y-131827664D01*
X108761202Y-131827671D01*
X108710908Y-131962517D01*
X108704501Y-132022116D01*
X108704500Y-132022135D01*
X108704500Y-132917870D01*
X108704501Y-132917876D01*
X108710909Y-132977487D01*
X108712692Y-132985031D01*
X108711375Y-132985342D01*
X108715775Y-133046858D01*
X108682291Y-133108181D01*
X108620968Y-133141666D01*
X108594609Y-133144500D01*
X105361163Y-133144500D01*
X105294124Y-133124815D01*
X105273482Y-133108181D01*
X105191819Y-133026518D01*
X105158334Y-132965195D01*
X105155500Y-132938837D01*
X105155500Y-129243466D01*
X105129541Y-129112969D01*
X105129540Y-129112968D01*
X105129540Y-129112964D01*
X105089806Y-129017036D01*
X105078623Y-128990038D01*
X105078622Y-128990037D01*
X105078620Y-128990031D01*
X105048197Y-128944500D01*
X105004698Y-128879398D01*
X105004697Y-128879397D01*
X105004695Y-128879394D01*
X104910606Y-128785305D01*
X104252982Y-128127681D01*
X104219497Y-128066358D01*
X104224481Y-127996666D01*
X104252982Y-127952319D01*
X106193319Y-126011983D01*
X106254642Y-125978498D01*
X106324334Y-125983482D01*
X106380267Y-126025354D01*
X106404684Y-126090818D01*
X106405000Y-126099664D01*
X106405000Y-130070000D01*
X108405000Y-130070000D01*
X108405000Y-127020000D01*
X110755000Y-127020000D01*
X112605000Y-127020000D01*
X112605000Y-124520000D01*
X110755000Y-124520000D01*
X110755000Y-127020000D01*
X108405000Y-127020000D01*
X108405000Y-122577175D01*
X108424685Y-122510136D01*
X108477489Y-122464381D01*
X108546647Y-122454437D01*
X108610203Y-122483462D01*
X108616682Y-122489495D01*
X108651878Y-122524692D01*
X108651886Y-122524698D01*
X108762508Y-122598613D01*
X108762511Y-122598614D01*
X108762519Y-122598620D01*
X108885452Y-122649540D01*
X108885456Y-122649540D01*
X108885457Y-122649541D01*
X109015954Y-122675500D01*
X109015957Y-122675500D01*
X109149019Y-122675500D01*
X117565501Y-122675500D01*
X117632540Y-122695185D01*
X117678295Y-122747989D01*
X117689501Y-122799500D01*
X117689501Y-122847876D01*
X117695908Y-122907483D01*
X117746202Y-123042328D01*
X117746206Y-123042335D01*
X117832452Y-123157544D01*
X117832455Y-123157547D01*
X117850487Y-123171046D01*
X117892358Y-123226980D01*
X117897342Y-123296671D01*
X117863856Y-123357994D01*
X117850488Y-123369578D01*
X117832809Y-123382812D01*
X117746649Y-123497906D01*
X117746645Y-123497913D01*
X117696403Y-123632620D01*
X117696401Y-123632627D01*
X117690000Y-123692155D01*
X117690000Y-124290000D01*
X120290000Y-124290000D01*
X120290000Y-123692172D01*
X120289999Y-123692155D01*
X120283598Y-123632627D01*
X120283596Y-123632620D01*
X120233354Y-123497913D01*
X120233350Y-123497906D01*
X120147190Y-123382812D01*
X120147189Y-123382811D01*
X120129513Y-123369579D01*
X120087641Y-123313646D01*
X120082657Y-123243954D01*
X120116142Y-123182631D01*
X120129500Y-123171055D01*
X120147546Y-123157546D01*
X120233796Y-123042331D01*
X120284091Y-122907483D01*
X120290500Y-122847873D01*
X120290499Y-121152128D01*
X120284091Y-121092517D01*
X120233796Y-120957669D01*
X120233795Y-120957668D01*
X120233793Y-120957664D01*
X120147547Y-120842455D01*
X120147546Y-120842454D01*
X120129930Y-120829267D01*
X120088058Y-120773334D01*
X120083074Y-120703642D01*
X120116558Y-120642319D01*
X120129930Y-120630733D01*
X120147546Y-120617546D01*
X120233796Y-120502331D01*
X120284091Y-120367483D01*
X120290500Y-120307873D01*
X120290500Y-120259500D01*
X120310185Y-120192461D01*
X120362989Y-120146706D01*
X120414500Y-120135500D01*
X120456532Y-120135500D01*
X120456533Y-120135499D01*
X120587036Y-120109541D01*
X120709969Y-120058620D01*
X120820606Y-119984695D01*
X121042819Y-119762482D01*
X121104142Y-119728997D01*
X121173833Y-119733981D01*
G37*
%TD.AperFunction*%
%TA.AperFunction,Conductor*%
G36*
X103630693Y-123764507D02*
G01*
X103680475Y-123795788D01*
X103850745Y-123855368D01*
X103850750Y-123855369D01*
X103989383Y-123870989D01*
X104053797Y-123898055D01*
X104093352Y-123955650D01*
X104099500Y-123994209D01*
X104099500Y-124636042D01*
X104079815Y-124703081D01*
X104027011Y-124748836D01*
X103957853Y-124758780D01*
X103894297Y-124729755D01*
X103883350Y-124719014D01*
X103807234Y-124634478D01*
X103807231Y-124634476D01*
X103807230Y-124634475D01*
X103807229Y-124634474D01*
X103662592Y-124529388D01*
X103499266Y-124456671D01*
X103499264Y-124456670D01*
X103354542Y-124425909D01*
X103324390Y-124419500D01*
X103145608Y-124419500D01*
X103145607Y-124419500D01*
X103012619Y-124447767D01*
X102942952Y-124442451D01*
X102908201Y-124420000D01*
X102464167Y-124420000D01*
X102456188Y-124419572D01*
X102456183Y-124419678D01*
X102452879Y-124419500D01*
X102452873Y-124419500D01*
X102452866Y-124419500D01*
X101404000Y-124419500D01*
X101336961Y-124399815D01*
X101291206Y-124347011D01*
X101280000Y-124295500D01*
X101280000Y-124044499D01*
X101299685Y-123977460D01*
X101352489Y-123931705D01*
X101403997Y-123920499D01*
X102452872Y-123920499D01*
X102452872Y-123920498D01*
X102456196Y-123920321D01*
X102456201Y-123920426D01*
X102464163Y-123920000D01*
X102905000Y-123920000D01*
X102905000Y-123869500D01*
X102924685Y-123802461D01*
X102977489Y-123756706D01*
X103029000Y-123745500D01*
X103564720Y-123745500D01*
X103630693Y-123764507D01*
G37*
%TD.AperFunction*%
%TA.AperFunction,Conductor*%
G36*
X115705703Y-107661450D02*
G01*
X115712181Y-107667482D01*
X118381990Y-110337291D01*
X118415475Y-110398614D01*
X118410491Y-110468306D01*
X118400427Y-110489120D01*
X118381523Y-110520392D01*
X118381522Y-110520394D01*
X118344113Y-110640445D01*
X118330913Y-110682807D01*
X118324500Y-110753386D01*
X118324500Y-111266613D01*
X118330913Y-111337192D01*
X118381522Y-111499606D01*
X118469530Y-111645188D01*
X118571661Y-111747319D01*
X118605146Y-111808642D01*
X118600162Y-111878334D01*
X118571661Y-111922681D01*
X118469531Y-112024810D01*
X118469530Y-112024811D01*
X118381522Y-112170393D01*
X118330913Y-112332807D01*
X118324500Y-112403386D01*
X118324500Y-112916613D01*
X118330913Y-112987192D01*
X118330913Y-112987194D01*
X118330914Y-112987196D01*
X118381522Y-113149606D01*
X118469528Y-113295185D01*
X118588182Y-113413839D01*
X118621666Y-113475160D01*
X118624500Y-113501519D01*
X118624500Y-114345774D01*
X118607887Y-114407773D01*
X118518752Y-114562159D01*
X118518747Y-114562170D01*
X118463504Y-114732192D01*
X118463503Y-114732194D01*
X118444815Y-114910000D01*
X118463503Y-115087805D01*
X118463504Y-115087807D01*
X118518747Y-115257829D01*
X118518750Y-115257835D01*
X118608141Y-115412665D01*
X118608467Y-115413027D01*
X118608589Y-115413283D01*
X118611959Y-115417920D01*
X118611110Y-115418536D01*
X118638697Y-115476018D01*
X118630073Y-115545353D01*
X118585332Y-115599019D01*
X118518680Y-115619977D01*
X118516318Y-115620000D01*
X118142155Y-115620000D01*
X118082627Y-115626401D01*
X118082620Y-115626403D01*
X117947913Y-115676645D01*
X117947906Y-115676649D01*
X117832812Y-115762809D01*
X117832809Y-115762812D01*
X117746649Y-115877906D01*
X117746645Y-115877913D01*
X117696403Y-116012620D01*
X117696401Y-116012627D01*
X117690000Y-116072155D01*
X117690000Y-116670000D01*
X119116000Y-116670000D01*
X119183039Y-116689685D01*
X119228794Y-116742489D01*
X119240000Y-116794000D01*
X119240000Y-117046000D01*
X119220315Y-117113039D01*
X119167511Y-117158794D01*
X119116000Y-117170000D01*
X117690000Y-117170000D01*
X117690000Y-117767844D01*
X117696401Y-117827372D01*
X117696403Y-117827379D01*
X117746645Y-117962086D01*
X117746649Y-117962093D01*
X117832808Y-118077185D01*
X117850486Y-118090419D01*
X117892357Y-118146352D01*
X117897342Y-118216044D01*
X117863858Y-118277367D01*
X117850490Y-118288951D01*
X117832455Y-118302452D01*
X117832452Y-118302455D01*
X117746206Y-118417664D01*
X117746202Y-118417671D01*
X117695908Y-118552517D01*
X117689501Y-118612116D01*
X117689500Y-118612135D01*
X117689500Y-120307870D01*
X117689501Y-120307876D01*
X117695908Y-120367483D01*
X117746202Y-120502328D01*
X117746206Y-120502335D01*
X117832452Y-120617544D01*
X117832453Y-120617544D01*
X117832454Y-120617546D01*
X117849649Y-120630418D01*
X117850071Y-120630734D01*
X117891941Y-120686668D01*
X117896925Y-120756360D01*
X117863439Y-120817683D01*
X117850071Y-120829266D01*
X117832452Y-120842455D01*
X117746206Y-120957664D01*
X117746202Y-120957671D01*
X117695908Y-121092517D01*
X117689501Y-121152116D01*
X117689501Y-121152123D01*
X117689500Y-121152135D01*
X117689500Y-121200500D01*
X117669815Y-121267539D01*
X117617011Y-121313294D01*
X117565500Y-121324500D01*
X111879500Y-121324500D01*
X111812461Y-121304815D01*
X111766706Y-121252011D01*
X111755500Y-121200500D01*
X111755499Y-120072129D01*
X111755498Y-120072123D01*
X111754046Y-120058616D01*
X111749091Y-120012517D01*
X111698796Y-119877669D01*
X111698795Y-119877668D01*
X111698793Y-119877664D01*
X111612547Y-119762455D01*
X111612544Y-119762452D01*
X111497335Y-119676206D01*
X111497328Y-119676202D01*
X111362482Y-119625908D01*
X111362483Y-119625908D01*
X111302883Y-119619501D01*
X111302881Y-119619500D01*
X111302873Y-119619500D01*
X111302864Y-119619500D01*
X110207129Y-119619500D01*
X110207120Y-119619501D01*
X110143248Y-119626367D01*
X110116742Y-119626367D01*
X110112483Y-119625909D01*
X110052873Y-119619500D01*
X110052867Y-119619500D01*
X109793902Y-119619500D01*
X109726863Y-119599815D01*
X109681108Y-119547011D01*
X109671164Y-119477853D01*
X109700189Y-119414297D01*
X109726864Y-119391184D01*
X109758535Y-119370830D01*
X109758533Y-119370830D01*
X109758543Y-119370825D01*
X109811347Y-119325070D01*
X109905567Y-119216336D01*
X109965338Y-119085459D01*
X109985023Y-119018420D01*
X109985024Y-119018416D01*
X110005500Y-118876000D01*
X110005500Y-117654500D01*
X109993947Y-117547044D01*
X109982741Y-117495533D01*
X109973751Y-117468523D01*
X109948616Y-117393002D01*
X109948613Y-117392996D01*
X109870825Y-117271957D01*
X109844084Y-117241096D01*
X111530000Y-117241096D01*
X111532897Y-117283824D01*
X111578831Y-117468523D01*
X111663390Y-117639022D01*
X111663392Y-117639025D01*
X111782632Y-117787366D01*
X111782633Y-117787367D01*
X111930974Y-117906607D01*
X111930977Y-117906609D01*
X112101476Y-117991168D01*
X112286175Y-118037102D01*
X112328903Y-118040000D01*
X112780000Y-118040000D01*
X113280000Y-118040000D01*
X113731097Y-118040000D01*
X113773824Y-118037102D01*
X113958523Y-117991168D01*
X114129022Y-117906609D01*
X114129025Y-117906607D01*
X114277366Y-117787367D01*
X114277367Y-117787366D01*
X114396607Y-117639025D01*
X114396609Y-117639022D01*
X114481168Y-117468523D01*
X114527102Y-117283824D01*
X114530000Y-117241096D01*
X114530000Y-117040000D01*
X113280000Y-117040000D01*
X113280000Y-118040000D01*
X112780000Y-118040000D01*
X112780000Y-117040000D01*
X111530000Y-117040000D01*
X111530000Y-117241096D01*
X109844084Y-117241096D01*
X109825076Y-117219159D01*
X109825072Y-117219156D01*
X109825070Y-117219153D01*
X109716336Y-117124933D01*
X109716333Y-117124931D01*
X109716331Y-117124930D01*
X109585465Y-117065164D01*
X109585460Y-117065162D01*
X109585459Y-117065162D01*
X109518420Y-117045477D01*
X109518422Y-117045477D01*
X109518417Y-117045476D01*
X109470944Y-117038650D01*
X109376000Y-117025000D01*
X109124392Y-117025000D01*
X109124364Y-117025000D01*
X109109980Y-117025205D01*
X109102950Y-117025406D01*
X109102921Y-117025407D01*
X109102894Y-117025408D01*
X109093526Y-117025809D01*
X109088456Y-117026026D01*
X109088454Y-117026026D01*
X108947458Y-117054595D01*
X108947449Y-117054597D01*
X108947446Y-117054598D01*
X108947442Y-117054599D01*
X108947436Y-117054601D01*
X108882871Y-117077637D01*
X108881800Y-117078006D01*
X108881629Y-117078079D01*
X108754372Y-117145227D01*
X108739119Y-117156309D01*
X108716676Y-117169266D01*
X108664643Y-117192433D01*
X108639991Y-117200444D01*
X108614361Y-117205892D01*
X108584262Y-117212290D01*
X108558482Y-117215000D01*
X108501516Y-117215000D01*
X108475735Y-117212290D01*
X108420013Y-117200446D01*
X108395356Y-117192434D01*
X108343314Y-117169262D01*
X108320869Y-117156304D01*
X108274775Y-117122815D01*
X108255520Y-117105478D01*
X108217394Y-117063135D01*
X108202161Y-117042167D01*
X108173674Y-116992824D01*
X108163131Y-116969145D01*
X108144988Y-116913308D01*
X108141194Y-116896422D01*
X108141015Y-116896460D01*
X108140069Y-116891870D01*
X108112063Y-116794000D01*
X108100490Y-116753554D01*
X108071905Y-116689800D01*
X108059373Y-116670000D01*
X108030905Y-116625022D01*
X108011684Y-116557848D01*
X108031831Y-116490946D01*
X108039571Y-116480354D01*
X108061596Y-116453342D01*
X108119213Y-116413828D01*
X108184628Y-116410666D01*
X108271651Y-116430031D01*
X108341316Y-116435347D01*
X108484868Y-116425768D01*
X108484868Y-116425767D01*
X108489287Y-116425473D01*
X108489300Y-116425668D01*
X108498968Y-116425000D01*
X108558485Y-116425000D01*
X108584264Y-116427709D01*
X108595189Y-116430031D01*
X108639983Y-116439551D01*
X108664635Y-116447561D01*
X108738782Y-116480575D01*
X108839287Y-116513232D01*
X108839289Y-116513232D01*
X108839291Y-116513233D01*
X108846237Y-116514709D01*
X108889723Y-116523953D01*
X108994827Y-116535000D01*
X108994832Y-116535000D01*
X109375990Y-116535000D01*
X109376000Y-116535000D01*
X109483456Y-116523447D01*
X109534967Y-116512241D01*
X109569197Y-116500847D01*
X109637497Y-116478116D01*
X109637501Y-116478113D01*
X109637504Y-116478113D01*
X109758543Y-116400325D01*
X109811347Y-116354570D01*
X109905567Y-116245836D01*
X109965338Y-116114959D01*
X109985023Y-116047920D01*
X109985024Y-116047916D01*
X110005500Y-115905500D01*
X110005500Y-115364500D01*
X110025185Y-115297461D01*
X110077989Y-115251706D01*
X110129500Y-115240500D01*
X110548920Y-115240500D01*
X110646462Y-115221096D01*
X110693913Y-115211658D01*
X110784967Y-115173942D01*
X110830493Y-115155085D01*
X110830493Y-115155084D01*
X110830495Y-115155084D01*
X110893610Y-115112912D01*
X110960284Y-115092034D01*
X111027665Y-115110518D01*
X111031389Y-115112911D01*
X111094505Y-115155084D01*
X111094507Y-115155085D01*
X111094511Y-115155087D01*
X111231082Y-115211656D01*
X111231087Y-115211658D01*
X111231091Y-115211658D01*
X111231092Y-115211659D01*
X111376079Y-115240500D01*
X111376082Y-115240500D01*
X111376083Y-115240500D01*
X111523917Y-115240500D01*
X111537058Y-115240500D01*
X111604097Y-115260185D01*
X111648146Y-115309406D01*
X111662969Y-115339295D01*
X111782277Y-115487721D01*
X111782278Y-115487722D01*
X111851884Y-115543673D01*
X111891803Y-115601016D01*
X111894383Y-115670838D01*
X111858804Y-115730971D01*
X111851885Y-115736967D01*
X111782631Y-115792635D01*
X111663392Y-115940974D01*
X111663390Y-115940977D01*
X111578831Y-116111476D01*
X111532897Y-116296175D01*
X111530000Y-116338903D01*
X111530000Y-116540000D01*
X114530000Y-116540000D01*
X114530000Y-116338903D01*
X114527102Y-116296175D01*
X114481168Y-116111476D01*
X114396609Y-115940977D01*
X114396607Y-115940974D01*
X114277367Y-115792633D01*
X114277366Y-115792632D01*
X114208115Y-115736967D01*
X114168196Y-115679624D01*
X114165616Y-115609802D01*
X114201194Y-115549669D01*
X114208089Y-115543694D01*
X114277722Y-115487722D01*
X114397030Y-115339296D01*
X114411854Y-115309406D01*
X114459275Y-115258093D01*
X114522942Y-115240500D01*
X116671844Y-115240500D01*
X116738883Y-115260185D01*
X116744729Y-115264182D01*
X116827265Y-115324148D01*
X116827270Y-115324151D01*
X117000192Y-115401142D01*
X117000197Y-115401144D01*
X117185354Y-115440500D01*
X117185355Y-115440500D01*
X117374644Y-115440500D01*
X117374646Y-115440500D01*
X117559803Y-115401144D01*
X117732730Y-115324151D01*
X117885871Y-115212888D01*
X118012533Y-115072216D01*
X118107179Y-114908284D01*
X118165674Y-114728256D01*
X118185460Y-114540000D01*
X118165674Y-114351744D01*
X118107179Y-114171716D01*
X118012533Y-114007784D01*
X117885871Y-113867112D01*
X117885870Y-113867111D01*
X117732734Y-113755851D01*
X117732729Y-113755848D01*
X117559807Y-113678857D01*
X117559802Y-113678855D01*
X117380310Y-113640704D01*
X117374646Y-113639500D01*
X117185354Y-113639500D01*
X117179690Y-113640704D01*
X117000197Y-113678855D01*
X117000192Y-113678857D01*
X116888069Y-113728779D01*
X116837633Y-113739500D01*
X114522942Y-113739500D01*
X114455903Y-113719815D01*
X114411854Y-113670594D01*
X114397030Y-113640704D01*
X114277722Y-113492278D01*
X114277721Y-113492277D01*
X114208514Y-113436647D01*
X114168595Y-113379304D01*
X114166015Y-113309482D01*
X114201594Y-113249349D01*
X114208514Y-113243353D01*
X114217909Y-113235800D01*
X114277722Y-113187722D01*
X114397030Y-113039296D01*
X114465217Y-112901808D01*
X114507412Y-112853802D01*
X114563273Y-112816478D01*
X114628416Y-112772952D01*
X115332951Y-112068416D01*
X115375658Y-112004500D01*
X115415084Y-111945495D01*
X115471658Y-111808913D01*
X115500500Y-111663918D01*
X115500500Y-107755163D01*
X115520185Y-107688124D01*
X115572989Y-107642369D01*
X115642147Y-107632425D01*
X115705703Y-107661450D01*
G37*
%TD.AperFunction*%
%TD*%
%TA.AperFunction,Conductor*%
%TO.N,VDD*%
G36*
X100921541Y-110019685D02*
G01*
X100967296Y-110072489D01*
X100977240Y-110141647D01*
X100974707Y-110154441D01*
X100944894Y-110272166D01*
X100944890Y-110272187D01*
X100924357Y-110519994D01*
X100924357Y-110520005D01*
X100944890Y-110767812D01*
X100944892Y-110767824D01*
X101005936Y-111008881D01*
X101105826Y-111236606D01*
X101241833Y-111444782D01*
X101241836Y-111444785D01*
X101410256Y-111627738D01*
X101606491Y-111780474D01*
X101825190Y-111898828D01*
X102060386Y-111979571D01*
X102305665Y-112020500D01*
X102554335Y-112020500D01*
X102799614Y-111979571D01*
X103034810Y-111898828D01*
X103253509Y-111780474D01*
X103449744Y-111627738D01*
X103618164Y-111444785D01*
X103754173Y-111236607D01*
X103854063Y-111008881D01*
X103915108Y-110767821D01*
X103915109Y-110767812D01*
X103935643Y-110520005D01*
X103935643Y-110519994D01*
X103915109Y-110272187D01*
X103915108Y-110272183D01*
X103915108Y-110272179D01*
X103885293Y-110154441D01*
X103887917Y-110084620D01*
X103927873Y-110027303D01*
X103992474Y-110000686D01*
X104005498Y-110000000D01*
X106784151Y-110000000D01*
X106851190Y-110019685D01*
X106896945Y-110072489D01*
X106907471Y-110136959D01*
X106894540Y-110260000D01*
X106914326Y-110448256D01*
X106914327Y-110448259D01*
X106972818Y-110628277D01*
X106972821Y-110628284D01*
X107067467Y-110792216D01*
X107194129Y-110932888D01*
X107347265Y-111044148D01*
X107347270Y-111044151D01*
X107520192Y-111121142D01*
X107520197Y-111121144D01*
X107705354Y-111160500D01*
X107705355Y-111160500D01*
X107894644Y-111160500D01*
X107894646Y-111160500D01*
X108079803Y-111121144D01*
X108252730Y-111044151D01*
X108405871Y-110932888D01*
X108532533Y-110792216D01*
X108627179Y-110628284D01*
X108685674Y-110448256D01*
X108705460Y-110260000D01*
X108692528Y-110136959D01*
X108705098Y-110068232D01*
X108752830Y-110017208D01*
X108815849Y-110000000D01*
X109376000Y-110000000D01*
X109443039Y-110019685D01*
X109488794Y-110072489D01*
X109500000Y-110124000D01*
X109500000Y-115905500D01*
X109480315Y-115972539D01*
X109427511Y-116018294D01*
X109376000Y-116029500D01*
X108994827Y-116029500D01*
X108944391Y-116018779D01*
X108809807Y-115958857D01*
X108809802Y-115958855D01*
X108664001Y-115927865D01*
X108624646Y-115919500D01*
X108435354Y-115919500D01*
X108379778Y-115931312D01*
X108310113Y-115925996D01*
X108254380Y-115883858D01*
X108230275Y-115818278D01*
X108230000Y-115810022D01*
X108230000Y-114740000D01*
X106980000Y-114740000D01*
X106980000Y-116890000D01*
X107287998Y-116890000D01*
X107288000Y-116889999D01*
X107407325Y-116879391D01*
X107482263Y-116857949D01*
X107552131Y-116858432D01*
X107610647Y-116896612D01*
X107639232Y-116960366D01*
X107639694Y-116964192D01*
X107644326Y-117008256D01*
X107644327Y-117008259D01*
X107702818Y-117188277D01*
X107702821Y-117188284D01*
X107797467Y-117352216D01*
X107881086Y-117445084D01*
X107924129Y-117492888D01*
X108077265Y-117604148D01*
X108077270Y-117604151D01*
X108250192Y-117681142D01*
X108250197Y-117681144D01*
X108435354Y-117720500D01*
X108435355Y-117720500D01*
X108624644Y-117720500D01*
X108624646Y-117720500D01*
X108809803Y-117681144D01*
X108982730Y-117604151D01*
X109051506Y-117554181D01*
X109117313Y-117530702D01*
X109124392Y-117530500D01*
X109376000Y-117530500D01*
X109443039Y-117550185D01*
X109488794Y-117602989D01*
X109500000Y-117654500D01*
X109500000Y-118876000D01*
X109480315Y-118943039D01*
X109427511Y-118988794D01*
X109376000Y-119000000D01*
X100624500Y-119000000D01*
X100557461Y-118980315D01*
X100511706Y-118927511D01*
X100500500Y-118876000D01*
X100500500Y-115948000D01*
X105230000Y-115948000D01*
X105240608Y-116067325D01*
X105240609Y-116067328D01*
X105296557Y-116262861D01*
X105390721Y-116443129D01*
X105519246Y-116600753D01*
X105676870Y-116729278D01*
X105857138Y-116823442D01*
X106052671Y-116879390D01*
X106052674Y-116879391D01*
X106171999Y-116889999D01*
X106172002Y-116890000D01*
X106480000Y-116890000D01*
X106480000Y-114740000D01*
X105230000Y-114740000D01*
X105230000Y-115948000D01*
X100500500Y-115948000D01*
X100500500Y-113031999D01*
X105230000Y-113031999D01*
X105230000Y-114240000D01*
X106480000Y-114240000D01*
X106980000Y-114240000D01*
X108230000Y-114240000D01*
X108230000Y-113032002D01*
X108229999Y-113031999D01*
X108219391Y-112912674D01*
X108219390Y-112912671D01*
X108163442Y-112717138D01*
X108069278Y-112536870D01*
X107940753Y-112379246D01*
X107783129Y-112250721D01*
X107602861Y-112156557D01*
X107407328Y-112100609D01*
X107407325Y-112100608D01*
X107288000Y-112090000D01*
X106980000Y-112090000D01*
X106980000Y-114240000D01*
X106480000Y-114240000D01*
X106480000Y-112090000D01*
X106171999Y-112090000D01*
X106052674Y-112100608D01*
X106052671Y-112100609D01*
X105857138Y-112156557D01*
X105676870Y-112250721D01*
X105519246Y-112379246D01*
X105390721Y-112536870D01*
X105296557Y-112717138D01*
X105240609Y-112912671D01*
X105240608Y-112912674D01*
X105230000Y-113031999D01*
X100500500Y-113031999D01*
X100500500Y-110124000D01*
X100520185Y-110056961D01*
X100572989Y-110011206D01*
X100624500Y-110000000D01*
X100854502Y-110000000D01*
X100921541Y-110019685D01*
G37*
%TD.AperFunction*%
%TD*%
M02*
