%TF.GenerationSoftware,KiCad,Pcbnew,8.0.5-8.0.5-0~ubuntu20.04.1*%
%TF.CreationDate,2024-10-09T19:15:31-03:00*%
%TF.ProjectId,MicroSD,4d696372-6f53-4442-9e6b-696361645f70,Luis G_mez*%
%TF.SameCoordinates,Original*%
%TF.FileFunction,Copper,L2,Bot*%
%TF.FilePolarity,Positive*%
%FSLAX46Y46*%
G04 Gerber Fmt 4.6, Leading zero omitted, Abs format (unit mm)*
G04 Created by KiCad (PCBNEW 8.0.5-8.0.5-0~ubuntu20.04.1) date 2024-10-09 19:15:31*
%MOMM*%
%LPD*%
G01*
G04 APERTURE LIST*
%TA.AperFunction,ViaPad*%
%ADD10C,0.800000*%
%TD*%
%TA.AperFunction,ViaPad*%
%ADD11C,0.700000*%
%TD*%
%TA.AperFunction,ViaPad*%
%ADD12C,0.600000*%
%TD*%
%TA.AperFunction,Conductor*%
%ADD13C,0.500000*%
%TD*%
%TA.AperFunction,Conductor*%
%ADD14C,0.350000*%
%TD*%
G04 APERTURE END LIST*
D10*
%TO.N,GND*%
X121100000Y-132070000D03*
X125010000Y-127080000D03*
X121155000Y-124470000D03*
X125090000Y-119460000D03*
X108530000Y-116820000D03*
X103280000Y-124170000D03*
X107800000Y-110260000D03*
D11*
%TO.N,Net-(J1-CLK)*%
X116880000Y-129620000D03*
X103234999Y-125270000D03*
D12*
%TO.N,Net-(J1-DAT0)*%
X104030000Y-123070000D03*
X123505000Y-122020000D03*
D11*
%TO.N,Net-(R4-Pad1)*%
X119300000Y-114910000D03*
X124210000Y-123760000D03*
D10*
%TO.N,VDD*%
X117280000Y-114540000D03*
X124728008Y-116918008D03*
%TD*%
D13*
%TO.N,GND*%
X125010000Y-127080000D02*
X123790000Y-127080000D01*
X125010000Y-127080000D02*
X125030000Y-127060000D01*
X125030000Y-127060000D02*
X125030000Y-119520000D01*
X125030000Y-119520000D02*
X125090000Y-119460000D01*
X123790000Y-127080000D02*
X123080000Y-126370000D01*
X123080000Y-126370000D02*
X123080000Y-125150000D01*
X123080000Y-125150000D02*
X122400000Y-124470000D01*
X122400000Y-124470000D02*
X121155000Y-124470000D01*
%TO.N,VDD*%
X117280000Y-114540000D02*
X117740000Y-114080000D01*
X117740000Y-114080000D02*
X121890000Y-114080000D01*
X121890000Y-114080000D02*
X124728008Y-116918008D01*
D14*
%TO.N,Net-(R4-Pad1)*%
X124210000Y-123760000D02*
X124180000Y-123730000D01*
X124180000Y-117840000D02*
X121250000Y-114910000D01*
X124180000Y-123730000D02*
X124180000Y-117840000D01*
X121250000Y-114910000D02*
X119300000Y-114910000D01*
%TO.N,Net-(J1-CLK)*%
X103234999Y-125270000D02*
X114530000Y-125270000D01*
X114530000Y-125270000D02*
X115480000Y-126220000D01*
X115480000Y-126220000D02*
X115480000Y-128220000D01*
X115480000Y-128220000D02*
X116880000Y-129620000D01*
D13*
%TO.N,GND*%
X103960000Y-118790000D02*
X103280000Y-119470000D01*
X108530000Y-116820000D02*
X108530000Y-118110000D01*
X108530000Y-111070000D02*
X107800000Y-110340000D01*
X108530000Y-118110000D02*
X107850000Y-118790000D01*
X108530000Y-116820000D02*
X108530000Y-111070000D01*
X107850000Y-118790000D02*
X103960000Y-118790000D01*
X103280000Y-119470000D02*
X103280000Y-124170000D01*
X107800000Y-110340000D02*
X107800000Y-110260000D01*
D14*
%TO.N,Net-(J1-DAT0)*%
X123505000Y-122020000D02*
X121600000Y-122020000D01*
X121600000Y-122020000D02*
X120550000Y-123070000D01*
X120550000Y-123070000D02*
X104030000Y-123070000D01*
D13*
%TO.N,GND*%
X121100000Y-132070000D02*
X121155000Y-132015000D01*
X121155000Y-132015000D02*
X121155000Y-124470000D01*
X121155000Y-124470000D02*
X120855000Y-124170000D01*
X120855000Y-124170000D02*
X103280000Y-124170000D01*
%TD*%
%TA.AperFunction,Conductor*%
%TO.N,GND*%
G36*
X129442539Y-100520185D02*
G01*
X129488294Y-100572989D01*
X129499500Y-100624500D01*
X129499500Y-139375500D01*
X129479815Y-139442539D01*
X129427011Y-139488294D01*
X129375500Y-139499500D01*
X100624500Y-139499500D01*
X100557461Y-139479815D01*
X100511706Y-139427011D01*
X100500500Y-139375500D01*
X100500500Y-136901577D01*
X101749500Y-136901577D01*
X101749500Y-137098422D01*
X101780290Y-137292826D01*
X101841117Y-137480029D01*
X101930476Y-137655405D01*
X102046172Y-137814646D01*
X102185354Y-137953828D01*
X102344595Y-138069524D01*
X102427455Y-138111743D01*
X102519970Y-138158882D01*
X102519972Y-138158882D01*
X102519975Y-138158884D01*
X102620317Y-138191487D01*
X102707173Y-138219709D01*
X102901578Y-138250500D01*
X102901583Y-138250500D01*
X103098422Y-138250500D01*
X103292826Y-138219709D01*
X103480025Y-138158884D01*
X103655405Y-138069524D01*
X103814646Y-137953828D01*
X103953828Y-137814646D01*
X104069524Y-137655405D01*
X104158884Y-137480025D01*
X104219709Y-137292826D01*
X104226413Y-137250500D01*
X105748500Y-137250500D01*
X107250500Y-137250500D01*
X108248500Y-137250500D01*
X109750500Y-137250500D01*
X110748500Y-137250500D01*
X112250500Y-137250500D01*
X113248500Y-137250500D01*
X114750500Y-137250500D01*
X115748500Y-137250500D01*
X117250500Y-137250500D01*
X118248500Y-137250500D01*
X119750500Y-137250500D01*
X120748500Y-137250500D01*
X122250500Y-137250500D01*
X123248500Y-137250500D01*
X124750500Y-137250500D01*
X124750500Y-136901577D01*
X125879500Y-136901577D01*
X125879500Y-137098422D01*
X125910290Y-137292826D01*
X125971117Y-137480029D01*
X126060476Y-137655405D01*
X126176172Y-137814646D01*
X126315354Y-137953828D01*
X126474595Y-138069524D01*
X126557455Y-138111743D01*
X126649970Y-138158882D01*
X126649972Y-138158882D01*
X126649975Y-138158884D01*
X126750317Y-138191487D01*
X126837173Y-138219709D01*
X127031578Y-138250500D01*
X127031583Y-138250500D01*
X127228422Y-138250500D01*
X127422826Y-138219709D01*
X127610025Y-138158884D01*
X127785405Y-138069524D01*
X127944646Y-137953828D01*
X128083828Y-137814646D01*
X128199524Y-137655405D01*
X128288884Y-137480025D01*
X128349709Y-137292826D01*
X128356413Y-137250500D01*
X128380500Y-137098422D01*
X128380500Y-136901577D01*
X128349709Y-136707173D01*
X128288882Y-136519970D01*
X128199523Y-136344594D01*
X128083828Y-136185354D01*
X127944646Y-136046172D01*
X127785405Y-135930476D01*
X127610029Y-135841117D01*
X127422826Y-135780290D01*
X127228422Y-135749500D01*
X127228417Y-135749500D01*
X127031583Y-135749500D01*
X127031578Y-135749500D01*
X126837173Y-135780290D01*
X126649970Y-135841117D01*
X126474594Y-135930476D01*
X126383741Y-135996485D01*
X126315354Y-136046172D01*
X126315352Y-136046174D01*
X126315351Y-136046174D01*
X126176174Y-136185351D01*
X126176174Y-136185352D01*
X126176172Y-136185354D01*
X126126485Y-136253741D01*
X126060476Y-136344594D01*
X125971117Y-136519970D01*
X125910290Y-136707173D01*
X125879500Y-136901577D01*
X124750500Y-136901577D01*
X124750500Y-135748500D01*
X123248500Y-135748500D01*
X123248500Y-137250500D01*
X122250500Y-137250500D01*
X122250500Y-135748500D01*
X120748500Y-135748500D01*
X120748500Y-137250500D01*
X119750500Y-137250500D01*
X119750500Y-135748500D01*
X118248500Y-135748500D01*
X118248500Y-137250500D01*
X117250500Y-137250500D01*
X117250500Y-135748500D01*
X115748500Y-135748500D01*
X115748500Y-137250500D01*
X114750500Y-137250500D01*
X114750500Y-135748500D01*
X113248500Y-135748500D01*
X113248500Y-137250500D01*
X112250500Y-137250500D01*
X112250500Y-135748500D01*
X110748500Y-135748500D01*
X110748500Y-137250500D01*
X109750500Y-137250500D01*
X109750500Y-135748500D01*
X108248500Y-135748500D01*
X108248500Y-137250500D01*
X107250500Y-137250500D01*
X107250500Y-135748500D01*
X105748500Y-135748500D01*
X105748500Y-137250500D01*
X104226413Y-137250500D01*
X104250500Y-137098422D01*
X104250500Y-136901577D01*
X104219709Y-136707173D01*
X104158882Y-136519970D01*
X104069523Y-136344594D01*
X103953828Y-136185354D01*
X103814646Y-136046172D01*
X103655405Y-135930476D01*
X103480029Y-135841117D01*
X103292826Y-135780290D01*
X103098422Y-135749500D01*
X103098417Y-135749500D01*
X102901583Y-135749500D01*
X102901578Y-135749500D01*
X102707173Y-135780290D01*
X102519970Y-135841117D01*
X102344594Y-135930476D01*
X102253741Y-135996485D01*
X102185354Y-136046172D01*
X102185352Y-136046174D01*
X102185351Y-136046174D01*
X102046174Y-136185351D01*
X102046174Y-136185352D01*
X102046172Y-136185354D01*
X101996485Y-136253741D01*
X101930476Y-136344594D01*
X101841117Y-136519970D01*
X101780290Y-136707173D01*
X101749500Y-136901577D01*
X100500500Y-136901577D01*
X100500500Y-134750500D01*
X101498500Y-134750500D01*
X102250500Y-134750500D01*
X103248500Y-134750500D01*
X104750500Y-134750500D01*
X105748500Y-134750500D01*
X107250500Y-134750500D01*
X108248500Y-134750500D01*
X109750500Y-134750500D01*
X110748500Y-134750500D01*
X112250500Y-134750500D01*
X113248500Y-134750500D01*
X114750500Y-134750500D01*
X115748500Y-134750500D01*
X117250500Y-134750500D01*
X118248500Y-134750500D01*
X119750500Y-134750500D01*
X119750500Y-133299126D01*
X120748500Y-133299126D01*
X120748500Y-134750500D01*
X122250500Y-134750500D01*
X123248500Y-134750500D01*
X124750500Y-134750500D01*
X125748500Y-134750500D01*
X127250500Y-134750500D01*
X127250500Y-133248500D01*
X125748500Y-133248500D01*
X125748500Y-134750500D01*
X124750500Y-134750500D01*
X124750500Y-133248500D01*
X123248500Y-133248500D01*
X123248500Y-134750500D01*
X122250500Y-134750500D01*
X122250500Y-133248500D01*
X121584667Y-133248500D01*
X121460855Y-133296465D01*
X121438846Y-133302727D01*
X121229348Y-133341889D01*
X121206563Y-133344000D01*
X120993437Y-133344000D01*
X120970652Y-133341889D01*
X120761154Y-133302727D01*
X120748500Y-133299126D01*
X119750500Y-133299126D01*
X119750500Y-133248500D01*
X118248500Y-133248500D01*
X118248500Y-134750500D01*
X117250500Y-134750500D01*
X117250500Y-133248500D01*
X115748500Y-133248500D01*
X115748500Y-134750500D01*
X114750500Y-134750500D01*
X114750500Y-133248500D01*
X113248500Y-133248500D01*
X113248500Y-134750500D01*
X112250500Y-134750500D01*
X112250500Y-133248500D01*
X110748500Y-133248500D01*
X110748500Y-134750500D01*
X109750500Y-134750500D01*
X109750500Y-133248500D01*
X108248500Y-133248500D01*
X108248500Y-134750500D01*
X107250500Y-134750500D01*
X107250500Y-133248500D01*
X105748500Y-133248500D01*
X105748500Y-134750500D01*
X104750500Y-134750500D01*
X104750500Y-133248500D01*
X103248500Y-133248500D01*
X103248500Y-134750500D01*
X102250500Y-134750500D01*
X102250500Y-133248500D01*
X101498500Y-133248500D01*
X101498500Y-134750500D01*
X100500500Y-134750500D01*
X100500500Y-132250500D01*
X101498500Y-132250500D01*
X102250500Y-132250500D01*
X103248500Y-132250500D01*
X104750500Y-132250500D01*
X105748500Y-132250500D01*
X107250500Y-132250500D01*
X108248500Y-132250500D01*
X109750500Y-132250500D01*
X110748500Y-132250500D01*
X112250500Y-132250500D01*
X113248500Y-132250500D01*
X114750500Y-132250500D01*
X115748500Y-132250500D01*
X117250500Y-132250500D01*
X117250500Y-131431044D01*
X117151326Y-131452124D01*
X117144942Y-131453307D01*
X117106162Y-131459449D01*
X117099733Y-131460296D01*
X117047745Y-131465763D01*
X117041268Y-131466273D01*
X117002028Y-131468330D01*
X116995537Y-131468500D01*
X116764463Y-131468500D01*
X116757972Y-131468330D01*
X116718732Y-131466273D01*
X116712255Y-131465763D01*
X116660267Y-131460296D01*
X116653838Y-131459449D01*
X116615058Y-131453307D01*
X116608674Y-131452124D01*
X116382671Y-131404086D01*
X116376359Y-131402571D01*
X116338418Y-131392405D01*
X116332193Y-131390561D01*
X116282476Y-131374407D01*
X116276354Y-131372239D01*
X116239684Y-131358162D01*
X116233688Y-131355679D01*
X116022613Y-131261702D01*
X116016757Y-131258908D01*
X115981773Y-131241084D01*
X115976070Y-131237988D01*
X115930796Y-131211852D01*
X115925258Y-131208458D01*
X115892299Y-131187055D01*
X115886946Y-131183377D01*
X115748500Y-131082788D01*
X115748500Y-132250500D01*
X114750500Y-132250500D01*
X114750500Y-130862667D01*
X118248500Y-130862667D01*
X118248500Y-132250500D01*
X119750500Y-132250500D01*
X123248500Y-132250500D01*
X124750500Y-132250500D01*
X125748500Y-132250500D01*
X127250500Y-132250500D01*
X127250500Y-130748500D01*
X125748500Y-130748500D01*
X125748500Y-132250500D01*
X124750500Y-132250500D01*
X124750500Y-130748500D01*
X123248500Y-130748500D01*
X123248500Y-132250500D01*
X119750500Y-132250500D01*
X119750500Y-130840873D01*
X120748500Y-130840873D01*
X120761154Y-130837273D01*
X120970652Y-130798111D01*
X120993437Y-130796000D01*
X121206563Y-130796000D01*
X121229348Y-130798111D01*
X121438846Y-130837273D01*
X121460855Y-130843535D01*
X121659589Y-130920525D01*
X121680072Y-130930725D01*
X121861276Y-131042921D01*
X121879538Y-131056711D01*
X122037040Y-131200294D01*
X122052455Y-131217204D01*
X122180893Y-131387282D01*
X122192939Y-131406738D01*
X122250500Y-131522336D01*
X122250500Y-130748500D01*
X120748500Y-130748500D01*
X120748500Y-130840873D01*
X119750500Y-130840873D01*
X119750500Y-130748500D01*
X118349473Y-130748500D01*
X118335223Y-130766098D01*
X118331005Y-130771036D01*
X118248500Y-130862667D01*
X114750500Y-130862667D01*
X114750500Y-130748500D01*
X113248500Y-130748500D01*
X113248500Y-132250500D01*
X112250500Y-132250500D01*
X112250500Y-130748500D01*
X110748500Y-130748500D01*
X110748500Y-132250500D01*
X109750500Y-132250500D01*
X109750500Y-130748500D01*
X108248500Y-130748500D01*
X108248500Y-132250500D01*
X107250500Y-132250500D01*
X107250500Y-130748500D01*
X105748500Y-130748500D01*
X105748500Y-132250500D01*
X104750500Y-132250500D01*
X104750500Y-130748500D01*
X103248500Y-130748500D01*
X103248500Y-132250500D01*
X102250500Y-132250500D01*
X102250500Y-130748500D01*
X101498500Y-130748500D01*
X101498500Y-132250500D01*
X100500500Y-132250500D01*
X100500500Y-129750500D01*
X101498500Y-129750500D01*
X102250500Y-129750500D01*
X103248500Y-129750500D01*
X104750500Y-129750500D01*
X105748500Y-129750500D01*
X107250500Y-129750500D01*
X108248500Y-129750500D01*
X109750500Y-129750500D01*
X110748500Y-129750500D01*
X112250500Y-129750500D01*
X113248500Y-129750500D01*
X114643814Y-129750500D01*
X114232285Y-129338971D01*
X114228087Y-129334562D01*
X114203356Y-129307275D01*
X114199381Y-129302667D01*
X114168292Y-129264784D01*
X114164549Y-129259987D01*
X114142616Y-129230414D01*
X114139111Y-129225438D01*
X114037958Y-129074052D01*
X114034701Y-129068908D01*
X114015766Y-129037316D01*
X114012766Y-129032020D01*
X113989665Y-128988799D01*
X113986928Y-128983363D01*
X113971189Y-128950084D01*
X113968724Y-128944522D01*
X113899052Y-128776321D01*
X113896862Y-128770643D01*
X113884459Y-128735980D01*
X113882550Y-128730203D01*
X113868323Y-128683307D01*
X113866699Y-128677437D01*
X113857750Y-128641709D01*
X113856417Y-128635772D01*
X113820896Y-128457196D01*
X113819855Y-128451201D01*
X113814451Y-128414774D01*
X113813706Y-128408731D01*
X113808903Y-128359961D01*
X113808455Y-128353890D01*
X113806649Y-128317115D01*
X113806500Y-128311033D01*
X113806500Y-128248500D01*
X113248500Y-128248500D01*
X113248500Y-129750500D01*
X112250500Y-129750500D01*
X112250500Y-128248500D01*
X110748500Y-128248500D01*
X110748500Y-129750500D01*
X109750500Y-129750500D01*
X109750500Y-128248500D01*
X108248500Y-128248500D01*
X108248500Y-129750500D01*
X107250500Y-129750500D01*
X107250500Y-128248500D01*
X105748500Y-128248500D01*
X105748500Y-129750500D01*
X104750500Y-129750500D01*
X104750500Y-128248500D01*
X103248500Y-128248500D01*
X103248500Y-129750500D01*
X102250500Y-129750500D01*
X102250500Y-128248500D01*
X101498500Y-128248500D01*
X101498500Y-129750500D01*
X100500500Y-129750500D01*
X100500500Y-127250500D01*
X101498500Y-127250500D01*
X102250500Y-127250500D01*
X105748500Y-127250500D01*
X107250500Y-127250500D01*
X108248500Y-127250500D01*
X109750500Y-127250500D01*
X110748500Y-127250500D01*
X112250500Y-127250500D01*
X112250500Y-126943500D01*
X110748500Y-126943500D01*
X110748500Y-127250500D01*
X109750500Y-127250500D01*
X109750500Y-126943500D01*
X108248500Y-126943500D01*
X108248500Y-127250500D01*
X107250500Y-127250500D01*
X107250500Y-126943500D01*
X105748500Y-126943500D01*
X105748500Y-127250500D01*
X102250500Y-127250500D01*
X102250500Y-126839134D01*
X102247298Y-126837055D01*
X102241945Y-126833377D01*
X102055018Y-126697565D01*
X102049870Y-126693615D01*
X102019363Y-126668912D01*
X102014430Y-126664698D01*
X101975580Y-126629721D01*
X101970869Y-126625251D01*
X101943078Y-126597462D01*
X101938606Y-126592750D01*
X101783994Y-126421036D01*
X101779776Y-126416098D01*
X101755064Y-126385580D01*
X101751117Y-126380436D01*
X101720388Y-126338145D01*
X101716708Y-126332791D01*
X101695309Y-126299840D01*
X101691916Y-126294303D01*
X101576391Y-126094205D01*
X101573296Y-126088504D01*
X101555473Y-126053527D01*
X101552679Y-126047670D01*
X101531414Y-125999915D01*
X101528929Y-125993916D01*
X101514844Y-125957227D01*
X101512675Y-125951103D01*
X101498500Y-125907476D01*
X101498500Y-127250500D01*
X100500500Y-127250500D01*
X100500500Y-125270000D01*
X102379814Y-125270000D01*
X102398502Y-125447805D01*
X102398503Y-125447807D01*
X102453746Y-125617829D01*
X102453749Y-125617835D01*
X102543140Y-125772665D01*
X102558203Y-125789394D01*
X102662763Y-125905521D01*
X102662766Y-125905523D01*
X102662769Y-125905526D01*
X102807406Y-126010612D01*
X102970732Y-126083329D01*
X103145608Y-126120500D01*
X103145609Y-126120500D01*
X103324388Y-126120500D01*
X103324390Y-126120500D01*
X103499266Y-126083329D01*
X103662592Y-126010612D01*
X103719615Y-125969182D01*
X103785422Y-125945702D01*
X103792501Y-125945500D01*
X114198837Y-125945500D01*
X114265876Y-125965185D01*
X114286518Y-125981819D01*
X114768181Y-126463482D01*
X114801666Y-126524805D01*
X114804500Y-126551163D01*
X114804500Y-128286535D01*
X114830457Y-128417028D01*
X114830459Y-128417036D01*
X114881378Y-128539965D01*
X114881383Y-128539975D01*
X114955304Y-128650605D01*
X114955307Y-128650609D01*
X116005523Y-129700824D01*
X116039008Y-129762147D01*
X116041162Y-129775539D01*
X116043502Y-129797797D01*
X116043504Y-129797807D01*
X116098747Y-129967829D01*
X116098750Y-129967835D01*
X116188141Y-130122665D01*
X116229812Y-130168946D01*
X116307764Y-130255521D01*
X116307767Y-130255523D01*
X116307770Y-130255526D01*
X116452407Y-130360612D01*
X116615733Y-130433329D01*
X116790609Y-130470500D01*
X116790610Y-130470500D01*
X116969389Y-130470500D01*
X116969391Y-130470500D01*
X117144267Y-130433329D01*
X117307593Y-130360612D01*
X117452230Y-130255526D01*
X117571859Y-130122665D01*
X117661250Y-129967835D01*
X117716497Y-129797803D01*
X117735185Y-129620000D01*
X117716497Y-129442197D01*
X117672658Y-129307275D01*
X117661252Y-129272170D01*
X117661249Y-129272164D01*
X117658072Y-129266661D01*
X117571859Y-129117335D01*
X117525003Y-129065296D01*
X117452235Y-128984478D01*
X117452232Y-128984476D01*
X117452231Y-128984475D01*
X117452230Y-128984474D01*
X117307593Y-128879388D01*
X117144267Y-128806671D01*
X117144265Y-128806670D01*
X117024886Y-128781295D01*
X116963405Y-128748102D01*
X116962987Y-128747686D01*
X116592633Y-128377332D01*
X118248500Y-128377332D01*
X118331005Y-128468964D01*
X118335223Y-128473902D01*
X118359935Y-128504420D01*
X118363882Y-128509564D01*
X118394611Y-128551855D01*
X118398291Y-128557209D01*
X118419690Y-128590160D01*
X118423083Y-128595697D01*
X118538608Y-128795795D01*
X118541703Y-128801496D01*
X118559526Y-128836473D01*
X118562320Y-128842330D01*
X118583585Y-128890085D01*
X118586070Y-128896084D01*
X118600155Y-128932773D01*
X118602324Y-128938897D01*
X118673729Y-129158660D01*
X118675573Y-129164884D01*
X118685741Y-129202831D01*
X118687257Y-129209145D01*
X118698125Y-129260278D01*
X118699307Y-129266661D01*
X118705450Y-129305448D01*
X118706298Y-129311883D01*
X118730450Y-129541673D01*
X118730959Y-129548145D01*
X118733015Y-129587371D01*
X118733185Y-129593861D01*
X118733185Y-129646139D01*
X118733015Y-129652629D01*
X118730959Y-129691855D01*
X118730450Y-129698327D01*
X118724966Y-129750500D01*
X119750500Y-129750500D01*
X120748500Y-129750500D01*
X122250500Y-129750500D01*
X123248500Y-129750500D01*
X124750500Y-129750500D01*
X125748500Y-129750500D01*
X127250500Y-129750500D01*
X127250500Y-128248500D01*
X125748500Y-128248500D01*
X125748500Y-129750500D01*
X124750500Y-129750500D01*
X124750500Y-128327558D01*
X124671155Y-128312727D01*
X124649145Y-128306465D01*
X124499520Y-128248500D01*
X123248500Y-128248500D01*
X123248500Y-129750500D01*
X122250500Y-129750500D01*
X122250500Y-128248500D01*
X120748500Y-128248500D01*
X120748500Y-129750500D01*
X119750500Y-129750500D01*
X119750500Y-128248500D01*
X118248500Y-128248500D01*
X118248500Y-128377332D01*
X116592633Y-128377332D01*
X116191819Y-127976518D01*
X116158334Y-127915195D01*
X116155500Y-127888837D01*
X116155500Y-127250500D01*
X118248500Y-127250500D01*
X119750500Y-127250500D01*
X120748500Y-127250500D01*
X122250500Y-127250500D01*
X123248500Y-127250500D01*
X123746341Y-127250500D01*
X123731602Y-127091441D01*
X123731602Y-127068559D01*
X123751267Y-126856342D01*
X123755472Y-126833849D01*
X123813797Y-126628858D01*
X123822063Y-126607521D01*
X123917061Y-126416738D01*
X123929107Y-126397282D01*
X124057545Y-126227204D01*
X124072960Y-126210294D01*
X124230462Y-126066711D01*
X124248724Y-126052921D01*
X124271501Y-126038818D01*
X125748500Y-126038818D01*
X125771277Y-126052921D01*
X125789538Y-126066711D01*
X125947040Y-126210294D01*
X125962455Y-126227204D01*
X126090893Y-126397282D01*
X126102939Y-126416738D01*
X126197937Y-126607521D01*
X126206203Y-126628858D01*
X126264528Y-126833849D01*
X126268733Y-126856342D01*
X126288398Y-127068559D01*
X126288398Y-127091441D01*
X126273659Y-127250500D01*
X127250500Y-127250500D01*
X127250500Y-125748500D01*
X125748500Y-125748500D01*
X125748500Y-126038818D01*
X124271501Y-126038818D01*
X124429928Y-125940725D01*
X124450411Y-125930525D01*
X124649145Y-125853535D01*
X124671154Y-125847273D01*
X124750500Y-125832440D01*
X124750500Y-125748500D01*
X123248500Y-125748500D01*
X123248500Y-127250500D01*
X122250500Y-127250500D01*
X122250500Y-125748500D01*
X120748500Y-125748500D01*
X120748500Y-127250500D01*
X119750500Y-127250500D01*
X119750500Y-125748500D01*
X118248500Y-125748500D01*
X118248500Y-127250500D01*
X116155500Y-127250500D01*
X116155500Y-126153467D01*
X116141548Y-126083331D01*
X116141548Y-126083326D01*
X116129542Y-126022970D01*
X116129541Y-126022964D01*
X116078620Y-125900031D01*
X116078618Y-125900028D01*
X116078616Y-125900024D01*
X116004695Y-125789394D01*
X116004692Y-125789390D01*
X114965802Y-124750500D01*
X125772599Y-124750500D01*
X127250500Y-124750500D01*
X127250500Y-123248500D01*
X125987431Y-123248500D01*
X126003729Y-123298660D01*
X126005573Y-123304884D01*
X126015741Y-123342831D01*
X126017257Y-123349145D01*
X126028125Y-123400278D01*
X126029307Y-123406661D01*
X126035450Y-123445448D01*
X126036298Y-123451883D01*
X126060450Y-123681673D01*
X126060959Y-123688145D01*
X126063015Y-123727371D01*
X126063185Y-123733861D01*
X126063185Y-123786139D01*
X126063015Y-123792629D01*
X126060959Y-123831855D01*
X126060450Y-123838327D01*
X126036298Y-124068117D01*
X126035450Y-124074552D01*
X126029307Y-124113339D01*
X126028125Y-124119722D01*
X126017257Y-124170855D01*
X126015741Y-124177169D01*
X126005573Y-124215116D01*
X126003729Y-124221340D01*
X125932324Y-124441103D01*
X125930155Y-124447227D01*
X125916070Y-124483916D01*
X125913585Y-124489915D01*
X125892320Y-124537670D01*
X125889526Y-124543527D01*
X125871703Y-124578504D01*
X125868608Y-124584205D01*
X125772599Y-124750500D01*
X114965802Y-124750500D01*
X114960609Y-124745307D01*
X114960605Y-124745304D01*
X114849975Y-124671383D01*
X114849965Y-124671378D01*
X114727036Y-124620459D01*
X114727028Y-124620457D01*
X114596535Y-124594500D01*
X114596531Y-124594500D01*
X103792501Y-124594500D01*
X103725462Y-124574815D01*
X103719615Y-124570818D01*
X103662593Y-124529389D01*
X103662592Y-124529388D01*
X103499266Y-124456671D01*
X103499264Y-124456670D01*
X103371593Y-124429533D01*
X103324390Y-124419500D01*
X103145608Y-124419500D01*
X103114953Y-124426015D01*
X102970732Y-124456670D01*
X102970727Y-124456672D01*
X102807407Y-124529387D01*
X102662767Y-124634475D01*
X102543139Y-124767336D01*
X102453749Y-124922164D01*
X102453746Y-124922170D01*
X102398503Y-125092192D01*
X102398502Y-125092194D01*
X102379814Y-125270000D01*
X100500500Y-125270000D01*
X100500500Y-124632523D01*
X101498500Y-124632523D01*
X101512675Y-124588897D01*
X101514844Y-124582773D01*
X101528929Y-124546084D01*
X101531414Y-124540085D01*
X101552679Y-124492330D01*
X101555473Y-124486473D01*
X101573296Y-124451496D01*
X101576391Y-124445795D01*
X101691916Y-124245697D01*
X101695309Y-124240160D01*
X101716708Y-124207209D01*
X101720387Y-124201856D01*
X101751116Y-124159564D01*
X101755067Y-124154415D01*
X101779781Y-124123897D01*
X101783996Y-124118963D01*
X101938602Y-123947256D01*
X101943071Y-123942547D01*
X101970847Y-123914771D01*
X101975556Y-123910302D01*
X102014403Y-123875324D01*
X102019339Y-123871108D01*
X102046805Y-123848865D01*
X102083797Y-123718857D01*
X102092063Y-123697521D01*
X102187061Y-123506738D01*
X102199107Y-123487282D01*
X102250500Y-123419227D01*
X102250500Y-123339630D01*
X102240232Y-123248500D01*
X101498500Y-123248500D01*
X101498500Y-124632523D01*
X100500500Y-124632523D01*
X100500500Y-123069996D01*
X103224435Y-123069996D01*
X103224435Y-123070003D01*
X103244630Y-123249249D01*
X103244631Y-123249254D01*
X103304211Y-123419523D01*
X103400184Y-123572262D01*
X103527738Y-123699816D01*
X103680478Y-123795789D01*
X103850745Y-123855368D01*
X103850750Y-123855369D01*
X104029996Y-123875565D01*
X104030000Y-123875565D01*
X104030004Y-123875565D01*
X104209249Y-123855369D01*
X104209252Y-123855368D01*
X104209255Y-123855368D01*
X104379522Y-123795789D01*
X104429307Y-123764507D01*
X104495280Y-123745500D01*
X120616532Y-123745500D01*
X120616533Y-123745499D01*
X120747036Y-123719541D01*
X120869969Y-123668620D01*
X120980606Y-123594695D01*
X121843482Y-122731819D01*
X121904805Y-122698334D01*
X121931163Y-122695500D01*
X123039720Y-122695500D01*
X123105693Y-122714507D01*
X123155475Y-122745788D01*
X123155478Y-122745789D01*
X123325745Y-122805368D01*
X123394384Y-122813101D01*
X123458796Y-122840166D01*
X123498352Y-122897760D01*
X123504500Y-122936321D01*
X123504500Y-123247735D01*
X123487887Y-123309735D01*
X123428750Y-123412163D01*
X123373504Y-123582192D01*
X123373503Y-123582194D01*
X123354815Y-123760000D01*
X123373503Y-123937805D01*
X123373504Y-123937807D01*
X123428747Y-124107829D01*
X123428750Y-124107835D01*
X123518141Y-124262665D01*
X123559812Y-124308946D01*
X123637764Y-124395521D01*
X123637767Y-124395523D01*
X123637770Y-124395526D01*
X123782407Y-124500612D01*
X123945733Y-124573329D01*
X124120609Y-124610500D01*
X124120610Y-124610500D01*
X124299389Y-124610500D01*
X124299391Y-124610500D01*
X124474267Y-124573329D01*
X124637593Y-124500612D01*
X124782230Y-124395526D01*
X124901859Y-124262665D01*
X124991250Y-124107835D01*
X125046497Y-123937803D01*
X125065185Y-123760000D01*
X125046497Y-123582197D01*
X125004155Y-123451883D01*
X124991252Y-123412170D01*
X124991249Y-123412164D01*
X124991248Y-123412163D01*
X124901859Y-123257335D01*
X124887350Y-123241221D01*
X124857120Y-123178229D01*
X124855500Y-123158249D01*
X124855500Y-122250500D01*
X125853500Y-122250500D01*
X127250500Y-122250500D01*
X127250500Y-120748500D01*
X125853500Y-120748500D01*
X125853500Y-122250500D01*
X124855500Y-122250500D01*
X124855500Y-118440901D01*
X125861845Y-118440901D01*
X125869538Y-118446711D01*
X126027040Y-118590294D01*
X126042455Y-118607204D01*
X126170893Y-118777282D01*
X126182939Y-118796738D01*
X126277937Y-118987521D01*
X126286203Y-119008858D01*
X126344528Y-119213849D01*
X126348733Y-119236342D01*
X126368398Y-119448559D01*
X126368398Y-119471441D01*
X126348733Y-119683658D01*
X126344528Y-119706151D01*
X126331910Y-119750500D01*
X127250500Y-119750500D01*
X127250500Y-118248500D01*
X126084710Y-118248500D01*
X126058046Y-118278114D01*
X126053577Y-118282823D01*
X126025801Y-118310599D01*
X126021091Y-118315069D01*
X125982243Y-118350047D01*
X125977310Y-118354261D01*
X125946787Y-118378979D01*
X125941634Y-118382933D01*
X125861845Y-118440901D01*
X124855500Y-118440901D01*
X124855500Y-117911939D01*
X124875185Y-117844900D01*
X124927989Y-117799145D01*
X124953710Y-117790651D01*
X125007811Y-117779152D01*
X125180738Y-117702159D01*
X125333879Y-117590896D01*
X125460541Y-117450224D01*
X125555187Y-117286292D01*
X125613682Y-117106264D01*
X125633468Y-116918008D01*
X125613682Y-116729752D01*
X125555187Y-116549724D01*
X125460541Y-116385792D01*
X125333879Y-116245120D01*
X125302671Y-116222446D01*
X125180742Y-116133859D01*
X125180737Y-116133856D01*
X125007815Y-116056865D01*
X125007810Y-116056863D01*
X124942677Y-116043019D01*
X124881195Y-116009826D01*
X124880777Y-116009410D01*
X124619867Y-115748500D01*
X126228877Y-115748500D01*
X126248614Y-115772872D01*
X126252565Y-115778021D01*
X126283294Y-115820313D01*
X126286973Y-115825666D01*
X126308372Y-115858617D01*
X126311765Y-115864154D01*
X126432545Y-116073354D01*
X126435640Y-116079055D01*
X126453463Y-116114032D01*
X126456257Y-116119889D01*
X126477522Y-116167644D01*
X126480007Y-116173643D01*
X126494092Y-116210332D01*
X126496261Y-116216456D01*
X126570915Y-116446217D01*
X126572759Y-116452443D01*
X126582928Y-116490396D01*
X126584444Y-116496712D01*
X126595311Y-116547847D01*
X126596494Y-116554227D01*
X126602636Y-116593010D01*
X126603483Y-116599445D01*
X126628733Y-116839685D01*
X126629242Y-116846155D01*
X126631298Y-116885380D01*
X126631468Y-116891871D01*
X126631468Y-116944145D01*
X126631298Y-116950636D01*
X126629242Y-116989861D01*
X126628733Y-116996331D01*
X126603483Y-117236571D01*
X126602636Y-117243006D01*
X126601449Y-117250500D01*
X127250500Y-117250500D01*
X127250500Y-115748500D01*
X126228877Y-115748500D01*
X124619867Y-115748500D01*
X123621868Y-114750500D01*
X125748500Y-114750500D01*
X127250500Y-114750500D01*
X127250500Y-113248500D01*
X125748500Y-113248500D01*
X125748500Y-114750500D01*
X123621868Y-114750500D01*
X122368421Y-113497052D01*
X122368414Y-113497046D01*
X122294729Y-113447812D01*
X122294729Y-113447813D01*
X122245491Y-113414913D01*
X122108917Y-113358343D01*
X122108907Y-113358340D01*
X121963920Y-113329500D01*
X121963918Y-113329500D01*
X117813917Y-113329500D01*
X117666082Y-113329500D01*
X117666080Y-113329500D01*
X117521092Y-113358340D01*
X117521082Y-113358343D01*
X117384511Y-113414912D01*
X117384498Y-113414919D01*
X117261587Y-113497046D01*
X117261582Y-113497050D01*
X117127227Y-113631403D01*
X117065904Y-113664887D01*
X117065329Y-113665011D01*
X117000196Y-113678856D01*
X117000192Y-113678857D01*
X116827270Y-113755848D01*
X116827265Y-113755851D01*
X116674129Y-113867111D01*
X116547466Y-114007785D01*
X116452821Y-114171715D01*
X116452818Y-114171722D01*
X116394327Y-114351740D01*
X116394326Y-114351744D01*
X116374540Y-114540000D01*
X116394326Y-114728256D01*
X116394327Y-114728259D01*
X116452818Y-114908277D01*
X116452821Y-114908284D01*
X116547467Y-115072216D01*
X116674129Y-115212888D01*
X116827265Y-115324148D01*
X116827270Y-115324151D01*
X117000192Y-115401142D01*
X117000197Y-115401144D01*
X117185354Y-115440500D01*
X117185355Y-115440500D01*
X117374644Y-115440500D01*
X117374646Y-115440500D01*
X117559803Y-115401144D01*
X117732730Y-115324151D01*
X117885871Y-115212888D01*
X118012533Y-115072216D01*
X118107179Y-114908284D01*
X118107182Y-114908273D01*
X118109058Y-114904062D01*
X118154310Y-114850826D01*
X118221159Y-114830506D01*
X118222337Y-114830500D01*
X118324809Y-114830500D01*
X118391848Y-114850185D01*
X118437603Y-114902989D01*
X118448130Y-114941538D01*
X118463503Y-115087805D01*
X118463504Y-115087807D01*
X118518747Y-115257829D01*
X118518750Y-115257835D01*
X118608141Y-115412665D01*
X118633204Y-115440500D01*
X118727764Y-115545521D01*
X118727767Y-115545523D01*
X118727770Y-115545526D01*
X118872407Y-115650612D01*
X119035733Y-115723329D01*
X119210609Y-115760500D01*
X119210610Y-115760500D01*
X119389389Y-115760500D01*
X119389391Y-115760500D01*
X119564267Y-115723329D01*
X119727593Y-115650612D01*
X119784616Y-115609182D01*
X119850423Y-115585702D01*
X119857502Y-115585500D01*
X120918837Y-115585500D01*
X120985876Y-115605185D01*
X121006518Y-115621819D01*
X123468181Y-118083482D01*
X123501666Y-118144805D01*
X123504500Y-118171163D01*
X123504500Y-121103677D01*
X123484815Y-121170716D01*
X123432011Y-121216471D01*
X123394384Y-121226897D01*
X123325750Y-121234630D01*
X123155476Y-121294211D01*
X123105693Y-121325493D01*
X123039720Y-121344500D01*
X121533467Y-121344500D01*
X121402969Y-121370458D01*
X121402959Y-121370461D01*
X121280030Y-121421380D01*
X121280027Y-121421381D01*
X121191228Y-121480715D01*
X121191227Y-121480717D01*
X121169678Y-121495114D01*
X121169391Y-121495307D01*
X120306518Y-122358181D01*
X120245195Y-122391666D01*
X120218837Y-122394500D01*
X104495280Y-122394500D01*
X104429307Y-122375493D01*
X104379524Y-122344211D01*
X104209254Y-122284631D01*
X104209249Y-122284630D01*
X104030004Y-122264435D01*
X104029996Y-122264435D01*
X103850750Y-122284630D01*
X103850745Y-122284631D01*
X103680476Y-122344211D01*
X103527737Y-122440184D01*
X103400184Y-122567737D01*
X103304211Y-122720476D01*
X103244631Y-122890745D01*
X103244630Y-122890750D01*
X103224435Y-123069996D01*
X100500500Y-123069996D01*
X100500500Y-122250500D01*
X101498500Y-122250500D01*
X102250500Y-122250500D01*
X102250500Y-121444543D01*
X103248500Y-121444543D01*
X103272688Y-121432895D01*
X103279035Y-121430055D01*
X103317921Y-121413947D01*
X103324422Y-121411465D01*
X103547566Y-121333384D01*
X103554193Y-121331272D01*
X103594642Y-121319619D01*
X103601379Y-121317881D01*
X103655989Y-121305418D01*
X103662809Y-121304062D01*
X103704293Y-121297014D01*
X103711180Y-121296042D01*
X103946092Y-121269575D01*
X103953021Y-121268990D01*
X103995039Y-121266630D01*
X104001993Y-121266435D01*
X104058007Y-121266435D01*
X104064961Y-121266630D01*
X104106979Y-121268990D01*
X104113908Y-121269575D01*
X104348820Y-121296042D01*
X104355707Y-121297014D01*
X104397191Y-121304062D01*
X104404011Y-121305418D01*
X104458621Y-121317881D01*
X104465358Y-121319619D01*
X104505807Y-121331272D01*
X104512434Y-121333384D01*
X104692810Y-121396500D01*
X104750500Y-121396500D01*
X105748500Y-121396500D01*
X107250500Y-121396500D01*
X108248500Y-121396500D01*
X109750500Y-121396500D01*
X110748500Y-121396500D01*
X112250500Y-121396500D01*
X113248500Y-121396500D01*
X114750500Y-121396500D01*
X115748500Y-121396500D01*
X117250500Y-121396500D01*
X118248500Y-121396500D01*
X119750500Y-121396500D01*
X119750500Y-120748500D01*
X118248500Y-120748500D01*
X118248500Y-121396500D01*
X117250500Y-121396500D01*
X117250500Y-120748500D01*
X115748500Y-120748500D01*
X115748500Y-121396500D01*
X114750500Y-121396500D01*
X114750500Y-120748500D01*
X113248500Y-120748500D01*
X113248500Y-121396500D01*
X112250500Y-121396500D01*
X112250500Y-120748500D01*
X110748500Y-120748500D01*
X110748500Y-121396500D01*
X109750500Y-121396500D01*
X109750500Y-120748500D01*
X108248500Y-120748500D01*
X108248500Y-121396500D01*
X107250500Y-121396500D01*
X107250500Y-120748500D01*
X105748500Y-120748500D01*
X105748500Y-121396500D01*
X104750500Y-121396500D01*
X104750500Y-120748500D01*
X103248500Y-120748500D01*
X103248500Y-121444543D01*
X102250500Y-121444543D01*
X102250500Y-120748500D01*
X101498500Y-120748500D01*
X101498500Y-122250500D01*
X100500500Y-122250500D01*
X100500500Y-119750500D01*
X101498500Y-119750500D01*
X102250500Y-119750500D01*
X103248500Y-119750500D01*
X104750500Y-119750500D01*
X105748500Y-119750500D01*
X107250500Y-119750500D01*
X108248500Y-119750500D01*
X109750500Y-119750500D01*
X110748500Y-119750500D01*
X112250500Y-119750500D01*
X113248500Y-119750500D01*
X114750500Y-119750500D01*
X115748500Y-119750500D01*
X117250500Y-119750500D01*
X118248500Y-119750500D01*
X119750500Y-119750500D01*
X120748500Y-119750500D01*
X122250500Y-119750500D01*
X122250500Y-118277185D01*
X122221815Y-118248500D01*
X120748500Y-118248500D01*
X120748500Y-119750500D01*
X119750500Y-119750500D01*
X119750500Y-118248500D01*
X118248500Y-118248500D01*
X118248500Y-119750500D01*
X117250500Y-119750500D01*
X117250500Y-118248500D01*
X115748500Y-118248500D01*
X115748500Y-119750500D01*
X114750500Y-119750500D01*
X114750500Y-118248500D01*
X113248500Y-118248500D01*
X113248500Y-119750500D01*
X112250500Y-119750500D01*
X112250500Y-118248500D01*
X110748500Y-118248500D01*
X110748500Y-119750500D01*
X109750500Y-119750500D01*
X109750500Y-118248500D01*
X108248500Y-118248500D01*
X108248500Y-119750500D01*
X107250500Y-119750500D01*
X107250500Y-118248500D01*
X105748500Y-118248500D01*
X105748500Y-119750500D01*
X104750500Y-119750500D01*
X104750500Y-118248500D01*
X103248500Y-118248500D01*
X103248500Y-119750500D01*
X102250500Y-119750500D01*
X102250500Y-118248500D01*
X101498500Y-118248500D01*
X101498500Y-119750500D01*
X100500500Y-119750500D01*
X100500500Y-117250500D01*
X101498500Y-117250500D01*
X102250500Y-117250500D01*
X103248500Y-117250500D01*
X104750500Y-117250500D01*
X105748500Y-117250500D01*
X107250500Y-117250500D01*
X110748500Y-117250500D01*
X112250500Y-117250500D01*
X113248500Y-117250500D01*
X114750500Y-117250500D01*
X115748500Y-117250500D01*
X117250500Y-117250500D01*
X118248500Y-117250500D01*
X119750500Y-117250500D01*
X119750500Y-116704039D01*
X119571326Y-116742124D01*
X119564942Y-116743307D01*
X119526162Y-116749449D01*
X119519733Y-116750296D01*
X119467745Y-116755763D01*
X119461268Y-116756273D01*
X119422028Y-116758330D01*
X119415537Y-116758500D01*
X119184463Y-116758500D01*
X119177972Y-116758330D01*
X119138732Y-116756273D01*
X119132255Y-116755763D01*
X119080267Y-116750296D01*
X119073838Y-116749449D01*
X119035058Y-116743307D01*
X119028674Y-116742124D01*
X118802671Y-116694086D01*
X118796359Y-116692571D01*
X118758418Y-116682405D01*
X118752193Y-116680561D01*
X118702476Y-116664407D01*
X118696354Y-116662239D01*
X118659684Y-116648162D01*
X118653688Y-116645679D01*
X118442613Y-116551702D01*
X118436757Y-116548908D01*
X118401773Y-116531084D01*
X118396070Y-116527988D01*
X118350796Y-116501852D01*
X118345258Y-116498458D01*
X118312299Y-116477055D01*
X118306946Y-116473377D01*
X118248500Y-116430912D01*
X118248500Y-117250500D01*
X117250500Y-117250500D01*
X117250500Y-116438500D01*
X117159208Y-116438500D01*
X117152717Y-116438330D01*
X117113477Y-116436273D01*
X117107000Y-116435763D01*
X117055012Y-116430296D01*
X117048582Y-116429449D01*
X117009803Y-116423307D01*
X117003420Y-116422124D01*
X116767140Y-116371902D01*
X116760828Y-116370387D01*
X116722895Y-116360223D01*
X116716674Y-116358380D01*
X116666954Y-116342227D01*
X116660829Y-116340058D01*
X116624148Y-116325977D01*
X116618151Y-116323493D01*
X116397472Y-116225238D01*
X116391617Y-116222446D01*
X116356636Y-116204624D01*
X116350930Y-116201526D01*
X116305658Y-116175390D01*
X116300123Y-116171998D01*
X116267166Y-116150597D01*
X116261813Y-116146918D01*
X116066374Y-116004924D01*
X116061221Y-116000971D01*
X116030698Y-115976253D01*
X116025765Y-115972039D01*
X115986917Y-115937061D01*
X115982207Y-115932591D01*
X115954431Y-115904815D01*
X115949962Y-115900106D01*
X115813455Y-115748500D01*
X115748500Y-115748500D01*
X115748500Y-117250500D01*
X114750500Y-117250500D01*
X114750500Y-115748500D01*
X113248500Y-115748500D01*
X113248500Y-117250500D01*
X112250500Y-117250500D01*
X112250500Y-115748500D01*
X110748500Y-115748500D01*
X110748500Y-117250500D01*
X107250500Y-117250500D01*
X107250500Y-115748500D01*
X105748500Y-115748500D01*
X105748500Y-117250500D01*
X104750500Y-117250500D01*
X104750500Y-115748500D01*
X103248500Y-115748500D01*
X103248500Y-117250500D01*
X102250500Y-117250500D01*
X102250500Y-115748500D01*
X101498500Y-115748500D01*
X101498500Y-117250500D01*
X100500500Y-117250500D01*
X100500500Y-114750500D01*
X101498500Y-114750500D01*
X102250500Y-114750500D01*
X103248500Y-114750500D01*
X104750500Y-114750500D01*
X105748500Y-114750500D01*
X107250500Y-114750500D01*
X108248500Y-114750500D01*
X109750500Y-114750500D01*
X110748500Y-114750500D01*
X112250500Y-114750500D01*
X113248500Y-114750500D01*
X114750500Y-114750500D01*
X114750500Y-113248500D01*
X123531253Y-113248500D01*
X124750500Y-114467747D01*
X124750500Y-113248500D01*
X123531253Y-113248500D01*
X114750500Y-113248500D01*
X113248500Y-113248500D01*
X113248500Y-114750500D01*
X112250500Y-114750500D01*
X112250500Y-113248500D01*
X110748500Y-113248500D01*
X110748500Y-114750500D01*
X109750500Y-114750500D01*
X109750500Y-113248500D01*
X108248500Y-113248500D01*
X108248500Y-114750500D01*
X107250500Y-114750500D01*
X107250500Y-113248500D01*
X105748500Y-113248500D01*
X105748500Y-114750500D01*
X104750500Y-114750500D01*
X104750500Y-113248500D01*
X103248500Y-113248500D01*
X103248500Y-114750500D01*
X102250500Y-114750500D01*
X102250500Y-113248500D01*
X101498500Y-113248500D01*
X101498500Y-114750500D01*
X100500500Y-114750500D01*
X100500500Y-112250500D01*
X101498500Y-112250500D01*
X102250500Y-112250500D01*
X103248500Y-112250500D01*
X104750500Y-112250500D01*
X105748500Y-112250500D01*
X107250500Y-112250500D01*
X107250500Y-111452510D01*
X108248500Y-111452510D01*
X108248500Y-112250500D01*
X109750500Y-112250500D01*
X110748500Y-112250500D01*
X112250500Y-112250500D01*
X113248500Y-112250500D01*
X114750500Y-112250500D01*
X115748500Y-112250500D01*
X117250500Y-112250500D01*
X118248500Y-112250500D01*
X119750500Y-112250500D01*
X120748500Y-112250500D01*
X122250500Y-112250500D01*
X123248500Y-112250500D01*
X124750500Y-112250500D01*
X125748500Y-112250500D01*
X127250500Y-112250500D01*
X127250500Y-110748500D01*
X125748500Y-110748500D01*
X125748500Y-112250500D01*
X124750500Y-112250500D01*
X124750500Y-110748500D01*
X123248500Y-110748500D01*
X123248500Y-112250500D01*
X122250500Y-112250500D01*
X122250500Y-110748500D01*
X120748500Y-110748500D01*
X120748500Y-112250500D01*
X119750500Y-112250500D01*
X119750500Y-110748500D01*
X118248500Y-110748500D01*
X118248500Y-112250500D01*
X117250500Y-112250500D01*
X117250500Y-110748500D01*
X115748500Y-110748500D01*
X115748500Y-112250500D01*
X114750500Y-112250500D01*
X114750500Y-110748500D01*
X113248500Y-110748500D01*
X113248500Y-112250500D01*
X112250500Y-112250500D01*
X112250500Y-110748500D01*
X110748500Y-110748500D01*
X110748500Y-112250500D01*
X109750500Y-112250500D01*
X109750500Y-110748500D01*
X108979960Y-110748500D01*
X108892939Y-110923262D01*
X108880893Y-110942718D01*
X108752455Y-111112796D01*
X108737040Y-111129706D01*
X108579538Y-111273289D01*
X108561276Y-111287079D01*
X108380072Y-111399275D01*
X108359589Y-111409475D01*
X108248500Y-111452510D01*
X107250500Y-111452510D01*
X107250500Y-111413383D01*
X107240411Y-111409475D01*
X107219928Y-111399275D01*
X107038724Y-111287079D01*
X107020462Y-111273289D01*
X106862960Y-111129706D01*
X106847545Y-111112796D01*
X106719107Y-110942718D01*
X106707061Y-110923262D01*
X106620040Y-110748500D01*
X105748500Y-110748500D01*
X105748500Y-112250500D01*
X104750500Y-112250500D01*
X104750500Y-110748500D01*
X103248500Y-110748500D01*
X103248500Y-112250500D01*
X102250500Y-112250500D01*
X102250500Y-110748500D01*
X101498500Y-110748500D01*
X101498500Y-112250500D01*
X100500500Y-112250500D01*
X100500500Y-109750500D01*
X101498500Y-109750500D01*
X102250500Y-109750500D01*
X103248500Y-109750500D01*
X104750500Y-109750500D01*
X105748500Y-109750500D01*
X106630497Y-109750500D01*
X106707061Y-109596738D01*
X106719107Y-109577282D01*
X106847545Y-109407204D01*
X106862960Y-109390294D01*
X107020462Y-109246711D01*
X107038724Y-109232921D01*
X107219928Y-109120725D01*
X107240410Y-109110526D01*
X107250500Y-109106617D01*
X107250500Y-109067489D01*
X108248500Y-109067489D01*
X108359589Y-109110526D01*
X108380072Y-109120725D01*
X108561276Y-109232921D01*
X108579538Y-109246711D01*
X108737040Y-109390294D01*
X108752455Y-109407204D01*
X108880893Y-109577282D01*
X108892939Y-109596738D01*
X108969503Y-109750500D01*
X109750500Y-109750500D01*
X110748500Y-109750500D01*
X112250500Y-109750500D01*
X113248500Y-109750500D01*
X114750500Y-109750500D01*
X115748500Y-109750500D01*
X117250500Y-109750500D01*
X118248500Y-109750500D01*
X119750500Y-109750500D01*
X120748500Y-109750500D01*
X122250500Y-109750500D01*
X123248500Y-109750500D01*
X124750500Y-109750500D01*
X125748500Y-109750500D01*
X127250500Y-109750500D01*
X127250500Y-108248500D01*
X125748500Y-108248500D01*
X125748500Y-109750500D01*
X124750500Y-109750500D01*
X124750500Y-108248500D01*
X123248500Y-108248500D01*
X123248500Y-109750500D01*
X122250500Y-109750500D01*
X122250500Y-108248500D01*
X120748500Y-108248500D01*
X120748500Y-109750500D01*
X119750500Y-109750500D01*
X119750500Y-108248500D01*
X118248500Y-108248500D01*
X118248500Y-109750500D01*
X117250500Y-109750500D01*
X117250500Y-108248500D01*
X115748500Y-108248500D01*
X115748500Y-109750500D01*
X114750500Y-109750500D01*
X114750500Y-108248500D01*
X113248500Y-108248500D01*
X113248500Y-109750500D01*
X112250500Y-109750500D01*
X112250500Y-108248500D01*
X110748500Y-108248500D01*
X110748500Y-109750500D01*
X109750500Y-109750500D01*
X109750500Y-108248500D01*
X108248500Y-108248500D01*
X108248500Y-109067489D01*
X107250500Y-109067489D01*
X107250500Y-108248500D01*
X105748500Y-108248500D01*
X105748500Y-109750500D01*
X104750500Y-109750500D01*
X104750500Y-108248500D01*
X103248500Y-108248500D01*
X103248500Y-109750500D01*
X102250500Y-109750500D01*
X102250500Y-108248500D01*
X101498500Y-108248500D01*
X101498500Y-109750500D01*
X100500500Y-109750500D01*
X100500500Y-107250500D01*
X101498500Y-107250500D01*
X102250500Y-107250500D01*
X103248500Y-107250500D01*
X104750500Y-107250500D01*
X105748500Y-107250500D01*
X107250500Y-107250500D01*
X108248500Y-107250500D01*
X109750500Y-107250500D01*
X110748500Y-107250500D01*
X112250500Y-107250500D01*
X113248500Y-107250500D01*
X114750500Y-107250500D01*
X115748500Y-107250500D01*
X117250500Y-107250500D01*
X118248500Y-107250500D01*
X119750500Y-107250500D01*
X120748500Y-107250500D01*
X122250500Y-107250500D01*
X123248500Y-107250500D01*
X124750500Y-107250500D01*
X125748500Y-107250500D01*
X127250500Y-107250500D01*
X127250500Y-105748500D01*
X125748500Y-105748500D01*
X125748500Y-107250500D01*
X124750500Y-107250500D01*
X124750500Y-105748500D01*
X123248500Y-105748500D01*
X123248500Y-107250500D01*
X122250500Y-107250500D01*
X122250500Y-105748500D01*
X120748500Y-105748500D01*
X120748500Y-107250500D01*
X119750500Y-107250500D01*
X119750500Y-105748500D01*
X118248500Y-105748500D01*
X118248500Y-107250500D01*
X117250500Y-107250500D01*
X117250500Y-105748500D01*
X115748500Y-105748500D01*
X115748500Y-107250500D01*
X114750500Y-107250500D01*
X114750500Y-105748500D01*
X113248500Y-105748500D01*
X113248500Y-107250500D01*
X112250500Y-107250500D01*
X112250500Y-105748500D01*
X110748500Y-105748500D01*
X110748500Y-107250500D01*
X109750500Y-107250500D01*
X109750500Y-105748500D01*
X108248500Y-105748500D01*
X108248500Y-107250500D01*
X107250500Y-107250500D01*
X107250500Y-105748500D01*
X105748500Y-105748500D01*
X105748500Y-107250500D01*
X104750500Y-107250500D01*
X104750500Y-105748500D01*
X103248500Y-105748500D01*
X103248500Y-107250500D01*
X102250500Y-107250500D01*
X102250500Y-105748500D01*
X101498500Y-105748500D01*
X101498500Y-107250500D01*
X100500500Y-107250500D01*
X100500500Y-104750500D01*
X105748500Y-104750500D01*
X107250500Y-104750500D01*
X108248500Y-104750500D01*
X109750500Y-104750500D01*
X110748500Y-104750500D01*
X112250500Y-104750500D01*
X113248500Y-104750500D01*
X114750500Y-104750500D01*
X115748500Y-104750500D01*
X117250500Y-104750500D01*
X118248500Y-104750500D01*
X119750500Y-104750500D01*
X120748500Y-104750500D01*
X122250500Y-104750500D01*
X123248500Y-104750500D01*
X124750500Y-104750500D01*
X124750500Y-103248500D01*
X123248500Y-103248500D01*
X123248500Y-104750500D01*
X122250500Y-104750500D01*
X122250500Y-103248500D01*
X120748500Y-103248500D01*
X120748500Y-104750500D01*
X119750500Y-104750500D01*
X119750500Y-103248500D01*
X118248500Y-103248500D01*
X118248500Y-104750500D01*
X117250500Y-104750500D01*
X117250500Y-103248500D01*
X115748500Y-103248500D01*
X115748500Y-104750500D01*
X114750500Y-104750500D01*
X114750500Y-103248500D01*
X113248500Y-103248500D01*
X113248500Y-104750500D01*
X112250500Y-104750500D01*
X112250500Y-103248500D01*
X110748500Y-103248500D01*
X110748500Y-104750500D01*
X109750500Y-104750500D01*
X109750500Y-103248500D01*
X108248500Y-103248500D01*
X108248500Y-104750500D01*
X107250500Y-104750500D01*
X107250500Y-103248500D01*
X105748500Y-103248500D01*
X105748500Y-104750500D01*
X100500500Y-104750500D01*
X100500500Y-102901577D01*
X101749500Y-102901577D01*
X101749500Y-103098422D01*
X101780290Y-103292826D01*
X101841117Y-103480029D01*
X101851306Y-103500025D01*
X101930476Y-103655405D01*
X102046172Y-103814646D01*
X102185354Y-103953828D01*
X102344595Y-104069524D01*
X102427455Y-104111743D01*
X102519970Y-104158882D01*
X102519972Y-104158882D01*
X102519975Y-104158884D01*
X102620317Y-104191487D01*
X102707173Y-104219709D01*
X102901578Y-104250500D01*
X102901583Y-104250500D01*
X103098422Y-104250500D01*
X103292826Y-104219709D01*
X103480025Y-104158884D01*
X103655405Y-104069524D01*
X103814646Y-103953828D01*
X103953828Y-103814646D01*
X104069524Y-103655405D01*
X104158884Y-103480025D01*
X104219709Y-103292826D01*
X104250500Y-103098422D01*
X104250500Y-102921577D01*
X125779500Y-102921577D01*
X125779500Y-103118422D01*
X125810290Y-103312826D01*
X125871117Y-103500029D01*
X125960476Y-103675405D01*
X126076172Y-103834646D01*
X126215354Y-103973828D01*
X126374595Y-104089524D01*
X126457455Y-104131743D01*
X126549970Y-104178882D01*
X126549972Y-104178882D01*
X126549975Y-104178884D01*
X126650317Y-104211487D01*
X126737173Y-104239709D01*
X126931578Y-104270500D01*
X126931583Y-104270500D01*
X127128422Y-104270500D01*
X127322826Y-104239709D01*
X127384379Y-104219709D01*
X127510025Y-104178884D01*
X127685405Y-104089524D01*
X127844646Y-103973828D01*
X127983828Y-103834646D01*
X128099524Y-103675405D01*
X128188884Y-103500025D01*
X128249709Y-103312826D01*
X128259897Y-103248500D01*
X128280500Y-103118422D01*
X128280500Y-102921577D01*
X128249709Y-102727173D01*
X128188882Y-102539970D01*
X128099523Y-102364594D01*
X128084992Y-102344594D01*
X127983828Y-102205354D01*
X127844646Y-102066172D01*
X127685405Y-101950476D01*
X127646153Y-101930476D01*
X127510029Y-101861117D01*
X127322826Y-101800290D01*
X127128422Y-101769500D01*
X127128417Y-101769500D01*
X126931583Y-101769500D01*
X126931578Y-101769500D01*
X126737173Y-101800290D01*
X126549970Y-101861117D01*
X126374594Y-101950476D01*
X126283741Y-102016485D01*
X126215354Y-102066172D01*
X126215352Y-102066174D01*
X126215351Y-102066174D01*
X126076174Y-102205351D01*
X126076174Y-102205352D01*
X126076172Y-102205354D01*
X126026485Y-102273741D01*
X125960476Y-102364594D01*
X125871117Y-102539970D01*
X125810290Y-102727173D01*
X125779500Y-102921577D01*
X104250500Y-102921577D01*
X104250500Y-102901577D01*
X104219709Y-102707173D01*
X104158882Y-102519970D01*
X104069523Y-102344594D01*
X104001159Y-102250500D01*
X105748500Y-102250500D01*
X107250500Y-102250500D01*
X108248500Y-102250500D01*
X109750500Y-102250500D01*
X110748500Y-102250500D01*
X112250500Y-102250500D01*
X113248500Y-102250500D01*
X114750500Y-102250500D01*
X115748500Y-102250500D01*
X117250500Y-102250500D01*
X118248500Y-102250500D01*
X119750500Y-102250500D01*
X120748500Y-102250500D01*
X122250500Y-102250500D01*
X123248500Y-102250500D01*
X124750500Y-102250500D01*
X124750500Y-101498500D01*
X123248500Y-101498500D01*
X123248500Y-102250500D01*
X122250500Y-102250500D01*
X122250500Y-101498500D01*
X120748500Y-101498500D01*
X120748500Y-102250500D01*
X119750500Y-102250500D01*
X119750500Y-101498500D01*
X118248500Y-101498500D01*
X118248500Y-102250500D01*
X117250500Y-102250500D01*
X117250500Y-101498500D01*
X115748500Y-101498500D01*
X115748500Y-102250500D01*
X114750500Y-102250500D01*
X114750500Y-101498500D01*
X113248500Y-101498500D01*
X113248500Y-102250500D01*
X112250500Y-102250500D01*
X112250500Y-101498500D01*
X110748500Y-101498500D01*
X110748500Y-102250500D01*
X109750500Y-102250500D01*
X109750500Y-101498500D01*
X108248500Y-101498500D01*
X108248500Y-102250500D01*
X107250500Y-102250500D01*
X107250500Y-101498500D01*
X105748500Y-101498500D01*
X105748500Y-102250500D01*
X104001159Y-102250500D01*
X103953828Y-102185354D01*
X103814646Y-102046172D01*
X103655405Y-101930476D01*
X103480029Y-101841117D01*
X103292826Y-101780290D01*
X103098422Y-101749500D01*
X103098417Y-101749500D01*
X102901583Y-101749500D01*
X102901578Y-101749500D01*
X102707173Y-101780290D01*
X102519970Y-101841117D01*
X102344594Y-101930476D01*
X102253741Y-101996485D01*
X102185354Y-102046172D01*
X102185352Y-102046174D01*
X102185351Y-102046174D01*
X102046174Y-102185351D01*
X102046174Y-102185352D01*
X102046172Y-102185354D01*
X102031643Y-102205352D01*
X101930476Y-102344594D01*
X101841117Y-102519970D01*
X101780290Y-102707173D01*
X101749500Y-102901577D01*
X100500500Y-102901577D01*
X100500500Y-100624500D01*
X100520185Y-100557461D01*
X100572989Y-100511706D01*
X100624500Y-100500500D01*
X129375500Y-100500500D01*
X129442539Y-100520185D01*
G37*
%TD.AperFunction*%
%TD*%
M02*
