%TF.GenerationSoftware,KiCad,Pcbnew,8.0.5-8.0.5-0~ubuntu20.04.1*%
%TF.CreationDate,2024-10-10T12:20:39-03:00*%
%TF.ProjectId,MicroSD,4d696372-6f53-4442-9e6b-696361645f70,Luis G_mez*%
%TF.SameCoordinates,Original*%
%TF.FileFunction,Drillmap*%
%TF.FilePolarity,Positive*%
%FSLAX45Y45*%
G04 Gerber Fmt 4.5, Leading zero omitted, Abs format (unit mm)*
G04 Created by KiCad (PCBNEW 8.0.5-8.0.5-0~ubuntu20.04.1) date 2024-10-10 12:20:39*
%MOMM*%
%LPD*%
G01*
G04 APERTURE LIST*
%ADD10C,0.050000*%
%ADD11C,0.200000*%
%ADD12C,0.100000*%
G04 APERTURE END LIST*
D10*
X10000000Y-10000000D02*
X13000000Y-10000000D01*
X13000000Y-14000000D01*
X10000000Y-14000000D01*
X10000000Y-10000000D01*
D11*
D12*
X10308500Y-12512000D02*
X10338500Y-12542000D01*
X10338500Y-12512000D02*
X10308500Y-12542000D01*
X10313000Y-12402000D02*
X10343000Y-12432000D01*
X10343000Y-12402000D02*
X10313000Y-12432000D01*
X10388000Y-12292000D02*
X10418000Y-12322000D01*
X10418000Y-12292000D02*
X10388000Y-12322000D01*
X10765000Y-11011000D02*
X10795000Y-11041000D01*
X10795000Y-11011000D02*
X10765000Y-11041000D01*
X10838000Y-11667000D02*
X10868000Y-11697000D01*
X10868000Y-11667000D02*
X10838000Y-11697000D01*
X11673000Y-12947000D02*
X11703000Y-12977000D01*
X11703000Y-12947000D02*
X11673000Y-12977000D01*
X11713000Y-11439000D02*
X11743000Y-11469000D01*
X11743000Y-11439000D02*
X11713000Y-11469000D01*
X11915000Y-11476000D02*
X11945000Y-11506000D01*
X11945000Y-11476000D02*
X11915000Y-11506000D01*
X12095000Y-13192000D02*
X12125000Y-13222000D01*
X12125000Y-13192000D02*
X12095000Y-13222000D01*
X12100500Y-12432000D02*
X12130500Y-12462000D01*
X12130500Y-12432000D02*
X12100500Y-12462000D01*
X12335500Y-12187000D02*
X12365500Y-12217000D01*
X12365500Y-12187000D02*
X12335500Y-12217000D01*
X12406000Y-12361000D02*
X12436000Y-12391000D01*
X12436000Y-12361000D02*
X12406000Y-12391000D01*
X12457801Y-11676801D02*
X12487801Y-11706801D01*
X12487801Y-11676801D02*
X12457801Y-11706801D01*
X12486000Y-12693000D02*
X12516000Y-12723000D01*
X12516000Y-12693000D02*
X12486000Y-12723000D01*
X12494000Y-11931000D02*
X12524000Y-11961000D01*
X12524000Y-11931000D02*
X12494000Y-11961000D01*
D11*
X10258277Y-14313984D02*
X10258277Y-14113984D01*
X10258277Y-14113984D02*
X10305896Y-14113984D01*
X10305896Y-14113984D02*
X10334467Y-14123508D01*
X10334467Y-14123508D02*
X10353515Y-14142555D01*
X10353515Y-14142555D02*
X10363039Y-14161603D01*
X10363039Y-14161603D02*
X10372563Y-14199698D01*
X10372563Y-14199698D02*
X10372563Y-14228269D01*
X10372563Y-14228269D02*
X10363039Y-14266365D01*
X10363039Y-14266365D02*
X10353515Y-14285412D01*
X10353515Y-14285412D02*
X10334467Y-14304460D01*
X10334467Y-14304460D02*
X10305896Y-14313984D01*
X10305896Y-14313984D02*
X10258277Y-14313984D01*
X10458277Y-14313984D02*
X10458277Y-14180650D01*
X10458277Y-14218746D02*
X10467801Y-14199698D01*
X10467801Y-14199698D02*
X10477324Y-14190174D01*
X10477324Y-14190174D02*
X10496372Y-14180650D01*
X10496372Y-14180650D02*
X10515420Y-14180650D01*
X10582086Y-14313984D02*
X10582086Y-14180650D01*
X10582086Y-14113984D02*
X10572563Y-14123508D01*
X10572563Y-14123508D02*
X10582086Y-14133031D01*
X10582086Y-14133031D02*
X10591610Y-14123508D01*
X10591610Y-14123508D02*
X10582086Y-14113984D01*
X10582086Y-14113984D02*
X10582086Y-14133031D01*
X10705896Y-14313984D02*
X10686848Y-14304460D01*
X10686848Y-14304460D02*
X10677324Y-14285412D01*
X10677324Y-14285412D02*
X10677324Y-14113984D01*
X10810658Y-14313984D02*
X10791610Y-14304460D01*
X10791610Y-14304460D02*
X10782086Y-14285412D01*
X10782086Y-14285412D02*
X10782086Y-14113984D01*
X11039229Y-14313984D02*
X11039229Y-14113984D01*
X11039229Y-14113984D02*
X11105896Y-14256841D01*
X11105896Y-14256841D02*
X11172563Y-14113984D01*
X11172563Y-14113984D02*
X11172563Y-14313984D01*
X11353515Y-14313984D02*
X11353515Y-14209222D01*
X11353515Y-14209222D02*
X11343991Y-14190174D01*
X11343991Y-14190174D02*
X11324943Y-14180650D01*
X11324943Y-14180650D02*
X11286848Y-14180650D01*
X11286848Y-14180650D02*
X11267801Y-14190174D01*
X11353515Y-14304460D02*
X11334467Y-14313984D01*
X11334467Y-14313984D02*
X11286848Y-14313984D01*
X11286848Y-14313984D02*
X11267801Y-14304460D01*
X11267801Y-14304460D02*
X11258277Y-14285412D01*
X11258277Y-14285412D02*
X11258277Y-14266365D01*
X11258277Y-14266365D02*
X11267801Y-14247317D01*
X11267801Y-14247317D02*
X11286848Y-14237793D01*
X11286848Y-14237793D02*
X11334467Y-14237793D01*
X11334467Y-14237793D02*
X11353515Y-14228269D01*
X11448753Y-14180650D02*
X11448753Y-14380650D01*
X11448753Y-14190174D02*
X11467801Y-14180650D01*
X11467801Y-14180650D02*
X11505896Y-14180650D01*
X11505896Y-14180650D02*
X11524943Y-14190174D01*
X11524943Y-14190174D02*
X11534467Y-14199698D01*
X11534467Y-14199698D02*
X11543991Y-14218746D01*
X11543991Y-14218746D02*
X11543991Y-14275888D01*
X11543991Y-14275888D02*
X11534467Y-14294936D01*
X11534467Y-14294936D02*
X11524943Y-14304460D01*
X11524943Y-14304460D02*
X11505896Y-14313984D01*
X11505896Y-14313984D02*
X11467801Y-14313984D01*
X11467801Y-14313984D02*
X11448753Y-14304460D01*
X11629705Y-14294936D02*
X11639229Y-14304460D01*
X11639229Y-14304460D02*
X11629705Y-14313984D01*
X11629705Y-14313984D02*
X11620182Y-14304460D01*
X11620182Y-14304460D02*
X11629705Y-14294936D01*
X11629705Y-14294936D02*
X11629705Y-14313984D01*
X11629705Y-14190174D02*
X11639229Y-14199698D01*
X11639229Y-14199698D02*
X11629705Y-14209222D01*
X11629705Y-14209222D02*
X11620182Y-14199698D01*
X11620182Y-14199698D02*
X11629705Y-14190174D01*
X11629705Y-14190174D02*
X11629705Y-14209222D01*
D12*
X9967500Y-14627500D02*
X9997500Y-14657500D01*
X9997500Y-14627500D02*
X9967500Y-14657500D01*
D11*
X10296372Y-14533984D02*
X10315420Y-14533984D01*
X10315420Y-14533984D02*
X10334467Y-14543508D01*
X10334467Y-14543508D02*
X10343991Y-14553031D01*
X10343991Y-14553031D02*
X10353515Y-14572079D01*
X10353515Y-14572079D02*
X10363039Y-14610174D01*
X10363039Y-14610174D02*
X10363039Y-14657793D01*
X10363039Y-14657793D02*
X10353515Y-14695888D01*
X10353515Y-14695888D02*
X10343991Y-14714936D01*
X10343991Y-14714936D02*
X10334467Y-14724460D01*
X10334467Y-14724460D02*
X10315420Y-14733984D01*
X10315420Y-14733984D02*
X10296372Y-14733984D01*
X10296372Y-14733984D02*
X10277324Y-14724460D01*
X10277324Y-14724460D02*
X10267801Y-14714936D01*
X10267801Y-14714936D02*
X10258277Y-14695888D01*
X10258277Y-14695888D02*
X10248753Y-14657793D01*
X10248753Y-14657793D02*
X10248753Y-14610174D01*
X10248753Y-14610174D02*
X10258277Y-14572079D01*
X10258277Y-14572079D02*
X10267801Y-14553031D01*
X10267801Y-14553031D02*
X10277324Y-14543508D01*
X10277324Y-14543508D02*
X10296372Y-14533984D01*
X10448753Y-14714936D02*
X10458277Y-14724460D01*
X10458277Y-14724460D02*
X10448753Y-14733984D01*
X10448753Y-14733984D02*
X10439229Y-14724460D01*
X10439229Y-14724460D02*
X10448753Y-14714936D01*
X10448753Y-14714936D02*
X10448753Y-14733984D01*
X10524944Y-14533984D02*
X10648753Y-14533984D01*
X10648753Y-14533984D02*
X10582086Y-14610174D01*
X10582086Y-14610174D02*
X10610658Y-14610174D01*
X10610658Y-14610174D02*
X10629705Y-14619698D01*
X10629705Y-14619698D02*
X10639229Y-14629222D01*
X10639229Y-14629222D02*
X10648753Y-14648269D01*
X10648753Y-14648269D02*
X10648753Y-14695888D01*
X10648753Y-14695888D02*
X10639229Y-14714936D01*
X10639229Y-14714936D02*
X10629705Y-14724460D01*
X10629705Y-14724460D02*
X10610658Y-14733984D01*
X10610658Y-14733984D02*
X10553515Y-14733984D01*
X10553515Y-14733984D02*
X10534467Y-14724460D01*
X10534467Y-14724460D02*
X10524944Y-14714936D01*
X10772563Y-14533984D02*
X10791610Y-14533984D01*
X10791610Y-14533984D02*
X10810658Y-14543508D01*
X10810658Y-14543508D02*
X10820182Y-14553031D01*
X10820182Y-14553031D02*
X10829705Y-14572079D01*
X10829705Y-14572079D02*
X10839229Y-14610174D01*
X10839229Y-14610174D02*
X10839229Y-14657793D01*
X10839229Y-14657793D02*
X10829705Y-14695888D01*
X10829705Y-14695888D02*
X10820182Y-14714936D01*
X10820182Y-14714936D02*
X10810658Y-14724460D01*
X10810658Y-14724460D02*
X10791610Y-14733984D01*
X10791610Y-14733984D02*
X10772563Y-14733984D01*
X10772563Y-14733984D02*
X10753515Y-14724460D01*
X10753515Y-14724460D02*
X10743991Y-14714936D01*
X10743991Y-14714936D02*
X10734467Y-14695888D01*
X10734467Y-14695888D02*
X10724944Y-14657793D01*
X10724944Y-14657793D02*
X10724944Y-14610174D01*
X10724944Y-14610174D02*
X10734467Y-14572079D01*
X10734467Y-14572079D02*
X10743991Y-14553031D01*
X10743991Y-14553031D02*
X10753515Y-14543508D01*
X10753515Y-14543508D02*
X10772563Y-14533984D01*
X10963039Y-14533984D02*
X10982086Y-14533984D01*
X10982086Y-14533984D02*
X11001134Y-14543508D01*
X11001134Y-14543508D02*
X11010658Y-14553031D01*
X11010658Y-14553031D02*
X11020182Y-14572079D01*
X11020182Y-14572079D02*
X11029705Y-14610174D01*
X11029705Y-14610174D02*
X11029705Y-14657793D01*
X11029705Y-14657793D02*
X11020182Y-14695888D01*
X11020182Y-14695888D02*
X11010658Y-14714936D01*
X11010658Y-14714936D02*
X11001134Y-14724460D01*
X11001134Y-14724460D02*
X10982086Y-14733984D01*
X10982086Y-14733984D02*
X10963039Y-14733984D01*
X10963039Y-14733984D02*
X10943991Y-14724460D01*
X10943991Y-14724460D02*
X10934467Y-14714936D01*
X10934467Y-14714936D02*
X10924944Y-14695888D01*
X10924944Y-14695888D02*
X10915420Y-14657793D01*
X10915420Y-14657793D02*
X10915420Y-14610174D01*
X10915420Y-14610174D02*
X10924944Y-14572079D01*
X10924944Y-14572079D02*
X10934467Y-14553031D01*
X10934467Y-14553031D02*
X10943991Y-14543508D01*
X10943991Y-14543508D02*
X10963039Y-14533984D01*
X11115420Y-14733984D02*
X11115420Y-14600650D01*
X11115420Y-14619698D02*
X11124944Y-14610174D01*
X11124944Y-14610174D02*
X11143991Y-14600650D01*
X11143991Y-14600650D02*
X11172563Y-14600650D01*
X11172563Y-14600650D02*
X11191610Y-14610174D01*
X11191610Y-14610174D02*
X11201134Y-14629222D01*
X11201134Y-14629222D02*
X11201134Y-14733984D01*
X11201134Y-14629222D02*
X11210658Y-14610174D01*
X11210658Y-14610174D02*
X11229705Y-14600650D01*
X11229705Y-14600650D02*
X11258277Y-14600650D01*
X11258277Y-14600650D02*
X11277324Y-14610174D01*
X11277324Y-14610174D02*
X11286848Y-14629222D01*
X11286848Y-14629222D02*
X11286848Y-14733984D01*
X11382086Y-14733984D02*
X11382086Y-14600650D01*
X11382086Y-14619698D02*
X11391610Y-14610174D01*
X11391610Y-14610174D02*
X11410658Y-14600650D01*
X11410658Y-14600650D02*
X11439229Y-14600650D01*
X11439229Y-14600650D02*
X11458277Y-14610174D01*
X11458277Y-14610174D02*
X11467801Y-14629222D01*
X11467801Y-14629222D02*
X11467801Y-14733984D01*
X11467801Y-14629222D02*
X11477324Y-14610174D01*
X11477324Y-14610174D02*
X11496372Y-14600650D01*
X11496372Y-14600650D02*
X11524943Y-14600650D01*
X11524943Y-14600650D02*
X11543991Y-14610174D01*
X11543991Y-14610174D02*
X11553515Y-14629222D01*
X11553515Y-14629222D02*
X11553515Y-14733984D01*
X11943991Y-14524460D02*
X11772563Y-14781603D01*
X12201134Y-14533984D02*
X12220182Y-14533984D01*
X12220182Y-14533984D02*
X12239229Y-14543508D01*
X12239229Y-14543508D02*
X12248753Y-14553031D01*
X12248753Y-14553031D02*
X12258277Y-14572079D01*
X12258277Y-14572079D02*
X12267801Y-14610174D01*
X12267801Y-14610174D02*
X12267801Y-14657793D01*
X12267801Y-14657793D02*
X12258277Y-14695888D01*
X12258277Y-14695888D02*
X12248753Y-14714936D01*
X12248753Y-14714936D02*
X12239229Y-14724460D01*
X12239229Y-14724460D02*
X12220182Y-14733984D01*
X12220182Y-14733984D02*
X12201134Y-14733984D01*
X12201134Y-14733984D02*
X12182086Y-14724460D01*
X12182086Y-14724460D02*
X12172563Y-14714936D01*
X12172563Y-14714936D02*
X12163039Y-14695888D01*
X12163039Y-14695888D02*
X12153515Y-14657793D01*
X12153515Y-14657793D02*
X12153515Y-14610174D01*
X12153515Y-14610174D02*
X12163039Y-14572079D01*
X12163039Y-14572079D02*
X12172563Y-14553031D01*
X12172563Y-14553031D02*
X12182086Y-14543508D01*
X12182086Y-14543508D02*
X12201134Y-14533984D01*
X12353515Y-14714936D02*
X12363039Y-14724460D01*
X12363039Y-14724460D02*
X12353515Y-14733984D01*
X12353515Y-14733984D02*
X12343991Y-14724460D01*
X12343991Y-14724460D02*
X12353515Y-14714936D01*
X12353515Y-14714936D02*
X12353515Y-14733984D01*
X12486848Y-14533984D02*
X12505896Y-14533984D01*
X12505896Y-14533984D02*
X12524944Y-14543508D01*
X12524944Y-14543508D02*
X12534467Y-14553031D01*
X12534467Y-14553031D02*
X12543991Y-14572079D01*
X12543991Y-14572079D02*
X12553515Y-14610174D01*
X12553515Y-14610174D02*
X12553515Y-14657793D01*
X12553515Y-14657793D02*
X12543991Y-14695888D01*
X12543991Y-14695888D02*
X12534467Y-14714936D01*
X12534467Y-14714936D02*
X12524944Y-14724460D01*
X12524944Y-14724460D02*
X12505896Y-14733984D01*
X12505896Y-14733984D02*
X12486848Y-14733984D01*
X12486848Y-14733984D02*
X12467801Y-14724460D01*
X12467801Y-14724460D02*
X12458277Y-14714936D01*
X12458277Y-14714936D02*
X12448753Y-14695888D01*
X12448753Y-14695888D02*
X12439229Y-14657793D01*
X12439229Y-14657793D02*
X12439229Y-14610174D01*
X12439229Y-14610174D02*
X12448753Y-14572079D01*
X12448753Y-14572079D02*
X12458277Y-14553031D01*
X12458277Y-14553031D02*
X12467801Y-14543508D01*
X12467801Y-14543508D02*
X12486848Y-14533984D01*
X12743991Y-14733984D02*
X12629706Y-14733984D01*
X12686848Y-14733984D02*
X12686848Y-14533984D01*
X12686848Y-14533984D02*
X12667801Y-14562555D01*
X12667801Y-14562555D02*
X12648753Y-14581603D01*
X12648753Y-14581603D02*
X12629706Y-14591127D01*
X12934467Y-14733984D02*
X12820182Y-14733984D01*
X12877325Y-14733984D02*
X12877325Y-14533984D01*
X12877325Y-14533984D02*
X12858277Y-14562555D01*
X12858277Y-14562555D02*
X12839229Y-14581603D01*
X12839229Y-14581603D02*
X12820182Y-14591127D01*
X13048753Y-14619698D02*
X13029706Y-14610174D01*
X13029706Y-14610174D02*
X13020182Y-14600650D01*
X13020182Y-14600650D02*
X13010658Y-14581603D01*
X13010658Y-14581603D02*
X13010658Y-14572079D01*
X13010658Y-14572079D02*
X13020182Y-14553031D01*
X13020182Y-14553031D02*
X13029706Y-14543508D01*
X13029706Y-14543508D02*
X13048753Y-14533984D01*
X13048753Y-14533984D02*
X13086848Y-14533984D01*
X13086848Y-14533984D02*
X13105896Y-14543508D01*
X13105896Y-14543508D02*
X13115420Y-14553031D01*
X13115420Y-14553031D02*
X13124944Y-14572079D01*
X13124944Y-14572079D02*
X13124944Y-14581603D01*
X13124944Y-14581603D02*
X13115420Y-14600650D01*
X13115420Y-14600650D02*
X13105896Y-14610174D01*
X13105896Y-14610174D02*
X13086848Y-14619698D01*
X13086848Y-14619698D02*
X13048753Y-14619698D01*
X13048753Y-14619698D02*
X13029706Y-14629222D01*
X13029706Y-14629222D02*
X13020182Y-14638746D01*
X13020182Y-14638746D02*
X13010658Y-14657793D01*
X13010658Y-14657793D02*
X13010658Y-14695888D01*
X13010658Y-14695888D02*
X13020182Y-14714936D01*
X13020182Y-14714936D02*
X13029706Y-14724460D01*
X13029706Y-14724460D02*
X13048753Y-14733984D01*
X13048753Y-14733984D02*
X13086848Y-14733984D01*
X13086848Y-14733984D02*
X13105896Y-14724460D01*
X13105896Y-14724460D02*
X13115420Y-14714936D01*
X13115420Y-14714936D02*
X13124944Y-14695888D01*
X13124944Y-14695888D02*
X13124944Y-14657793D01*
X13124944Y-14657793D02*
X13115420Y-14638746D01*
X13115420Y-14638746D02*
X13105896Y-14629222D01*
X13105896Y-14629222D02*
X13086848Y-14619698D01*
X13201134Y-14533984D02*
X13201134Y-14572079D01*
X13277325Y-14533984D02*
X13277325Y-14572079D01*
X13572563Y-14810174D02*
X13563039Y-14800650D01*
X13563039Y-14800650D02*
X13543991Y-14772079D01*
X13543991Y-14772079D02*
X13534468Y-14753031D01*
X13534468Y-14753031D02*
X13524944Y-14724460D01*
X13524944Y-14724460D02*
X13515420Y-14676841D01*
X13515420Y-14676841D02*
X13515420Y-14638746D01*
X13515420Y-14638746D02*
X13524944Y-14591127D01*
X13524944Y-14591127D02*
X13534468Y-14562555D01*
X13534468Y-14562555D02*
X13543991Y-14543508D01*
X13543991Y-14543508D02*
X13563039Y-14514936D01*
X13563039Y-14514936D02*
X13572563Y-14505412D01*
X13753515Y-14733984D02*
X13639229Y-14733984D01*
X13696372Y-14733984D02*
X13696372Y-14533984D01*
X13696372Y-14533984D02*
X13677325Y-14562555D01*
X13677325Y-14562555D02*
X13658277Y-14581603D01*
X13658277Y-14581603D02*
X13639229Y-14591127D01*
X13934468Y-14533984D02*
X13839229Y-14533984D01*
X13839229Y-14533984D02*
X13829706Y-14629222D01*
X13829706Y-14629222D02*
X13839229Y-14619698D01*
X13839229Y-14619698D02*
X13858277Y-14610174D01*
X13858277Y-14610174D02*
X13905896Y-14610174D01*
X13905896Y-14610174D02*
X13924944Y-14619698D01*
X13924944Y-14619698D02*
X13934468Y-14629222D01*
X13934468Y-14629222D02*
X13943991Y-14648269D01*
X13943991Y-14648269D02*
X13943991Y-14695888D01*
X13943991Y-14695888D02*
X13934468Y-14714936D01*
X13934468Y-14714936D02*
X13924944Y-14724460D01*
X13924944Y-14724460D02*
X13905896Y-14733984D01*
X13905896Y-14733984D02*
X13858277Y-14733984D01*
X13858277Y-14733984D02*
X13839229Y-14724460D01*
X13839229Y-14724460D02*
X13829706Y-14714936D01*
X14182087Y-14733984D02*
X14182087Y-14533984D01*
X14267801Y-14733984D02*
X14267801Y-14629222D01*
X14267801Y-14629222D02*
X14258277Y-14610174D01*
X14258277Y-14610174D02*
X14239230Y-14600650D01*
X14239230Y-14600650D02*
X14210658Y-14600650D01*
X14210658Y-14600650D02*
X14191610Y-14610174D01*
X14191610Y-14610174D02*
X14182087Y-14619698D01*
X14391610Y-14733984D02*
X14372563Y-14724460D01*
X14372563Y-14724460D02*
X14363039Y-14714936D01*
X14363039Y-14714936D02*
X14353515Y-14695888D01*
X14353515Y-14695888D02*
X14353515Y-14638746D01*
X14353515Y-14638746D02*
X14363039Y-14619698D01*
X14363039Y-14619698D02*
X14372563Y-14610174D01*
X14372563Y-14610174D02*
X14391610Y-14600650D01*
X14391610Y-14600650D02*
X14420182Y-14600650D01*
X14420182Y-14600650D02*
X14439230Y-14610174D01*
X14439230Y-14610174D02*
X14448753Y-14619698D01*
X14448753Y-14619698D02*
X14458277Y-14638746D01*
X14458277Y-14638746D02*
X14458277Y-14695888D01*
X14458277Y-14695888D02*
X14448753Y-14714936D01*
X14448753Y-14714936D02*
X14439230Y-14724460D01*
X14439230Y-14724460D02*
X14420182Y-14733984D01*
X14420182Y-14733984D02*
X14391610Y-14733984D01*
X14572563Y-14733984D02*
X14553515Y-14724460D01*
X14553515Y-14724460D02*
X14543991Y-14705412D01*
X14543991Y-14705412D02*
X14543991Y-14533984D01*
X14724944Y-14724460D02*
X14705896Y-14733984D01*
X14705896Y-14733984D02*
X14667801Y-14733984D01*
X14667801Y-14733984D02*
X14648753Y-14724460D01*
X14648753Y-14724460D02*
X14639230Y-14705412D01*
X14639230Y-14705412D02*
X14639230Y-14629222D01*
X14639230Y-14629222D02*
X14648753Y-14610174D01*
X14648753Y-14610174D02*
X14667801Y-14600650D01*
X14667801Y-14600650D02*
X14705896Y-14600650D01*
X14705896Y-14600650D02*
X14724944Y-14610174D01*
X14724944Y-14610174D02*
X14734468Y-14629222D01*
X14734468Y-14629222D02*
X14734468Y-14648269D01*
X14734468Y-14648269D02*
X14639230Y-14667317D01*
X14810658Y-14724460D02*
X14829706Y-14733984D01*
X14829706Y-14733984D02*
X14867801Y-14733984D01*
X14867801Y-14733984D02*
X14886849Y-14724460D01*
X14886849Y-14724460D02*
X14896372Y-14705412D01*
X14896372Y-14705412D02*
X14896372Y-14695888D01*
X14896372Y-14695888D02*
X14886849Y-14676841D01*
X14886849Y-14676841D02*
X14867801Y-14667317D01*
X14867801Y-14667317D02*
X14839230Y-14667317D01*
X14839230Y-14667317D02*
X14820182Y-14657793D01*
X14820182Y-14657793D02*
X14810658Y-14638746D01*
X14810658Y-14638746D02*
X14810658Y-14629222D01*
X14810658Y-14629222D02*
X14820182Y-14610174D01*
X14820182Y-14610174D02*
X14839230Y-14600650D01*
X14839230Y-14600650D02*
X14867801Y-14600650D01*
X14867801Y-14600650D02*
X14886849Y-14610174D01*
X14963039Y-14810174D02*
X14972563Y-14800650D01*
X14972563Y-14800650D02*
X14991611Y-14772079D01*
X14991611Y-14772079D02*
X15001134Y-14753031D01*
X15001134Y-14753031D02*
X15010658Y-14724460D01*
X15010658Y-14724460D02*
X15020182Y-14676841D01*
X15020182Y-14676841D02*
X15020182Y-14638746D01*
X15020182Y-14638746D02*
X15010658Y-14591127D01*
X15010658Y-14591127D02*
X15001134Y-14562555D01*
X15001134Y-14562555D02*
X14991611Y-14543508D01*
X14991611Y-14543508D02*
X14972563Y-14514936D01*
X14972563Y-14514936D02*
X14963039Y-14505412D01*
M02*
